<svg width="36" height="36" viewBox="0 0 36 36" fill="none" xmlns="http://www.w3.org/2000/svg">
<path fill-rule="evenodd" clip-rule="evenodd" d="M2.80073 4.72754C2.3589 4.72754 2.00073 5.08571 2.00073 5.52754C2.00073 5.96937 2.3589 6.32754 2.80073 6.32754H4.67076C6.89614 6.32754 8.36815 7.69756 8.48497 9.62083L8.485 9.62132L9.21223 21.474L9.21235 21.476C9.36701 23.8975 11.2804 25.5051 13.7508 25.5051H24.8878C25.3297 25.5051 25.6878 25.1469 25.6878 24.7051C25.6878 24.2633 25.3297 23.9051 24.8878 23.9051H13.7508C12.0244 23.9051 10.9044 22.857 10.8092 21.3752L10.8091 21.374L10.791 21.0782H25.1003C26.3751 21.0782 27.6242 20.2712 28.2492 19.1615L28.2492 19.1615L28.2529 19.1548L32.7618 10.9646L32.7619 10.9646L32.7673 10.9544C33.2214 10.1006 33.2723 9.15818 32.8675 8.38974C32.4548 7.60644 31.6397 7.14258 30.6688 7.14258H15.6878C15.246 7.14258 14.8878 7.50075 14.8878 7.94258C14.8878 8.38441 15.246 8.74258 15.6878 8.74258H30.6688C31.1109 8.74258 31.3451 8.93273 31.4519 9.13547C31.5661 9.35236 31.6067 9.72621 31.3572 10.1983L26.8533 18.3795C26.4804 19.0389 25.7361 19.4782 25.1003 19.4782H10.6928L10.082 9.52383L10.082 9.52355L10.082 9.52334C9.90769 6.65753 7.63973 4.72754 4.67076 4.72754H2.80073ZM8.67353 27.6078C7.87065 28.2948 7.92093 29.0915 8.18969 29.3862C8.45845 29.6808 9.26863 29.8273 10.0715 29.1403C10.8744 28.4533 10.8241 27.6565 10.5554 27.3619C10.2866 27.0673 9.47641 26.9208 8.67353 27.6078ZM6.97401 30.4264C5.87514 29.2218 6.42018 27.4312 7.59522 26.4258C8.77027 25.4203 10.6722 25.1172 11.771 26.3217C12.8699 27.5263 12.3249 29.3168 11.1498 30.3223C9.97478 31.3277 8.07287 31.6309 6.97401 30.4264ZM22.4866 29.3771C22.2178 29.0825 22.1675 28.2858 22.9704 27.5988C23.7733 26.9118 24.5835 27.0583 24.8522 27.3529C25.121 27.6475 25.1713 28.4442 24.3684 29.1312C23.5655 29.8182 22.7553 29.6717 22.4866 29.3771ZM21.8921 26.4168C20.7171 27.4222 20.172 29.2128 21.2709 30.4173C22.3697 31.6219 24.2717 31.3187 25.4467 30.3133C26.6217 29.3078 27.1668 27.5172 26.0679 26.3127C24.9691 25.1081 23.0671 25.4113 21.8921 26.4168Z" fill="#1E65F4"/>
</svg>
