<svg width="36" height="36" viewBox="0 0 36 36" fill="none" xmlns="http://www.w3.org/2000/svg">
<path fill-rule="evenodd" clip-rule="evenodd" d="M18.8391 2.45771C18.8391 2.01589 18.4809 1.65771 18.0391 1.65771C17.5972 1.65771 17.2391 2.01589 17.2391 2.45771V3.14868H15.7527C8.18717 3.14868 1.93048 8.84747 1.93048 16.0047C1.93048 16.304 2.09752 16.5782 2.36344 16.7155C2.62936 16.8528 2.94967 16.8302 3.19368 16.657C4.49779 15.7308 6.05556 15.2714 7.6453 15.2714C9.04241 15.2714 10.4536 15.6355 11.6671 16.3556L11.6686 16.3565L12.1905 16.6697C12.4375 16.8179 12.745 16.8219 12.9958 16.6801L13.9619 16.134L13.962 16.1341L13.972 16.1282C14.9788 15.5396 16.1002 15.19 17.2432 15.0903V29.8463C17.2432 31.1057 16.2361 32.1128 14.9767 32.1128C13.7172 32.1128 12.7102 31.1057 12.7102 29.8463V28.8591C12.7102 28.4173 12.352 28.0591 11.9102 28.0591C11.4683 28.0591 11.1102 28.4173 11.1102 28.8591V29.8463C11.1102 31.9894 12.8336 33.7128 14.9767 33.7128C17.1198 33.7128 18.8432 31.9894 18.8432 29.8463V15.1046C19.9444 15.2229 21.0333 15.583 21.9976 16.1646L21.9992 16.1656L22.8393 16.6697C23.0867 16.8181 23.3949 16.8218 23.6458 16.6794L24.4229 16.2384L24.4229 16.2384L24.4299 16.2344C27.0118 14.7346 30.3463 14.8839 32.7804 16.5695L32.8526 16.6237C33.095 16.8055 33.4193 16.8347 33.6904 16.6992C33.9614 16.5637 34.1326 16.2867 34.1326 15.9837C34.1326 12.4047 32.5777 9.19238 30.0516 6.88852C27.5504 4.56726 24.1011 3.14868 20.3104 3.14868H18.8391V2.45771ZM3.6316 14.5554C4.89179 13.9616 6.26589 13.6714 7.6453 13.6714C9.31411 13.6714 11.0108 14.1052 12.4855 14.9808L12.4886 14.9826L12.4886 14.9826L12.6141 15.0579L13.1697 14.744C14.606 13.9055 16.2317 13.4714 17.864 13.4608C17.9216 13.4476 17.9816 13.4407 18.0432 13.4407C18.1088 13.4407 18.1725 13.4486 18.2335 13.4634C19.8276 13.4974 21.4306 13.9543 22.8232 14.7941L22.824 14.7946L23.2621 15.0575L23.6298 14.8488C26.3247 13.285 29.6749 13.2063 32.4317 14.5239C32.0813 12.012 30.8356 9.76808 28.971 8.06851L28.9656 8.06353L28.9656 8.0635C26.7622 6.01753 23.7015 4.74868 20.3104 4.74868H15.7527C9.49337 4.74868 4.40274 9.06615 3.6316 14.5554Z" fill="#1E65F4"/>
</svg>
