<svg width="213" height="38" viewBox="0 0 213 38" fill="none" xmlns="http://www.w3.org/2000/svg">
<path d="M2.8436 30V9.26542H5.8353L13.596 22.654H13.7441L21.5343 9.26542H24.4668V30H22.3933V11.9017H22.2452L14.6623 24.8756H12.6185L5.06516 11.9017H4.91706V30H2.8436ZM30.1214 30V9.26542H43.895V11.2796H32.1948V27.9858H44.0432V30H30.1214ZM31.0692 20.4917V18.4775H42.2659V20.4917H31.0692ZM48.3162 30V9.26542H54.8624C56.8964 9.26542 58.7131 9.70974 60.3126 10.5984C61.9319 11.4672 63.1858 12.6916 64.0745 14.2713C64.9828 15.8511 65.437 17.6382 65.437 19.6327C65.437 21.6272 64.9828 23.4143 64.0745 24.9941C63.1858 26.5739 61.9319 27.8081 60.3126 28.6967C58.7131 29.5656 56.8964 30 54.8624 30H48.3162ZM54.8624 27.9858C56.5212 27.9858 57.9824 27.6402 59.2463 26.9491C60.5298 26.2579 61.5271 25.2804 62.238 24.0166C62.9489 22.733 63.3043 21.2717 63.3043 19.6327C63.3043 17.9937 62.9489 16.5423 62.238 15.2785C61.5271 13.9949 60.5298 13.0075 59.2463 12.3164C57.9824 11.6252 56.5212 11.2796 54.8624 11.2796H50.3896V27.9858H54.8624ZM69.8665 30V9.26542H71.8511V30H69.8665ZM75.4889 30L83.4865 9.26542H86.0931L94.0908 30H91.9581L84.8491 11.3981H84.701L77.592 30H75.4889ZM78.8064 24.1055L79.3692 22.1801H90.1808L90.7732 24.1055H78.8064Z" fill="white"/>
<path d="M100.865 30L95.6813 9.26542H99.9763L103.827 25.2607H103.975L107.974 9.26542H113.128L117.127 25.2607H117.275L121.096 9.26542H125.272L120.089 30H114.579L110.551 14.0048H110.403L106.374 30H100.865ZM137.636 30.3851C135.582 30.3851 133.716 29.921 132.038 28.9929C130.359 28.045 129.036 26.7516 128.068 25.1126C127.121 23.4735 126.647 21.6469 126.647 19.6327C126.647 17.6185 127.121 15.7919 128.068 14.1529C129.036 12.5138 130.359 11.2303 132.038 10.3022C133.716 9.35429 135.582 8.88035 137.636 8.88035C139.69 8.88035 141.556 9.35429 143.234 10.3022C144.913 11.2303 146.226 12.5138 147.174 14.1529C148.141 15.7919 148.625 17.6185 148.625 19.6327C148.625 21.6469 148.141 23.4735 147.174 25.1126C146.226 26.7516 144.913 28.045 143.234 28.9929C141.556 29.921 139.69 30.3851 137.636 30.3851ZM137.636 26.4751C138.939 26.4751 140.094 26.1888 141.102 25.6161C142.128 25.0237 142.918 24.2141 143.471 23.1872C144.044 22.1406 144.33 20.9558 144.33 19.6327C144.33 18.3096 144.044 17.1347 143.471 16.1078C142.918 15.0612 142.128 14.2516 141.102 13.6789C140.094 13.0865 138.939 12.7903 137.636 12.7903C136.352 12.7903 135.197 13.0865 134.17 13.6789C133.143 14.2516 132.344 15.0612 131.771 16.1078C131.218 17.1347 130.942 18.3096 130.942 19.6327C130.942 20.9558 131.218 22.1406 131.771 23.1872C132.344 24.2141 133.143 25.0237 134.17 25.6161C135.197 26.1888 136.352 26.4751 137.636 26.4751ZM152.272 30V9.26542H161.218C162.738 9.26542 164.091 9.55176 165.276 10.1244C166.461 10.6971 167.379 11.5067 168.031 12.5533C168.682 13.5802 169.008 14.765 169.008 16.1078C169.008 17.4506 168.672 18.6355 168.001 19.6623C167.349 20.6892 166.411 21.489 165.187 22.0616C163.982 22.6343 162.59 22.9206 161.01 22.9206H153.99V19.2476H161.07C161.86 19.2476 162.531 19.1292 163.084 18.8922C163.637 18.6552 164.052 18.3096 164.328 17.8555C164.624 17.3815 164.772 16.799 164.772 16.1078C164.772 15.1007 164.456 14.3306 163.824 13.7974C163.193 13.2642 162.274 12.9976 161.07 12.9976H156.36V20.5806L156.419 20.8175V30H152.272ZM164.861 30L159.055 21.0249H163.499L169.571 30H164.861ZM186.637 30L179.261 19.3661L186.222 9.26542H190.873L183.201 20.1955L183.29 18.2405L191.495 30H186.637ZM173.071 30V9.26542H177.217V30H173.071ZM175.618 21.4396V17.5296H181.749V21.4396H175.618ZM201.46 30.3851C198.616 30.3851 196.415 29.8025 194.855 28.6374C193.295 27.4526 192.455 25.7346 192.337 23.4834H196.661C196.701 24.5498 197.116 25.3594 197.906 25.9123C198.695 26.4652 199.86 26.7417 201.401 26.7417C202.566 26.7417 203.494 26.5344 204.185 26.1197C204.896 25.705 205.251 25.1126 205.251 24.3424C205.251 23.7698 205.044 23.2958 204.629 22.9206C204.215 22.5257 203.701 22.2196 203.089 22.0024C202.477 21.7654 201.618 21.5087 200.512 21.2322C198.992 20.8373 197.738 20.4423 196.75 20.0474C195.763 19.6327 194.924 19.0107 194.233 18.1813C193.541 17.3519 193.196 16.2658 193.196 14.923C193.196 13.7382 193.522 12.6916 194.173 11.7832C194.825 10.8551 195.743 10.1442 196.928 9.65049C198.113 9.13707 199.495 8.88035 201.075 8.88035C203.563 8.88035 205.518 9.4234 206.94 10.5095C208.381 11.5956 209.181 13.1556 209.339 15.1896H205.015C204.955 14.2812 204.61 13.6098 203.978 13.1754C203.346 12.7409 202.408 12.5237 201.164 12.5237C200.018 12.5237 199.12 12.7311 198.468 13.1458C197.817 13.5407 197.491 14.0936 197.491 14.8045C197.491 15.3772 197.688 15.861 198.083 16.2559C198.498 16.6311 199.011 16.9273 199.624 17.1446C200.255 17.3618 201.114 17.6086 202.201 17.8851C203.741 18.28 204.995 18.6848 205.962 19.0995C206.95 19.4945 207.789 20.1066 208.48 20.936C209.191 21.7654 209.546 22.8614 209.546 24.2239C209.546 25.4483 209.201 26.5344 208.51 27.4822C207.838 28.4103 206.89 29.1311 205.666 29.6446C204.442 30.1382 203.04 30.3851 201.46 30.3851Z" fill="white"/>
</svg>
