<svg width="36" height="36" viewBox="0 0 36 36" fill="none" xmlns="http://www.w3.org/2000/svg">
<path fill-rule="evenodd" clip-rule="evenodd" d="M17.1797 2.25108L17.3584 2.03471L17.3588 2.03423L17.3589 2.0341L17.3595 2.03346C17.578 1.76902 17.7907 1.51159 18.0136 1.2373C18.1551 1.40874 18.2939 1.57609 18.4327 1.74344L18.4334 1.74437C18.5724 1.91191 18.7113 2.07945 18.853 2.25108C18.6913 2.45712 18.5333 2.65948 18.3715 2.86672C18.2551 3.01582 18.1368 3.16746 18.0136 3.32481C17.7247 2.94874 17.4577 2.60536 17.1797 2.25108ZM13.3711 7.11617L13.371 7.11622L13.3707 7.11648L13.3707 7.1165L13.3706 7.11657C13.2589 7.21746 13.1447 7.32063 13.0269 7.42909C12.9571 7.36623 12.8872 7.3056 12.8181 7.2456L12.818 7.24546L12.8179 7.2454C12.6713 7.11819 12.528 6.99378 12.3947 6.8568C12.2094 6.66058 12.0077 6.66058 11.7788 6.74779C11.4354 6.88405 11.2719 7.17292 11.3155 7.5817C11.3646 8.03409 11.6044 8.39926 11.866 8.74809C11.9042 8.80259 12.0077 8.8244 12.0786 8.8244L12.4529 8.8274C13.0817 8.83271 13.713 8.83804 14.3405 8.8244C15.6377 8.79714 16.5806 8.11039 17.0221 6.8895C17.0766 6.75324 17.142 6.71508 17.2783 6.71508L17.2836 6.71515C17.756 6.72058 18.223 6.72594 18.6954 6.71508C18.8861 6.70963 18.9733 6.76414 19.0442 6.9549C19.4203 8.02318 20.1888 8.66633 21.3061 8.77534C21.9653 8.84004 22.6334 8.83574 23.3017 8.83143C23.5341 8.82994 23.7665 8.82844 23.9986 8.82985C24.064 8.82985 24.1567 8.77534 24.1948 8.72084C24.2204 8.68512 24.2468 8.6494 24.2734 8.61351C24.3889 8.45768 24.5069 8.29849 24.56 8.12129C24.6472 7.83242 24.7235 7.51085 24.6745 7.22742C24.5873 6.70963 23.9986 6.54612 23.6117 6.8895C23.41 7.06391 23.2083 7.24377 23.0067 7.42909C22.9391 7.36942 22.873 7.31246 22.8083 7.25678L22.8082 7.25674L22.8081 7.25666L22.8081 7.25665L22.8081 7.25664L22.8081 7.25663L22.8081 7.25662C22.6484 7.11911 22.4977 6.9894 22.3581 6.84589C22.1836 6.66058 21.9929 6.66603 21.7858 6.73689C21.4206 6.86225 21.2189 7.19472 21.3007 7.6035C21.3411 7.79845 21.4089 7.98843 21.4755 8.17512L21.4755 8.17524L21.4758 8.17585L21.4759 8.17617C21.5078 8.26576 21.5395 8.3546 21.5677 8.44287C21.0227 8.45377 20.058 7.90328 19.7528 7.04211C19.6819 6.82954 19.6873 6.66058 19.8127 6.45891L19.8426 6.41147C20.138 5.94244 20.4322 5.47535 20.5376 4.91645C20.6793 4.14249 20.3141 3.64105 19.5347 3.54839C19.3494 3.52659 19.2186 3.57019 19.0933 3.72826C18.8319 4.05597 18.5579 4.37106 18.2761 4.69514C18.1877 4.79687 18.0985 4.89948 18.0086 5.00365C17.9046 4.88208 17.8026 4.76247 17.7018 4.64431C17.4275 4.32277 17.1623 4.01189 16.8913 3.701C16.8368 3.6356 16.7605 3.55929 16.6842 3.54839C16.0574 3.43938 15.4251 3.95172 15.4633 4.58397C15.4851 4.93825 15.5995 5.29253 15.7358 5.625C15.8225 5.83311 15.9401 6.02577 16.0577 6.21842C16.1249 6.32851 16.1921 6.4386 16.2536 6.55157C16.3026 6.63878 16.3408 6.75869 16.319 6.85134C16.15 7.66346 15.278 8.39926 14.4113 8.45377C14.4339 8.40874 14.4564 8.36662 14.4781 8.32591L14.4782 8.32586L14.4782 8.32582C14.4986 8.28771 14.5183 8.25083 14.5367 8.21395C14.6893 7.88692 14.8092 7.55445 14.6948 7.18927C14.5422 6.70418 13.9917 6.55157 13.621 6.8895C13.5389 6.96456 13.4558 7.03962 13.3713 7.11598L13.3711 7.11617ZM14.0607 18.7823V22.0743L14.0117 22.1234C13.5429 21.0823 12.6763 20.7226 11.6625 20.6463C11.6117 20.8226 11.5641 20.9971 11.5171 21.1696C11.4027 21.589 11.2915 21.9965 11.1448 22.3904C10.9976 22.7829 10.785 23.1698 10.5289 23.5023C10.0438 24.1237 9.17171 24.3798 8.4686 24.1346C8.3168 24.0801 8.17334 23.995 8.00844 23.8972L8.0084 23.8972L8.00831 23.8972C7.94234 23.858 7.87294 23.8169 7.7982 23.7748C9.0845 22.9355 10.1255 21.9871 10.4907 20.4773L10.3889 20.4341L10.3888 20.434C10.2867 20.3906 10.1901 20.3495 10.0874 20.3084C10.0073 20.4134 9.92946 20.5185 9.85209 20.623L9.85173 20.6234L9.85165 20.6235C9.69233 20.8387 9.5348 21.0514 9.36247 21.2568C8.77928 21.9435 8.13068 22.5485 7.21501 22.7611C6.44105 22.9409 5.73249 22.8319 5.18745 22.1833C5.1493 22.1343 5.11115 22.0798 5.07844 22.0253C5.07046 22.0093 5.06833 21.9904 5.06561 21.9665C5.06462 21.9577 5.06355 21.9483 5.06209 21.9381C6.65361 21.6165 8.08162 21.0333 9.0845 19.6434C9.06398 19.6209 9.045 19.599 9.02669 19.578L9.02668 19.578C8.99638 19.5432 8.96792 19.5105 8.93734 19.4799C8.90925 19.4518 8.87936 19.4237 8.85384 19.3997L8.8538 19.3997C8.83477 19.3818 8.81817 19.3662 8.80653 19.3546C8.60836 19.4633 8.413 19.5743 8.21847 19.6848L8.21844 19.6848L8.21836 19.6849L8.2182 19.685C7.80825 19.9179 7.40196 20.1487 6.98064 20.352C6.17943 20.739 5.34006 21.0006 4.43529 20.9134C4.01016 20.8698 3.61228 20.7608 3.27436 20.4937C2.87102 20.183 2.69661 19.7688 2.69661 19.2346C4.5443 19.2619 6.33749 19.1202 7.99442 18.2372L7.99429 18.2368C7.92615 18.027 7.89345 17.9262 7.82516 17.8862C7.76216 17.8492 7.66887 17.8639 7.48952 17.8921L7.48949 17.8921L7.48946 17.8921L7.48943 17.8922L7.44392 17.8993L7.20567 17.9363C6.26508 18.0825 5.32021 18.2294 4.37534 18.3299C3.61228 18.4116 2.86557 18.3081 2.20607 17.8666C1.49752 17.3924 1.1814 16.7111 1.19775 15.8717C1.19775 15.8172 1.2032 15.7627 1.2141 15.7082C1.21701 15.6966 1.22461 15.6849 1.23439 15.6699C1.24288 15.6568 1.25302 15.6413 1.26315 15.621C3.2144 16.4985 5.24741 16.8419 7.37852 16.5748C7.37852 16.1279 7.37852 16.1279 6.98609 16.0734C5.68889 15.9044 4.40259 15.6973 3.1599 15.2558C2.06981 14.8798 1.2686 14.2257 0.990631 13.0539C0.84347 12.4434 0.903424 11.8493 1.2141 11.2389C2.88193 12.9994 4.83863 14.2312 7.19866 14.7762C7.36217 14.3565 7.32946 14.3075 6.99699 14.0895C6.77627 13.9423 6.55472 13.7963 6.33316 13.6502C5.56988 13.1471 4.80635 12.6437 4.07557 12.0946C3.25255 11.4787 2.65846 10.6611 2.45134 9.62011C2.26058 8.64994 2.40774 7.76152 3.08359 6.99846C3.12719 6.94941 3.1708 6.9058 3.21985 6.8622C3.23129 6.85362 3.24273 6.84654 3.25811 6.83703L3.25811 6.83702C3.27204 6.8284 3.2892 6.81779 3.31251 6.80225C3.32886 6.82587 3.34582 6.84949 3.36278 6.87311L3.36278 6.87311C3.39669 6.92034 3.4306 6.96758 3.45967 7.01481C4.77322 9.06962 6.22303 11.0209 7.92901 12.7705C8.77383 13.6371 9.67859 14.4383 10.7087 15.0814C10.9104 15.2068 10.9213 15.3212 10.7578 15.4848C10.1855 16.068 9.99472 16.7602 10.2563 17.5341C10.5289 18.3353 11.1393 18.7823 11.9514 18.9458C12.5673 19.0711 13.1832 19.0112 13.7828 18.8477C13.8287 18.8385 13.8729 18.8276 13.924 18.815C13.964 18.8051 14.0082 18.7942 14.0607 18.7823ZM8.07812 28.2062C7.36957 27.5412 6.64466 26.8545 5.91976 26.1677C5.79091 26.047 5.66283 25.9248 5.53466 25.8025L5.53444 25.8023L5.53415 25.8021C5.32091 25.5986 5.10739 25.3949 4.88963 25.1975C4.81877 25.1321 4.67706 25.0885 4.59531 25.1158C4.20833 25.2411 4.04482 25.2139 3.77229 24.925C2.95473 25.1812 2.26253 24.8324 2.03906 24.0202H2.70401C2.67877 23.9555 2.65352 23.8936 2.62906 23.8336C2.56905 23.6863 2.51382 23.5508 2.4751 23.4152C2.28433 22.7557 2.61681 22.3688 3.29266 22.4669C3.44458 22.4886 3.59411 22.5343 3.74919 22.5817C3.82779 22.6057 3.90782 22.6302 3.99031 22.6522C3.97941 22.4396 3.96851 22.2325 3.95761 22.0254C4.74247 22.1071 5.2003 22.8266 4.99864 23.6496C5.26571 23.8295 5.37472 24.0802 5.26026 24.4127C5.24391 24.4563 5.29841 24.5435 5.34201 24.5871C5.56156 24.7934 5.7811 24.9999 6.00068 25.2065C6.86595 26.0205 7.73193 26.8351 8.60136 27.6393C8.66677 27.6993 8.79213 27.7265 8.88479 27.7102C9.29902 27.6393 9.6751 27.7102 10.0185 27.9663C10.1002 28.0263 10.2092 28.0754 10.3128 28.0754C11.0377 28.1026 11.7408 27.9827 12.4221 27.7374C12.7328 27.6284 12.7437 27.5685 12.5638 27.2959C12.1605 26.6855 11.8444 26.0369 11.7681 25.2956C11.6318 24.0202 12.7873 22.9356 14.0845 23.1536C14.0845 23.327 14.0871 23.5009 14.0898 23.675V23.675V23.675V23.6751V23.6751V23.6752V23.6752V23.6752V23.6753V23.6753V23.6754V23.6754V23.6754V23.6755C14.0957 24.0595 14.1015 24.4445 14.079 24.8269C14.03 25.6663 14.6731 26.1078 15.349 26.0969C15.4716 26.0941 15.5941 26.0955 15.7167 26.0969H15.7169C15.8395 26.0982 15.9622 26.0996 16.0848 26.0969C16.9023 26.0641 17.273 26.1241 18.0197 26.9635C18.0615 26.9217 18.1026 26.8793 18.1438 26.8369L18.1439 26.8369C18.2262 26.7521 18.3086 26.6673 18.3958 26.5874C18.75 26.2604 19.1588 26.075 19.6548 26.0969C19.8674 26.1067 20.0799 26.1047 20.2925 26.1027C20.4342 26.1014 20.5759 26.1001 20.7176 26.1023C21.4044 26.1078 22.0148 25.6499 21.9712 24.8487C21.9487 24.4624 21.9546 24.0761 21.9605 23.6915L21.9605 23.6912C21.9631 23.517 21.9658 23.3432 21.9658 23.17C23.2085 22.8702 24.4348 24.042 24.2768 25.3392C24.1896 26.0696 23.8734 26.7073 23.4756 27.3123C23.3066 27.5685 23.312 27.6284 23.6118 27.7374C24.2114 27.9609 24.8327 28.0863 25.4759 28.0699C25.5522 28.0699 25.6448 27.9772 25.6993 27.9009C25.8138 27.7565 25.9228 27.6093 26.0318 27.4622C26.1408 27.315 26.2498 27.1679 26.3643 27.0234C26.4624 26.8981 26.5823 26.909 26.7131 27.018C26.9619 27.2261 27.2182 27.4229 27.4883 27.6303L27.4883 27.6303L27.656 27.7592C27.7376 27.6962 27.82 27.6333 27.9025 27.5701C28.1345 27.3927 28.3684 27.2137 28.5935 27.0289C28.7298 26.9144 28.8279 26.9144 28.9696 27.0234C29.5201 27.4649 29.8035 28.0263 29.7163 28.7403C29.6182 29.5088 29.1549 30.0103 28.4572 30.2882C27.5525 30.6425 26.615 30.3591 25.9664 29.6396C25.7266 29.3726 25.3941 29.1654 25.0616 29.0128C24.2822 28.6476 23.4428 28.4841 22.5817 28.4569C22.1565 28.446 22.102 28.3697 22.222 27.9663C22.3582 27.5031 22.3473 27.0561 21.9549 26.7127C21.5679 26.3694 21.121 26.3803 20.6795 26.5928C20.4615 26.6964 20.2544 26.8381 20.0745 27.0071C19.5894 27.4649 19.2896 28.0427 19.0553 28.6803C19.1788 28.7209 19.301 28.7596 19.422 28.7979C19.6588 28.8728 19.8908 28.9462 20.1181 29.0292C21.2082 29.4325 22.2383 29.9448 23.0722 30.7733C23.312 31.0131 23.5028 31.3074 23.6881 31.5963C23.8734 31.8852 23.8189 32.1904 23.6336 32.4684C23.3774 32.8445 23.0286 33.0788 22.6416 33.1551C22.5608 32.9884 22.4862 32.8222 22.4127 32.6585C22.2484 32.2922 22.0895 31.9383 21.8786 31.6181C21.1809 30.5716 20.2271 29.8195 19.0389 29.378C18.8699 29.3126 18.7555 29.318 18.7446 29.5361C18.8449 29.6024 18.9469 29.6671 19.0489 29.7319L19.049 29.732C19.2739 29.8748 19.4994 30.018 19.7093 30.1792C20.516 30.806 21.121 31.5854 21.4371 32.5719C21.6333 33.1715 21.5134 33.5694 20.9956 33.9509C20.8466 34.0617 20.6789 34.1484 20.4925 34.2447L20.4924 34.2447L20.4924 34.2448C20.4128 34.2859 20.3298 34.3288 20.2435 34.376C20.0908 32.7627 19.6439 31.3456 18.6083 30.1683L18.5815 30.173L18.5623 30.1764L18.562 30.1765L18.5376 30.1809L18.5157 30.1847C18.5225 30.2465 18.5262 30.3088 18.5298 30.371V30.371C18.5376 30.5063 18.5455 30.6409 18.5865 30.7679C18.8918 31.7326 19.1207 32.7028 19.2515 33.7111C19.3441 34.4414 19.0117 34.8666 18.4557 35.2372C18.1232 35.4552 17.8616 35.4334 17.5509 35.2154C17.0168 34.8502 16.7061 34.4305 16.7933 33.722C16.9187 32.6864 17.1694 31.689 17.4692 30.7025C17.5182 30.5389 17.5073 30.3591 17.4801 30.1792C16.4009 31.3402 15.9485 32.7518 15.8068 34.2779C15.0656 34.2943 14.357 33.4277 14.5532 32.7409C14.9075 31.5037 15.6869 30.588 16.7443 29.8903C16.8618 29.8132 16.9842 29.7436 17.1082 29.673L17.1084 29.6729L17.1084 29.6729L17.1085 29.6729L17.1085 29.6728L17.1085 29.6728L17.1085 29.6728L17.1085 29.6728L17.1086 29.6728C17.1686 29.6386 17.229 29.6043 17.2893 29.5688C17.2839 29.3671 17.2076 29.3017 17.0059 29.3835C15.3163 30.0757 14.0681 31.1875 13.5285 32.9916C13.5122 33.0407 13.4958 33.0952 13.4849 33.1388C12.9453 33.1224 12.3294 32.6101 12.2531 32.1087C12.2313 31.956 12.2695 31.7816 12.3294 31.6399C12.5311 31.1712 12.8745 30.8115 13.2669 30.4899C14.2752 29.6723 15.4416 29.1491 16.6789 28.7894C16.7715 28.7621 16.8642 28.7349 16.9841 28.7076C16.6734 27.9118 16.3137 27.1815 15.5779 26.7346C15.3381 26.5928 15.0383 26.4893 14.7603 26.4784C14.0572 26.4566 13.6212 27.0725 13.7684 27.8137C13.7798 27.8708 13.7965 27.9252 13.8129 27.9787C13.8201 28.002 13.8272 28.025 13.8338 28.0481C13.9264 28.3479 13.8501 28.4296 13.5449 28.4732L13.3616 28.5C12.7515 28.5887 12.1386 28.6779 11.5391 28.8166C11.269 28.8813 11.0121 29.0018 10.7352 29.1316C10.6154 29.1878 10.4918 29.2457 10.3618 29.3017C10.4504 29.3842 10.5344 29.4622 10.6151 29.5371L10.6195 29.5412L10.6203 29.542L10.6213 29.5429L10.6216 29.5432L10.6217 29.5433C10.8314 29.738 11.019 29.9122 11.2067 30.092C11.4465 30.3209 11.4792 30.5008 11.3157 30.6752C11.1522 30.8551 10.9123 30.8496 10.6889 30.6479C10.4654 30.4517 10.2419 30.2446 10.0294 30.0321C9.91492 29.9121 9.81681 29.8958 9.6533 29.9557C8.77578 30.2882 7.86556 29.6723 7.92551 28.8003C7.93652 28.6608 7.97718 28.5337 8.01921 28.4023C8.0396 28.3386 8.06032 28.2738 8.07812 28.2062ZM33.3173 19.2346C31.4969 19.2619 29.6983 19.1202 28.0468 18.2372C28.1237 18.0178 28.1604 17.9131 28.2324 17.8748C28.2982 17.8399 28.3934 17.8603 28.5755 17.8993C29.7037 18.1446 30.8428 18.3353 31.9983 18.3517C32.9249 18.3626 33.7697 18.1391 34.3802 17.3761C34.7835 16.8692 34.9089 16.286 34.8217 15.6101C32.8323 16.5094 30.7992 16.8583 28.6681 16.5857C28.6681 16.3567 28.6681 16.2464 28.723 16.1858C28.7738 16.1296 28.8718 16.116 29.0606 16.0898C29.2024 16.0689 29.3456 16.0495 29.4892 16.0299L29.4894 16.0299C29.7595 15.9931 30.031 15.9561 30.2978 15.9099C31.3661 15.73 32.418 15.5066 33.41 15.0487C34.2821 14.6454 34.8326 13.9695 35.0506 13.0375C35.1977 12.4325 35.1323 11.8439 34.8217 11.2498C33.1429 13.0266 31.1808 14.253 28.8207 14.7926C28.6899 14.3129 28.6899 14.3075 29.0551 14.0895C29.1096 14.0568 29.1641 14.0254 29.2186 13.9941C29.2731 13.9627 29.3276 13.9314 29.3821 13.8987C30.5104 13.2174 31.6332 12.5252 32.5434 11.555C33.3773 10.672 33.7915 9.62556 33.6062 8.39377C33.5081 7.76697 33.2301 7.23283 32.7232 6.80225L32.7099 6.81924C32.6567 6.88685 32.6168 6.9376 32.5815 6.99301C32.3273 7.35272 32.0769 7.71573 31.8266 8.07872L31.8265 8.07878L31.8265 8.0788C31.2878 8.85979 30.7492 9.64072 30.1724 10.3886C28.7771 12.1927 27.2401 13.8551 25.2998 15.0978C25.0872 15.234 25.1308 15.3485 25.278 15.5066C26.2754 16.5639 25.9865 18.1228 24.673 18.755C24.0026 19.0766 23.2995 19.0493 22.5909 18.9294C22.4477 18.9062 22.3072 18.872 22.1617 18.8365L22.1616 18.8365C22.1023 18.822 22.0421 18.8074 21.9805 18.7932V22.0852C22.4928 21.0823 23.354 20.7281 24.4114 20.6518C24.4309 20.7365 24.4466 20.8135 24.4618 20.8885C24.4721 20.9389 24.4822 20.9884 24.4931 21.0387C24.6457 21.78 24.8474 22.5049 25.2398 23.1589C25.5559 23.6822 25.9974 24.0474 26.597 24.1727C27.1802 24.2926 27.7307 24.2327 28.183 23.7421C26.9349 22.9355 25.9102 21.9871 25.545 20.4773C25.6172 20.4475 25.6836 20.4211 25.748 20.3954C25.8247 20.3649 25.8986 20.3355 25.9756 20.3029L26.15 20.5645C26.5534 21.1641 27.0167 21.7037 27.5889 22.1506C28.1776 22.6139 28.8425 22.8864 29.6056 22.8265C30.2106 22.7774 30.6848 22.5049 30.9955 21.949C29.3767 21.6165 27.9323 21.0333 26.9294 19.6107C26.9711 19.576 27.0087 19.5453 27.0442 19.5164C27.0923 19.4771 27.1362 19.4413 27.1802 19.4036C27.2034 19.3803 27.2267 19.361 27.2534 19.3389L27.2674 19.3273C27.3327 19.3708 27.3925 19.4089 27.4524 19.447L27.4527 19.4472C28.3684 20.0686 29.3331 20.5809 30.4232 20.8316C31.0827 20.9842 31.7367 20.9842 32.3744 20.7226C33.0121 20.4555 33.3936 19.8669 33.3173 19.2346ZM20.4337 11.1029C19.7906 10.6832 19.2564 10.2035 19.0929 9.37507C19.1817 9.39461 19.2665 9.41647 19.3485 9.43763L19.3486 9.43764C19.5182 9.48139 19.6762 9.52211 19.8342 9.53313C20.3976 9.56048 20.9609 9.58097 21.525 9.60148L21.5252 9.60149C22.0852 9.62185 22.6459 9.64224 23.208 9.66939C23.6896 9.69324 24.1713 9.7463 24.653 9.79935L24.8594 9.82201C25.0175 9.83836 25.1756 9.90376 25.3227 9.96917C26.1185 10.3071 26.3256 11.2773 25.737 11.9313C25.1974 11.1301 24.4125 11.2173 23.6604 11.4353C22.265 11.8441 21.4202 12.8579 20.9133 14.1769C20.6572 14.8309 20.5863 15.5122 20.7498 16.2099C20.8752 16.7386 21.1586 17.1692 21.6273 17.567H14.5255C14.5328 17.5524 14.5382 17.5384 14.5433 17.5254C14.5534 17.4997 14.5618 17.478 14.58 17.4635C15.5174 16.586 15.5992 15.5122 15.234 14.3786C14.7816 12.9778 13.9205 11.9095 12.4706 11.4517C12.0946 11.3318 11.6694 11.3372 11.2661 11.3427C10.8682 11.3481 10.563 11.5607 10.3777 11.9259C9.78904 11.4353 9.91985 10.3507 10.6502 10.0291C11.0753 9.84381 11.555 9.7566 12.0183 9.713C12.5541 9.66428 13.0936 9.66235 13.6338 9.66041H13.6338H13.6339H13.634H13.6341H13.6342H13.6343H13.6343H13.6344H13.6345H13.6346H13.6347C13.759 9.65996 13.8833 9.65952 14.0077 9.65849L14.1901 9.65765H14.1901C15.1165 9.6538 16.0486 9.64992 16.9999 9.35327C16.8364 10.1981 16.2968 10.6832 15.6428 11.1083C17.1308 12.5636 17.7685 14.4167 18.0464 16.4715C18.5152 13.7627 18.7822 13.1577 20.4337 11.1029ZM15.6319 24.0201C15.6544 24.0737 15.6527 24.1382 15.6511 24.2009C15.6477 24.3358 15.6444 24.4618 15.8826 24.4507C15.8935 23.813 16.0843 23.2352 16.3786 22.6847C16.4211 22.604 16.4073 22.4936 16.394 22.3868C16.3902 22.3566 16.3865 22.3266 16.384 22.2977C16.3731 22.1615 16.3404 22.0307 16.2696 21.8835C16.2561 21.9308 16.2452 21.9792 16.2343 22.0275C16.2101 22.1349 16.186 22.2419 16.1333 22.3359C16.057 22.4667 15.9208 22.5594 15.7682 22.6466C15.8499 22.3631 15.7845 22.1451 15.6373 21.9326C15.5011 21.7363 15.4193 21.5183 15.5937 21.3058C15.7682 21.0932 16.0407 21.0932 16.2151 21.2186C16.4802 21.4154 16.7097 21.3428 16.9496 21.267C17.0352 21.24 17.1222 21.2125 17.2125 21.1968C17.1853 21.0932 17.1635 21.0114 17.158 20.9951C17.0382 20.9534 16.9207 20.9173 16.8062 20.8821L16.8061 20.8821C16.5612 20.8068 16.3304 20.7359 16.1224 20.6245C15.5992 20.341 15.5992 19.9214 16.1006 19.6052C16.2305 19.5222 16.3724 19.4607 16.523 19.3954L16.5232 19.3954L16.5234 19.3953C16.6002 19.362 16.6792 19.3277 16.7601 19.2891C16.6348 18.9348 16.504 18.5697 16.3731 18.2099C16.3688 18.1979 16.3642 18.1859 16.3596 18.174C16.3413 18.126 16.323 18.078 16.3186 18.0301C16.3186 17.9957 16.339 17.9579 16.3583 17.922L16.3668 17.9061L16.3731 17.8938C16.3904 17.9034 16.409 17.9116 16.4277 17.9199C16.4623 17.9352 16.4975 17.9508 16.5258 17.9756C16.5502 18 16.5615 18.0463 16.5714 18.0871L16.5748 18.1009C17.0136 19.3 17.4537 20.5005 17.8938 21.7009L17.8967 21.7089L17.8989 21.7147C18.3373 22.9105 18.7757 24.1064 19.2128 25.3009C19.2255 25.3357 19.2344 25.3704 19.245 25.4115L19.2451 25.4116C19.2528 25.4414 19.2613 25.4746 19.2728 25.5135C18.368 25.8024 17.4905 25.8678 16.6402 25.3827C16.4713 25.2846 16.3241 25.2192 16.1224 25.2301C15.8281 25.2464 15.5719 25.1265 15.4357 24.8322C15.3267 24.576 15.403 24.2435 15.6319 24.0201ZM16.6148 24.0777L16.6159 24.0774L16.6165 24.0773C16.8286 24.0331 17.0268 23.9918 17.2125 23.9547C17.158 23.6222 17.1035 23.2897 17.049 22.9409L16.9836 23.0081C16.6609 23.3394 16.3373 23.6717 16.2096 24.1618C16.3501 24.1329 16.4851 24.1047 16.6148 24.0777ZM17.5094 19.2128L17.5094 19.2128L17.5094 19.2128L17.5093 19.2129L17.5092 19.2129L17.509 19.2129L17.5068 19.2131C17.4259 19.2218 17.3441 19.2305 17.2578 19.2404C17.4235 19.6938 17.5889 20.1459 17.754 20.5972L17.7564 20.604L17.7632 20.6226L17.7645 20.626L17.7648 20.6269L17.7657 20.6292L17.766 20.63C18.3411 22.2021 18.913 23.7653 19.4816 25.3448C19.5204 25.3236 19.557 25.3047 19.5916 25.2868C19.6639 25.2495 19.7278 25.2164 19.7868 25.1759C20.1574 24.9306 20.4845 24.6417 20.5717 24.1784C20.648 23.7915 20.4518 23.6225 20.0757 23.7533C19.9552 23.7922 19.8457 23.8505 19.7296 23.9123L19.7296 23.9124L19.7295 23.9124L19.7294 23.9124C19.6828 23.9373 19.6351 23.9627 19.5851 23.9877C19.5088 23.5625 19.4325 23.1429 19.3562 22.7232C19.2581 22.2108 19.4107 22.0528 19.9394 22.1345C20.2065 22.1781 20.3864 22.3198 20.4409 22.5978C20.4503 22.6546 20.4639 22.7114 20.4852 22.8004L20.4954 22.8431C20.7137 22.6871 20.6792 22.5064 20.6471 22.3387L20.6425 22.3144C20.5335 21.7094 20.0648 21.6821 19.5688 21.6876C19.5434 21.5752 19.5162 21.4659 19.4894 21.3581L19.4894 21.3578L19.4893 21.3576C19.4356 21.1415 19.3835 20.9319 19.3508 20.7174C19.3235 20.5703 19.3017 20.3631 19.5906 20.3304C19.5906 20.385 19.5896 20.4373 19.5887 20.4878V20.4879V20.4879V20.4879V20.488C19.5865 20.609 19.5845 20.7204 19.596 20.8319C19.6015 20.9027 19.6451 21.0063 19.6941 21.0281C19.7487 21.0499 19.874 21.0063 19.9013 20.9572C19.9222 20.9232 19.9439 20.889 19.9656 20.8547C20.0798 20.6744 20.1971 20.4891 20.2337 20.2923C20.3264 19.829 20.0321 19.5238 19.5633 19.5129C19.1873 19.502 18.8548 19.6164 18.5605 19.8563C18.5361 19.8215 18.5135 19.7873 18.4914 19.7541L18.4914 19.7541L18.4914 19.754L18.4914 19.754L18.4914 19.754L18.4914 19.754L18.4914 19.754L18.4914 19.754L18.4914 19.7539L18.4913 19.7539C18.4442 19.6828 18.3998 19.6159 18.3479 19.5565C18.2171 19.4093 18.2007 19.3003 18.3533 19.1423C18.4351 19.055 18.4733 18.8752 18.4406 18.7607C18.4188 18.6844 18.2171 18.5863 18.1408 18.619C18.01 18.6735 17.8955 18.8043 17.8083 18.9242C17.7822 18.9615 17.7893 19.0268 17.7963 19.0923C17.7996 19.1226 17.8029 19.1528 17.8029 19.1804C17.7023 19.1922 17.6066 19.2025 17.5096 19.2128L17.5095 19.2128L17.5094 19.2128ZM29.136 9.54406C29.064 9.51278 28.9952 9.4815 28.9284 9.45113C28.7624 9.37564 28.6086 9.30571 28.4492 9.25519C28.1004 9.14618 27.9369 9.28244 27.9369 9.65307V9.92014C27.5935 9.82203 27.37 9.5059 27.4736 9.17888C27.5542 8.9318 27.7141 8.71119 27.87 8.49618L27.8769 8.48668C27.9505 8.38312 28.0363 8.2891 28.1222 8.19508C28.208 8.10106 28.2939 8.00704 28.3675 7.90348C28.6563 7.48925 28.5582 6.99326 28.1494 6.70984C27.7516 6.43732 27.3046 6.36646 26.7977 6.44277C26.9394 7.12407 26.8577 7.73997 26.3399 8.23596C25.9148 8.63929 25.3915 8.781 24.8192 8.8246C24.7429 8.65019 24.7756 8.57388 24.9718 8.55753C25.5496 8.50848 25.9965 8.23596 26.2145 7.68547C26.4435 7.11317 26.2799 6.59538 25.8821 6.1539C25.7731 6.03399 25.7404 5.93588 25.8167 5.79417C25.8396 5.75493 25.8566 5.71569 25.8736 5.67645C25.8849 5.65028 25.8962 5.62412 25.9093 5.59796C26.16 5.11287 26.4598 5.04201 26.8849 5.39629C27.103 5.57615 27.3101 5.76692 27.4899 5.98494C27.866 6.44822 28.3457 6.66079 28.9289 6.69894C29.1087 6.70984 29.2886 6.75889 29.4575 6.81885C29.8009 6.93876 29.899 7.22763 29.7137 7.5383C29.6538 7.63641 29.5774 7.73452 29.4902 7.81083C28.9997 8.25231 28.9016 8.78645 29.0869 9.3969C29.1069 9.43679 29.1177 9.47668 29.1319 9.52909L29.1319 9.52912L29.136 9.54406ZM9.21097 6.48075C9.10196 7.95781 9.84322 8.82443 11.2004 8.81353C11.2113 8.80477 11.2214 8.79513 11.2316 8.78532C11.2469 8.77071 11.2626 8.75572 11.2821 8.74267C11.2623 8.72463 11.2424 8.70062 11.2224 8.67637C11.1819 8.62735 11.1406 8.57736 11.0968 8.57371C10.5082 8.51376 10.0503 8.25759 9.82687 7.69619C9.58705 7.09665 9.77236 6.57341 10.1866 6.11557C10.2302 6.07197 10.2847 6.00111 10.2738 5.96296L10.2626 5.92866C10.1738 5.65565 10.0821 5.37384 9.79961 5.23261C9.53799 5.09635 9.31998 5.25441 9.14011 5.41792C8.86759 5.65774 8.61687 5.91936 8.36615 6.18098C8.10453 6.45895 7.79386 6.61156 7.41233 6.65516C7.13981 6.68787 6.86729 6.73692 6.61112 6.81323C6.22959 6.93314 6.13148 7.25471 6.3604 7.58719C6.44761 7.71254 6.55117 7.827 6.66017 7.93601C6.9872 8.26304 7.09621 8.65547 7.01445 9.10785C6.99925 9.18994 6.98066 9.27032 6.96246 9.34901L6.96245 9.34903C6.94803 9.41141 6.93384 9.47273 6.92179 9.53298C7.00184 9.50097 7.08014 9.46721 7.15765 9.43379C7.31764 9.36481 7.47425 9.29729 7.6358 9.24956C7.92467 9.16236 8.08818 9.29317 8.09908 9.59839C8.10269 9.67049 8.10153 9.74498 8.10032 9.82186C8.09971 9.8612 8.09908 9.90117 8.09908 9.94176C8.54057 9.7401 8.69318 9.38582 8.50241 8.98249C8.41667 8.811 8.28877 8.65532 8.16535 8.50509L8.15904 8.4974C8.09112 8.41138 8.01756 8.32912 7.94422 8.2471L7.94421 8.24708L7.94419 8.24706L7.94418 8.24705L7.94416 8.24703L7.94415 8.24701L7.94414 8.247C7.84093 8.13158 7.73816 8.01665 7.65215 7.89241C7.44503 7.59809 7.43958 7.28196 7.6358 6.97129C7.90832 6.54071 8.72588 6.28454 9.21097 6.48075ZM28.4043 26.0587C28.1427 25.7862 27.9029 25.5355 27.6467 25.2629C27.5227 25.3949 27.4012 25.523 27.2804 25.6504L27.2798 25.651C27.1513 25.7865 27.0236 25.9212 26.8945 26.0587C27.0114 26.1661 27.1221 26.2682 27.231 26.3687C27.3709 26.4979 27.5081 26.6246 27.6521 26.7564C27.7732 26.6432 27.8929 26.5326 28.0133 26.4215L28.0136 26.4212L28.0148 26.4201L28.015 26.4199L28.0166 26.4185C28.1444 26.3004 28.2729 26.1817 28.4043 26.0587ZM12.4258 5.30352L12.4899 5.22596C12.6717 5.00593 12.8392 4.8032 13.0199 4.57861C13.1234 4.70119 13.2215 4.81969 13.3195 4.93818L13.3196 4.93829L13.3196 4.93832C13.4177 5.05687 13.5159 5.17543 13.6194 5.29807C13.4349 5.51849 13.26 5.72928 13.063 5.9667L13.0253 6.01207L12.9081 5.87252C12.7485 5.68234 12.5924 5.49646 12.4258 5.30352ZM23.6038 5.30344C23.3967 5.05272 23.2114 4.82925 23.0043 4.58398L22.8983 4.71208L22.8983 4.71214L22.898 4.71246C22.7309 4.91447 22.5724 5.10609 22.4102 5.30889C22.4963 5.41138 22.5795 5.51088 22.6627 5.61037L22.6635 5.61128L22.6636 5.61142L22.6637 5.61158C22.7749 5.7445 22.886 5.87742 23.0043 6.01744C23.1742 5.81697 23.3303 5.63043 23.4863 5.4439L23.6038 5.30344ZM11.7305 12.7159C11.7523 12.2799 11.9485 11.9965 12.2374 11.7621C12.2755 11.7294 12.3627 11.7239 12.4118 11.7457C12.7551 11.9147 13.0931 12.0946 13.4146 12.318C12.8151 12.2744 12.2537 12.3126 11.7305 12.7159ZM22.6055 12.389C23.265 12.2528 23.8155 12.3345 24.3387 12.7106C24.3005 12.3018 24.1261 12.0075 23.8427 11.7786C23.8046 11.7459 23.7228 11.7241 23.6737 11.7404C23.2977 11.8712 22.9434 12.0402 22.6055 12.389Z" fill="#1E65F4"/>
</svg>
