<svg width="243" height="180" viewBox="0 0 243 180" fill="none" xmlns="http://www.w3.org/2000/svg">
<g opacity="0.03" clip-path="url(#clip0_8301_1546)">
<path d="M158.458 65.9736H242.998L177.048 179.984L160.295 151.102L143.617 180L84.542 78.0264H0L65.9502 -35.9844L82.7031 -7.10156L99.3828 -36L158.458 65.9736ZM174.226 127.016L167.256 139.054L177.034 155.912L222.087 78.0264H202.592L174.226 127.016ZM143.598 155.896L153.312 139.063L153.31 139.059L153.311 139.055L117.975 78.0264H98.4863L143.598 155.896ZM160.282 127.015L188.648 78.0264H131.917L160.282 127.015ZM54.3496 65.9736H111.009L82.709 16.9932L54.3496 65.9736ZM89.6855 4.9375L89.6885 4.94141L89.6855 4.94531L124.945 65.9736H144.514L99.4023 -11.8965L89.6855 4.9375ZM20.9111 65.9736H40.4062L75.7422 4.94531L65.9639 -11.9121L20.9111 65.9736Z" fill="#191B36"/>
</g>
<path d="M17.8603 84V63.1435H20.8696L28.6759 76.6108H28.8249L36.661 63.1435H39.6107V84H37.5251V65.7952H37.3761L29.7486 78.8455H27.6927L20.095 65.7952H19.946V84H17.8603ZM45.2986 84V63.1435H59.1533V65.1695H47.3842V81.9739H59.3022V84H45.2986ZM46.252 74.4358V72.4097H57.5145V74.4358H46.252ZM63.6004 84V63.1435H70.1851C72.231 63.1435 74.0585 63.5904 75.6674 64.4842C77.2962 65.3582 78.5575 66.5898 79.4514 68.1788C80.3651 69.7679 80.8219 71.5655 80.8219 73.5717C80.8219 75.5779 80.3651 77.3756 79.4514 78.9646C78.5575 80.5537 77.2962 81.7952 75.6674 82.689C74.0585 83.563 72.231 84 70.1851 84H63.6004ZM70.1851 81.9739C71.8536 81.9739 73.3235 81.6263 74.5948 80.9311C75.8859 80.2359 76.889 79.2527 77.6041 77.9814C78.3192 76.6903 78.6767 75.2204 78.6767 73.5717C78.6767 71.9231 78.3192 70.4631 77.6041 69.1919C76.889 67.9007 75.8859 66.9076 74.5948 66.2123C73.3235 65.5171 71.8536 65.1695 70.1851 65.1695H65.6861V81.9739H70.1851ZM85.2775 84V63.1435H87.2737V84H85.2775ZM90.9329 84L98.9776 63.1435H101.6L109.644 84H107.499L100.348 65.2887H100.199L93.0484 84H90.9329ZM94.27 78.0708L94.8361 76.1341H105.711L106.307 78.0708H94.27Z" fill="#191B36"/>
<path d="M116.899 84L111.685 63.1435H116.006L119.879 79.2328H120.028L124.05 63.1435H129.235L133.257 79.2328H133.406L137.249 63.1435H141.451L136.236 84H130.695L126.642 67.9107H126.493L122.441 84H116.899ZM153.887 84.3873C151.821 84.3873 149.944 83.9205 148.255 82.987C146.567 82.0335 145.236 80.7325 144.263 79.0838C143.309 77.4352 142.833 75.5978 142.833 73.5717C142.833 71.5457 143.309 69.7083 144.263 68.0596C145.236 66.411 146.567 65.1199 148.255 64.1863C149.944 63.2328 151.821 62.7561 153.887 62.7561C155.953 62.7561 157.83 63.2328 159.518 64.1863C161.206 65.1199 162.527 66.411 163.481 68.0596C164.454 69.7083 164.941 71.5457 164.941 73.5717C164.941 75.5978 164.454 77.4352 163.481 79.0838C162.527 80.7325 161.206 82.0335 159.518 82.987C157.83 83.9205 155.953 84.3873 153.887 84.3873ZM153.887 80.4544C155.198 80.4544 156.36 80.1664 157.373 79.5903C158.406 78.9944 159.2 78.18 159.756 77.1471C160.332 76.0944 160.62 74.9026 160.62 73.5717C160.62 72.2409 160.332 71.059 159.756 70.0261C159.2 68.9734 158.406 68.159 157.373 67.5829C156.36 66.987 155.198 66.6891 153.887 66.6891C152.596 66.6891 151.434 66.987 150.401 67.5829C149.368 68.159 148.563 68.9734 147.987 70.0261C147.431 71.059 147.153 72.2409 147.153 73.5717C147.153 74.9026 147.431 76.0944 147.987 77.1471C148.563 78.18 149.368 78.9944 150.401 79.5903C151.434 80.1664 152.596 80.4544 153.887 80.4544ZM168.609 84V63.1435H177.607C179.137 63.1435 180.497 63.4315 181.689 64.0075C182.881 64.5836 183.805 65.3979 184.46 66.4507C185.116 67.4836 185.443 68.6754 185.443 70.0261C185.443 71.3768 185.106 72.5686 184.43 73.6015C183.775 74.6344 182.831 75.4389 181.6 76.0149C180.388 76.591 178.988 76.879 177.399 76.879H170.337V73.1844H177.458C178.253 73.1844 178.928 73.0652 179.484 72.8269C180.041 72.5885 180.458 72.2409 180.736 71.784C181.034 71.3073 181.183 70.7213 181.183 70.0261C181.183 69.0131 180.865 68.2384 180.229 67.7021C179.594 67.1658 178.67 66.8976 177.458 66.8976H172.721V74.5252L172.781 74.7635V84H168.609ZM181.272 84L175.432 74.9721H179.902L186.01 84H181.272ZM203.176 84L195.757 73.3036L202.759 63.1435H207.437L199.72 74.1378L199.809 72.1714L208.062 84H203.176ZM189.53 84V63.1435H193.701V84H189.53ZM192.092 75.3892V71.4563H198.26V75.3892H192.092ZM218.086 84.3873C215.226 84.3873 213.011 83.8014 211.442 82.6294C209.873 81.4376 209.029 79.7095 208.909 77.4451H213.259C213.299 78.5177 213.716 79.3321 214.511 79.8883C215.305 80.4445 216.477 80.7225 218.027 80.7225C219.199 80.7225 220.132 80.514 220.827 80.0968C221.542 79.6797 221.9 79.0838 221.9 78.3091C221.9 77.7331 221.691 77.2564 221.274 76.879C220.857 76.4817 220.341 76.1738 219.725 75.9553C219.109 75.717 218.245 75.4587 217.133 75.1807C215.603 74.7834 214.342 74.3861 213.349 73.9889C212.356 73.5717 211.511 72.946 210.816 72.1118C210.121 71.2775 209.773 70.185 209.773 68.8343C209.773 67.6425 210.101 66.5898 210.757 65.676C211.412 64.7425 212.336 64.0274 213.528 63.5308C214.719 63.0143 216.11 62.7561 217.699 62.7561C220.202 62.7561 222.168 63.3024 223.598 64.3948C225.048 65.4873 225.853 67.0565 226.012 69.1025H221.662C221.602 68.1888 221.254 67.5134 220.619 67.0764C219.983 66.6394 219.04 66.4209 217.788 66.4209C216.636 66.4209 215.732 66.6295 215.077 67.0466C214.421 67.4439 214.094 68.0001 214.094 68.7151C214.094 69.2912 214.292 69.7778 214.69 70.1751C215.107 70.5525 215.623 70.8504 216.239 71.0689C216.875 71.2874 217.739 71.5357 218.831 71.8138C220.38 72.2111 221.642 72.6183 222.615 73.0354C223.608 73.4327 224.452 74.0484 225.148 74.8827C225.863 75.717 226.22 76.8194 226.22 78.19C226.22 79.4215 225.873 80.514 225.177 81.4674C224.502 82.401 223.549 83.126 222.317 83.6425C221.086 84.139 219.675 84.3873 218.086 84.3873Z" fill="#191B36"/>
<path d="M18.054 108V99.3204H19.4303V108H18.054ZM24.5791 108V100.684H21.7893V99.3204H28.7949V100.684H26.0051V108H24.5791ZM36.4103 108L34.0792 99.3204H35.592L37.4023 106.264H37.4643L39.349 99.3204H41.0725L42.9572 106.264H43.0192L44.8295 99.3204H46.2927L43.9616 108H42.1141L40.2169 101.056H40.1549L38.2578 108H36.4103ZM52.4972 108.149C51.654 108.149 50.8853 107.955 50.1909 107.566C49.5048 107.169 48.9634 106.628 48.5666 105.942C48.1698 105.256 47.9714 104.495 47.9714 103.66C47.9714 102.825 48.1698 102.065 48.5666 101.379C48.9634 100.693 49.5048 100.155 50.1909 99.7668C50.8853 99.37 51.654 99.1716 52.4972 99.1716C53.3404 99.1716 54.105 99.37 54.7911 99.7668C55.4855 100.155 56.031 100.693 56.4278 101.379C56.8246 102.065 57.023 102.825 57.023 103.66C57.023 104.495 56.8246 105.256 56.4278 105.942C56.031 106.628 55.4855 107.169 54.7911 107.566C54.105 107.955 53.3404 108.149 52.4972 108.149ZM52.4972 106.785C53.0758 106.785 53.5966 106.653 54.0595 106.388C54.5224 106.115 54.882 105.743 55.1383 105.272C55.4028 104.801 55.5351 104.264 55.5351 103.66C55.5351 103.057 55.4028 102.519 55.1383 102.048C54.882 101.577 54.5224 101.209 54.0595 100.945C53.5966 100.672 53.0758 100.536 52.4972 100.536C51.9186 100.536 51.3978 100.672 50.9349 100.945C50.472 101.209 50.1083 101.577 49.8437 102.048C49.5875 102.519 49.4594 103.057 49.4594 103.66C49.4594 104.264 49.5875 104.801 49.8437 105.272C50.1083 105.743 50.472 106.115 50.9349 106.388C51.3978 106.653 51.9186 106.785 52.4972 106.785ZM59.6307 108V99.3204H63.2018C63.8218 99.3204 64.3715 99.4403 64.8509 99.68C65.3386 99.9114 65.7147 100.238 65.9792 100.66C66.252 101.081 66.3884 101.565 66.3884 102.11C66.3884 102.656 66.252 103.139 65.9792 103.561C65.7147 103.983 65.3386 104.313 64.8509 104.553C64.3715 104.784 63.8218 104.9 63.2018 104.9H60.2135V103.536H63.2018C63.5655 103.536 63.8755 103.482 64.1317 103.375C64.388 103.268 64.5781 103.106 64.7021 102.891C64.8344 102.677 64.9005 102.416 64.9005 102.11C64.9005 101.647 64.7558 101.296 64.4665 101.056C64.1772 100.808 63.7556 100.684 63.2018 100.684H61.0567V104.032V104.156V108H59.6307ZM64.9129 108L62.3958 104.243H64.0077L66.5744 108H64.9129ZM74.8502 108L71.6511 103.549L74.6642 99.3204H76.3009L73.0894 103.759L73.1142 103.251L76.5613 108H74.8502ZM69.1836 108V99.3204H70.6096V108H69.1836ZM70.0392 104.28V102.916H72.6059V104.28H70.0392ZM81.6934 108.149C80.5361 108.149 79.6392 107.909 79.0027 107.43C78.3745 106.95 78.0397 106.252 77.9984 105.334H79.5235C79.54 105.83 79.7301 106.206 80.0939 106.462C80.4576 106.719 80.9907 106.847 81.6934 106.847C82.2059 106.847 82.6275 106.748 82.9581 106.549C83.2888 106.351 83.4541 106.07 83.4541 105.706C83.4541 105.417 83.359 105.181 83.1689 104.999C82.9871 104.817 82.7556 104.673 82.4745 104.565C82.2018 104.458 81.8174 104.338 81.3214 104.206C80.7014 104.04 80.1931 103.875 79.7963 103.71C79.3995 103.544 79.0606 103.296 78.7795 102.966C78.5067 102.627 78.3703 102.185 78.3703 101.639C78.3703 101.16 78.5026 100.734 78.7671 100.362C79.0316 99.9817 79.3995 99.6883 79.8707 99.4816C80.3501 99.2749 80.904 99.1716 81.5322 99.1716C82.5407 99.1716 83.3342 99.3948 83.9129 99.8412C84.4998 100.288 84.8222 100.92 84.88 101.738H83.3549C83.3218 101.308 83.1565 100.99 82.8589 100.784C82.5696 100.577 82.1398 100.474 81.5694 100.474C81.0486 100.474 80.6312 100.573 80.317 100.771C80.0112 100.97 79.8583 101.238 79.8583 101.577C79.8583 101.858 79.9492 102.09 80.1311 102.271C80.3212 102.453 80.5526 102.598 80.8254 102.705C81.1065 102.805 81.4867 102.92 81.9662 103.053C82.6027 103.218 83.1152 103.383 83.5037 103.549C83.9005 103.714 84.2394 103.966 84.5204 104.305C84.8015 104.644 84.942 105.09 84.942 105.644C84.942 106.14 84.8015 106.578 84.5204 106.958C84.2477 107.339 83.8633 107.632 83.3673 107.839C82.8796 108.045 82.3216 108.149 81.6934 108.149ZM94.9943 108.149C94.1511 108.149 93.3824 107.955 92.688 107.566C92.0019 107.169 91.4604 106.628 91.0637 105.942C90.6669 105.256 90.4685 104.495 90.4685 103.66C90.4685 102.825 90.6669 102.065 91.0637 101.379C91.4604 100.693 92.0019 100.155 92.688 99.7668C93.3824 99.37 94.1511 99.1716 94.9943 99.1716C95.8374 99.1716 96.6021 99.37 97.2882 99.7668C97.9825 100.155 98.5281 100.693 98.9249 101.379C99.3217 102.065 99.5201 102.825 99.5201 103.66C99.5201 104.495 99.3217 105.256 98.9249 105.942C98.5281 106.628 97.9825 107.169 97.2882 107.566C96.6021 107.955 95.8374 108.149 94.9943 108.149ZM94.9943 106.785C95.5729 106.785 96.0937 106.653 96.5566 106.388C97.0195 106.115 97.3791 105.743 97.6354 105.272C97.8999 104.801 98.0321 104.264 98.0321 103.66C98.0321 103.057 97.8999 102.519 97.6354 102.048C97.3791 101.577 97.0195 101.209 96.5566 100.945C96.0937 100.672 95.5729 100.536 94.9943 100.536C94.4156 100.536 93.8949 100.672 93.4319 100.945C92.969 101.209 92.6053 101.577 92.3408 102.048C92.0845 102.519 91.9564 103.057 91.9564 103.66C91.9564 104.264 92.0845 104.801 92.3408 105.272C92.6053 105.743 92.969 106.115 93.4319 106.388C93.8949 106.653 94.4156 106.785 94.9943 106.785ZM102.128 108V99.3204H103.938L108.104 106.14H108.166V99.3204H109.567V108H107.757L103.591 101.18H103.529V108H102.128ZM118.656 108V104.925L115.581 99.3204H117.106L119.351 103.474H119.413L121.657 99.3204H123.157L120.082 104.925V108H118.656ZM128.859 108.149C128.016 108.149 127.247 107.955 126.552 107.566C125.866 107.169 125.325 106.628 124.928 105.942C124.531 105.256 124.333 104.495 124.333 103.66C124.333 102.825 124.531 102.065 124.928 101.379C125.325 100.693 125.866 100.155 126.552 99.7668C127.247 99.37 128.016 99.1716 128.859 99.1716C129.702 99.1716 130.467 99.37 131.153 99.7668C131.847 100.155 132.393 100.693 132.789 101.379C133.186 102.065 133.385 102.825 133.385 103.66C133.385 104.495 133.186 105.256 132.789 105.942C132.393 106.628 131.847 107.169 131.153 107.566C130.467 107.955 129.702 108.149 128.859 108.149ZM128.859 106.785C129.437 106.785 129.958 106.653 130.421 106.388C130.884 106.115 131.244 105.743 131.5 105.272C131.764 104.801 131.897 104.264 131.897 103.66C131.897 103.057 131.764 102.519 131.5 102.048C131.244 101.577 130.884 101.209 130.421 100.945C129.958 100.672 129.437 100.536 128.859 100.536C128.28 100.536 127.759 100.672 127.296 100.945C126.833 101.209 126.47 101.577 126.205 102.048C125.949 102.519 125.821 103.057 125.821 103.66C125.821 104.264 125.949 104.801 126.205 105.272C126.47 105.743 126.833 106.115 127.296 106.388C127.759 106.653 128.28 106.785 128.859 106.785ZM139.318 108.149C138.599 108.149 137.975 108.004 137.446 107.715C136.917 107.417 136.512 106.996 136.231 106.45C135.95 105.896 135.809 105.243 135.809 104.491V99.3204H137.235V104.491C137.235 104.979 137.314 105.396 137.471 105.743C137.636 106.082 137.876 106.343 138.19 106.524C138.504 106.698 138.88 106.785 139.318 106.785C139.98 106.785 140.488 106.586 140.843 106.19C141.207 105.785 141.389 105.218 141.389 104.491V99.3204H142.815V104.491C142.815 105.243 142.674 105.896 142.393 106.45C142.112 106.996 141.707 107.417 141.178 107.715C140.657 108.004 140.037 108.149 139.318 108.149ZM145.848 108V99.3204H149.419C150.039 99.3204 150.589 99.4403 151.068 99.68C151.556 99.9114 151.932 100.238 152.196 100.66C152.469 101.081 152.606 101.565 152.606 102.11C152.606 102.656 152.469 103.139 152.196 103.561C151.932 103.983 151.556 104.313 151.068 104.553C150.589 104.784 150.039 104.9 149.419 104.9H146.431V103.536H149.419C149.783 103.536 150.093 103.482 150.349 103.375C150.605 103.268 150.795 103.106 150.919 102.891C151.051 102.677 151.118 102.416 151.118 102.11C151.118 101.647 150.973 101.296 150.684 101.056C150.394 100.808 149.973 100.684 149.419 100.684H147.274V104.032V104.156V108H145.848ZM151.13 108L148.613 104.243H150.225L152.792 108H151.13ZM159.25 108V99.3204H163.032C163.578 99.3204 164.057 99.4155 164.471 99.6056C164.884 99.7957 165.202 100.06 165.425 100.399C165.648 100.73 165.76 101.114 165.76 101.552C165.76 101.99 165.653 102.367 165.438 102.681C165.231 102.987 164.946 103.218 164.582 103.375V103.437C165.029 103.561 165.388 103.809 165.661 104.181C165.934 104.545 166.07 104.991 166.07 105.52C166.07 106.016 165.942 106.45 165.686 106.822C165.438 107.194 165.078 107.483 164.607 107.69C164.144 107.897 163.598 108 162.97 108H159.25ZM162.97 106.698C163.309 106.698 163.598 106.648 163.838 106.549C164.086 106.45 164.272 106.305 164.396 106.115C164.52 105.917 164.582 105.681 164.582 105.409C164.582 105.127 164.52 104.892 164.396 104.702C164.272 104.512 164.09 104.371 163.851 104.28C163.611 104.181 163.317 104.131 162.97 104.131H160.106V102.891H162.97C163.384 102.891 163.702 102.788 163.925 102.581C164.156 102.375 164.272 102.098 164.272 101.751C164.272 101.519 164.218 101.321 164.111 101.156C164.012 100.982 163.863 100.85 163.665 100.759C163.474 100.668 163.243 100.622 162.97 100.622H160.676V106.698H162.97ZM172.25 108.149C171.531 108.149 170.907 108.004 170.378 107.715C169.849 107.417 169.444 106.996 169.163 106.45C168.882 105.896 168.741 105.243 168.741 104.491V99.3204H170.167V104.491C170.167 104.979 170.246 105.396 170.403 105.743C170.568 106.082 170.808 106.343 171.122 106.524C171.436 106.698 171.812 106.785 172.25 106.785C172.912 106.785 173.42 106.586 173.775 106.19C174.139 105.785 174.321 105.218 174.321 104.491V99.3204H175.747V104.491C175.747 105.243 175.606 105.896 175.325 106.45C175.044 106.996 174.639 107.417 174.11 107.715C173.589 108.004 172.969 108.149 172.25 108.149ZM181.737 108.149C180.58 108.149 179.683 107.909 179.046 107.43C178.418 106.95 178.083 106.252 178.042 105.334H179.567C179.583 105.83 179.774 106.206 180.137 106.462C180.501 106.719 181.034 106.847 181.737 106.847C182.249 106.847 182.671 106.748 183.002 106.549C183.332 106.351 183.498 106.07 183.498 105.706C183.498 105.417 183.402 105.181 183.212 104.999C183.03 104.817 182.799 104.673 182.518 104.565C182.245 104.458 181.861 104.338 181.365 104.206C180.745 104.04 180.236 103.875 179.84 103.71C179.443 103.544 179.104 103.296 178.823 102.966C178.55 102.627 178.414 102.185 178.414 101.639C178.414 101.16 178.546 100.734 178.811 100.362C179.075 99.9817 179.443 99.6883 179.914 99.4816C180.394 99.2749 180.947 99.1716 181.576 99.1716C182.584 99.1716 183.378 99.3948 183.956 99.8412C184.543 100.288 184.866 100.92 184.923 101.738H183.398C183.365 101.308 183.2 100.99 182.902 100.784C182.613 100.577 182.183 100.474 181.613 100.474C181.092 100.474 180.675 100.573 180.36 100.771C180.055 100.97 179.902 101.238 179.902 101.577C179.902 101.858 179.993 102.09 180.174 102.271C180.365 102.453 180.596 102.598 180.869 102.705C181.15 102.805 181.53 102.92 182.01 103.053C182.646 103.218 183.159 103.383 183.547 103.549C183.944 103.714 184.283 103.966 184.564 104.305C184.845 104.644 184.985 105.09 184.985 105.644C184.985 106.14 184.845 106.578 184.564 106.958C184.291 107.339 183.907 107.632 183.411 107.839C182.923 108.045 182.365 108.149 181.737 108.149ZM187.655 108V99.3204H189.031V108H187.655ZM192.134 108V99.3204H193.944L198.111 106.14H198.173V99.3204H199.574V108H197.763L193.597 101.18H193.535V108H192.134ZM202.668 108V99.3204H208.805V100.684H204.094V106.636H208.867V108H202.668ZM203.275 104.28V102.916H208.123V104.28H203.275ZM214.427 108.149C213.269 108.149 212.373 107.909 211.736 107.43C211.108 106.95 210.773 106.252 210.732 105.334H212.257C212.273 105.83 212.463 106.206 212.827 106.462C213.191 106.719 213.724 106.847 214.427 106.847C214.939 106.847 215.361 106.748 215.691 106.549C216.022 106.351 216.187 106.07 216.187 105.706C216.187 105.417 216.092 105.181 215.902 104.999C215.72 104.817 215.489 104.673 215.208 104.565C214.935 104.458 214.551 104.338 214.055 104.206C213.435 104.04 212.926 103.875 212.53 103.71C212.133 103.544 211.794 103.296 211.513 102.966C211.24 102.627 211.104 102.185 211.104 101.639C211.104 101.16 211.236 100.734 211.5 100.362C211.765 99.9817 212.133 99.6883 212.604 99.4816C213.083 99.2749 213.637 99.1716 214.266 99.1716C215.274 99.1716 216.068 99.3948 216.646 99.8412C217.233 100.288 217.556 100.92 217.613 101.738H216.088C216.055 101.308 215.89 100.99 215.592 100.784C215.303 100.577 214.873 100.474 214.303 100.474C213.782 100.474 213.365 100.573 213.05 100.771C212.745 100.97 212.592 101.238 212.592 101.577C212.592 101.858 212.683 102.09 212.864 102.271C213.055 102.453 213.286 102.598 213.559 102.705C213.84 102.805 214.22 102.92 214.7 103.053C215.336 103.218 215.849 103.383 216.237 103.549C216.634 103.714 216.973 103.966 217.254 104.305C217.535 104.644 217.675 105.09 217.675 105.644C217.675 106.14 217.535 106.578 217.254 106.958C216.981 107.339 216.597 107.632 216.101 107.839C215.613 108.045 215.055 108.149 214.427 108.149ZM223.302 108.149C222.144 108.149 221.247 107.909 220.611 107.43C219.983 106.95 219.648 106.252 219.606 105.334H221.132C221.148 105.83 221.338 106.206 221.702 106.462C222.066 106.719 222.599 106.847 223.302 106.847C223.814 106.847 224.236 106.748 224.566 106.549C224.897 106.351 225.062 106.07 225.062 105.706C225.062 105.417 224.967 105.181 224.777 104.999C224.595 104.817 224.364 104.673 224.083 104.565C223.81 104.458 223.426 104.338 222.93 104.206C222.31 104.04 221.801 103.875 221.404 103.71C221.008 103.544 220.669 103.296 220.388 102.966C220.115 102.627 219.978 102.185 219.978 101.639C219.978 101.16 220.111 100.734 220.375 100.362C220.64 99.9817 221.008 99.6883 221.479 99.4816C221.958 99.2749 222.512 99.1716 223.14 99.1716C224.149 99.1716 224.942 99.3948 225.521 99.8412C226.108 100.288 226.43 100.92 226.488 101.738H224.963C224.93 101.308 224.765 100.99 224.467 100.784C224.178 100.577 223.748 100.474 223.178 100.474C222.657 100.474 222.239 100.573 221.925 100.771C221.619 100.97 221.466 101.238 221.466 101.577C221.466 101.858 221.557 102.09 221.739 102.271C221.929 102.453 222.161 102.598 222.434 102.705C222.715 102.805 223.095 102.92 223.574 103.053C224.211 103.218 224.723 103.383 225.112 103.549C225.509 103.714 225.848 103.966 226.129 104.305C226.41 104.644 226.55 105.09 226.55 105.644C226.55 106.14 226.41 106.578 226.129 106.958C225.856 107.339 225.471 107.632 224.975 107.839C224.488 108.045 223.93 108.149 223.302 108.149Z" fill="#ABB1C3"/>
<defs>
<clipPath id="clip0_8301_1546">
<rect width="243" height="216" fill="white" transform="translate(0 -36)"/>
</clipPath>
</defs>
</svg>
