<svg width="20" height="20" viewBox="0 0 20 20" fill="none" xmlns="http://www.w3.org/2000/svg">
<path d="M12.8503 9.0132L16.2299 12.395L19.6117 9.0132L18.692 8.09346L17.0716 9.71385C17.0391 8.85918 16.8525 8.03055 16.5206 7.24313C16.1649 6.40148 15.6529 5.64443 15.0043 4.99367C14.3536 4.34292 13.5965 3.83315 12.7549 3.47741C11.8829 3.10864 10.9545 2.91992 10 2.91992C9.45554 2.91992 8.91324 2.98283 8.3883 3.1043C7.20392 3.37979 6.10413 3.96331 5.20609 4.79194L6.08895 5.74855C6.82214 5.07177 7.72019 4.59671 8.68548 4.37111C9.11498 4.27133 9.5575 4.21927 10.0022 4.21927C13.1866 4.21927 15.7788 6.81146 15.7788 9.99584C15.7788 10.0284 15.7788 10.0631 15.7766 10.0956L13.7722 8.09129L12.8503 9.0132Z" fill="#3F4162"/>
<path d="M0.388297 10.7589L1.30804 11.6787L2.92192 10.0648C2.9306 10.9976 3.11715 11.8999 3.47723 12.7546C3.83298 13.5963 4.34491 14.3533 4.9935 15.0041C5.64426 15.6548 6.40131 16.1646 7.24296 16.5203C8.11715 16.8891 9.0434 17.0778 9.99784 17.0778C10.6204 17.0778 11.2365 16.9976 11.8308 16.837C12.9935 16.529 14.0673 15.9173 14.9349 15.0713L14.026 14.1386C13.3189 14.8284 12.4425 15.3273 11.4946 15.5789C11.0087 15.7091 10.5054 15.7741 9.99784 15.7741C6.81346 15.7741 4.22127 13.1841 4.22127 9.99756C4.22127 9.89127 4.22344 9.78715 4.22995 9.68086L6.22561 11.6765L7.14535 10.7568L3.76574 7.375L0.388297 10.7589Z" fill="#3F4162"/>
</svg>
