<svg width="133" height="41" viewBox="0 0 133 41" fill="none" xmlns="http://www.w3.org/2000/svg">
<path d="M87.7852 40.7068L100.392 0H120.137L132.686 40.7068H118.18L110.293 11.049H110.006L102.004 40.7068H87.7852ZM96.2473 33.7285L99.5286 23.261H120.943L124.224 33.7285H96.2473Z" fill="#ABB1C3"/>
<path d="M48.6289 40.7068V0H65.323C69.9282 0 73.9578 0.872289 77.4118 2.61687C80.9041 4.32268 83.5905 6.72632 85.471 9.82778C87.3898 12.8905 88.3493 16.399 88.3493 20.3534C88.3493 24.3078 87.3898 27.8357 85.471 30.9372C83.5905 33.9999 80.9041 36.4035 77.4118 38.1481C73.9578 39.8539 69.9282 40.7068 65.323 40.7068H48.6289Z" fill="#ABB1C3"/>
<path d="M69.9141 17.6043L69.9141 20.7168L66.8329 20.7168L66.8329 17.6043L69.9141 17.6043Z" fill="white"/>
<path d="M72.9961 20.7175L72.9961 23.8301L69.915 23.8301L69.915 20.7175L72.9961 20.7175Z" fill="white"/>
<path d="M76.0781 17.6043L76.0781 20.7168L72.997 20.7168L72.997 17.6043L76.0781 17.6043Z" fill="white"/>
<path d="M82.2383 17.6043L82.2383 20.7168L79.1571 20.7168L79.1571 17.6043L82.2383 17.6043Z" fill="white"/>
<path d="M88.4023 17.6043L88.4023 20.7168L85.3212 20.7168L85.3212 17.6043L88.4023 17.6043Z" fill="white"/>
<path d="M79.1602 20.7175L79.1602 23.8301L76.079 23.8301L76.079 20.7175L79.1602 20.7175Z" fill="white"/>
<path d="M85.3203 20.7175L85.3203 23.8301L82.2392 23.8301L82.2392 20.7175L85.3203 20.7175Z" fill="white"/>
<path d="M59.6328 17.6041L64.9557 17.604L64.9557 31.1464L59.6328 31.1465L59.6328 17.6041ZM60.7688 22.0609L63.85 22.0609L63.85 18.9484L60.7688 18.9484L60.7688 22.0609Z" fill="white"/>
<path d="M0 40.7068V0H13.7006L27.9194 20.6442H28.2072V0H41.7351V40.7068H28.0345L13.8158 20.0626H13.5279V40.7068H0Z" fill="#ABB1C3"/>
</svg>
