<svg width="202" height="63" viewBox="0 0 202 63" fill="none" xmlns="http://www.w3.org/2000/svg">
<g clip-path="url(#clip0_7251_9308)">
<mask id="mask0_7251_9308" style="mask-type:luminance" maskUnits="userSpaceOnUse" x="0" y="0" width="202" height="63">
<path d="M202 0H0V63H202V0Z" fill="white"/>
</mask>
<g mask="url(#mask0_7251_9308)">
<path d="M48.1758 52.0712L42.4951 42.4177L36.9321 52.0712H30.2744L38.8283 37.5293L30.1094 24.0293H37.0657L42.6522 33.0427L47.9794 24.0293H54.6372L46.0596 37.9686L54.8728 52.0712H48.1758Z" fill="black"/>
<path d="M76.5223 42.5373C76.5223 48.698 71.9781 52.5524 66.025 52.5524C60.7868 52.5524 56.3579 49.59 55.9258 43.1373H61.6066C61.9968 45.9417 64.1916 47.1551 66.5828 47.1551C69.5608 47.1551 70.8441 45.1114 70.8441 42.4676C70.8441 39.7034 68.8483 37.981 66.0669 37.981C63.7542 37.981 62.2273 39.1034 61.5228 40.306H56.0908L57.966 24.0391H75.8229L75.2284 29.4872H62.4526L61.947 34.8713C61.947 34.8713 63.288 33.264 67.3528 33.264C72.2531 33.264 76.5196 36.6284 76.5196 42.5587" fill="black"/>
<path d="M56.596 20.5367C53.5708 8.48304 43.9719 0 24.0511 0H0L3.26602 22.5777C5.72011 42.9509 13.339 49.5054 26.8221 51.9187C26.8846 51.9359 26.9502 51.937 27.0133 51.9223C27.0763 51.9073 27.1348 51.877 27.1837 51.8336C27.2326 51.7903 27.2703 51.7353 27.2936 51.6735C27.3167 51.6118 27.3249 51.5451 27.3172 51.4795C27.3178 51.3923 27.2933 51.3069 27.2467 51.2341C27.2001 51.1611 27.1335 51.104 27.0552 51.0696C17.9408 47.1455 16.9011 34.2749 14.9551 21.3615L13.449 11.0705H27.1783C39.8363 11.0705 49.6108 10.867 55.7971 20.8608C55.84 20.9323 55.8996 20.9919 55.9704 21.0345C56.0411 21.077 56.1211 21.101 56.203 21.1044C56.2591 21.1041 56.3144 21.0924 56.3657 21.0698C56.4171 21.0473 56.4636 21.0145 56.5023 20.9733C56.5413 20.9321 56.5717 20.8833 56.5917 20.83C56.6118 20.7767 56.6212 20.7197 56.6196 20.6625C56.6205 20.6198 56.6143 20.5773 56.6011 20.5367" fill="#5FAF2D"/>
<path d="M109.214 37.4639C109.214 37.4639 110.636 53.0586 95.2253 53.0586C87.106 53.0586 80.8203 46.6969 80.8203 38.0586C80.8203 29.4201 87.1218 23.0586 95.461 23.0586C101.886 23.0586 107.011 26.8406 108.962 32.6639H105.353C103.643 28.8389 99.9448 26.3425 95.4295 26.3425C89.005 26.3425 84.2461 31.3353 84.2461 38.155C84.2461 44.7684 88.7614 49.8818 95.4295 49.8818C101.042 49.8818 105.311 46.2228 105.801 40.4425H94.8455V37.496H109.214V37.4639Z" fill="black"/>
<path d="M126.537 29.355V32.8908C126.064 32.8355 125.589 32.8078 125.112 32.8077C120.435 32.8077 117.182 35.9256 117.182 41.7916V52.6024H113.809V29.7327H117.182V34.8487C118.523 31.439 121.208 29.2773 125.152 29.2773C125.615 29.2772 126.078 29.3049 126.537 29.3604" fill="black"/>
<path d="M151.238 41.1671C151.238 48.0295 146.155 53.0598 139.688 53.0598C133.261 53.0598 128.18 47.9867 128.18 41.1671C128.18 34.3046 133.345 29.2715 139.688 29.2715C146.073 29.2715 151.238 34.3046 151.238 41.1671ZM131.595 41.1671C131.595 46.1974 135.173 49.7759 139.688 49.7759C144.203 49.7759 147.807 46.1974 147.807 41.1671C147.807 36.1367 144.188 32.5582 139.688 32.5582C135.215 32.5582 131.595 36.0938 131.595 41.1671Z" fill="black"/>
<path d="M174.58 29.7305V52.6055H171.193V48.0707C169.691 51.0652 167.087 53.0608 163.224 53.0608C158.264 53.0608 155.293 49.8171 155.293 44.2429V29.7305H158.667V43.5786C158.667 47.6554 160.539 49.7769 164.199 49.7769C168.632 49.7769 171.193 46.5332 171.193 41.4573V29.7305H174.57H174.58Z" fill="black"/>
<path d="M201.999 41.1676C201.999 48.073 197.607 53.0604 191.507 53.0604C189.761 53.096 188.038 52.6421 186.525 51.7478C185.014 50.8535 183.769 49.5531 182.927 47.9873V63.0007H179.551V29.7328H182.927V34.431C183.766 32.8475 185.014 31.5295 186.534 30.6204C188.054 29.7113 189.788 29.2458 191.55 29.2747C197.607 29.2747 201.999 34.2247 201.999 41.1703V41.1676ZM198.595 41.1703C198.595 36.1775 195.423 32.5614 190.907 32.5614C186.392 32.5614 182.899 36.1373 182.899 41.1703C182.899 46.2034 186.355 49.7791 190.907 49.7791C195.46 49.7791 198.595 46.2006 198.595 41.1703Z" fill="black"/>
</g>
</g>
<defs>
<clipPath id="clip0_7251_9308">
<rect width="202" height="63" fill="white"/>
</clipPath>
</defs>
</svg>
