<svg width="218" height="38" viewBox="0 0 218 38" fill="none" xmlns="http://www.w3.org/2000/svg">
<g clip-path="url(#clip0_7251_9247)">
<path d="M140.707 18.6524L151.159 36.5171H141.205L135.73 27.183L130.254 36.5171H120.25L130.752 18.6021L120.648 1.38931H130.653L135.73 10.0708L140.807 1.38931H150.811L140.707 18.6524ZM156.275 32.0513C152.857 28.5716 151.148 24.2057 151.148 18.9535C151.148 13.7007 152.857 9.35198 156.275 5.90611C159.693 2.3934 164.04 0.636719 169.317 0.636719C172.469 0.636719 175.389 1.38931 178.076 2.89512C179.443 3.66044 180.375 4.47225 181.727 5.59413C181.73 5.59667 180.505 6.87264 177.178 12.2891C173.823 8.90628 166.221 8.37463 162.547 12.0784C160.855 13.8516 160.008 16.1431 160.008 18.9535C160.008 21.8302 160.855 24.1389 162.547 25.8784C164.272 27.6179 166.529 28.4882 169.316 28.4882C170.942 28.4882 172.401 28.11 173.721 27.409C175.87 26.2674 176.62 25.2735 176.671 25.3932L181.504 32.5517C174.054 38.9525 163.314 39.1467 156.275 32.0513ZM217.368 36.5171H207.762L206.269 31.4489H194.67L193.177 36.5171H183.52L195.018 1.38994H205.869L217.368 36.5171ZM200.444 11.7772L196.96 23.7206H203.978L200.444 11.7772Z" fill="#123759"/>
<path fill-rule="evenodd" clip-rule="evenodd" d="M72.1719 0.939815L85.1468 0.869141L85.2756 36.5178L72.3007 36.5878L72.1719 0.939815Z" fill="#123759"/>
<path fill-rule="evenodd" clip-rule="evenodd" d="M93.332 15.0045V1.06055H113.129V15.0045H93.332Z" fill="#85BF60"/>
<path fill-rule="evenodd" clip-rule="evenodd" d="M93.332 36.399V22.4551H113.129V36.399H93.332Z" fill="#123759"/>
<path d="M3.3181 22.4395C2.70741 22.4395 2.22176 22.6445 1.86178 23.0552C1.50938 23.4735 1.3294 24.0338 1.3294 24.752C1.3294 25.4861 1.50181 26.0617 1.84599 26.4565C2.1826 26.8595 2.67583 27.0645 3.30989 27.0645C3.70144 27.0645 4.14794 26.9932 4.64054 26.8512V27.4275C4.25719 27.5777 3.77975 27.6484 3.20821 27.6484C2.38595 27.6484 1.75189 27.3956 1.30603 26.8907C0.860165 26.3852 0.632812 25.6752 0.632812 24.7444C0.632812 24.1681 0.7427 23.6556 0.953633 23.2214C1.15894 22.7969 1.48644 22.4448 1.89336 22.2109C2.29249 21.974 2.77751 21.8556 3.32568 21.8556C3.91301 21.8556 4.42139 21.9658 4.86031 22.1791L4.58622 22.7394C4.1631 22.542 3.73997 22.4395 3.3181 22.4395ZM7.58412 27.5694H6.93427V22.5184H5.16534V21.9346H9.35305V22.5184H7.58412V27.5694ZM13.7365 23.576C13.7365 24.1446 13.5408 24.5865 13.1574 24.894C12.7741 25.1939 12.2183 25.3518 11.4984 25.3518H10.8403V27.5694H10.1905V21.9346H11.6392C13.04 21.9346 13.7365 22.479 13.7365 23.576ZM10.8403 24.7915H11.4276C11.9992 24.7915 12.4217 24.6966 12.68 24.5075C12.9307 24.326 13.0633 24.0179 13.0633 23.6078C13.0633 23.2366 12.9383 22.9603 12.7033 22.7788C12.4608 22.5897 12.0775 22.5025 11.5685 22.5025H10.8403V24.7915ZM19.7563 24.7444C19.7563 25.644 19.5296 26.354 19.0755 26.8748C18.629 27.388 17.9956 27.6484 17.1891 27.6484C16.3669 27.6484 15.7328 27.3956 15.287 26.8831C14.8405 26.3775 14.6137 25.6593 14.6137 24.7361C14.6137 23.8205 14.8411 23.1106 15.287 22.6057C15.7328 22.1001 16.3751 21.848 17.1967 21.848C18.0032 21.848 18.629 22.1001 19.0831 22.6209C19.5296 23.1341 19.7563 23.8447 19.7563 24.7444ZM15.3027 24.7444C15.3027 25.5097 15.4669 26.0859 15.7878 26.4807C16.1086 26.8754 16.5785 27.0722 17.1891 27.0722C17.8074 27.0722 18.2773 26.8748 18.5975 26.48C18.9113 26.0853 19.068 25.5097 19.068 24.7444C19.068 23.9867 18.9113 23.4105 18.5981 23.0157C18.2849 22.6292 17.815 22.4318 17.1967 22.4318C16.5785 22.4318 16.1086 22.6292 15.7878 23.024C15.4669 23.4187 15.3027 23.9943 15.3027 24.7444ZM21.0087 21.9346H21.6194V25.0672C21.6194 25.644 21.6036 26.1649 21.5651 26.6379H21.596L24.7272 21.9346H25.4395V27.5694H24.8288V24.468C24.8288 23.9472 24.8522 23.4105 24.892 22.8425H24.8604L21.7217 27.5694H21.0087V21.9346ZM28.6881 27.5694H28.0383V22.5184H26.27V21.9346H30.4571V22.5184H28.6881V27.5694ZM34.4099 27.5694H31.2945V21.9346H34.4105V22.5184H31.9443V24.3337H34.2608V24.9099H31.9443V26.9856H34.4105L34.4099 27.5694ZM39.6238 27.5694H38.9733V22.5184H37.1577L37.0402 23.4417C36.8836 24.6731 36.7503 25.5727 36.6253 26.1413C36.5078 26.7092 36.3512 27.104 36.163 27.3249C35.9672 27.5542 35.7089 27.6643 35.3881 27.656C35.2005 27.656 35.0281 27.6242 34.8791 27.5618V27.0091C35.0205 27.0798 35.1614 27.1116 35.3098 27.1116C35.3771 27.1127 35.4438 27.0984 35.5049 27.0697C35.5659 27.041 35.6197 26.9988 35.6622 26.9461C35.7639 26.8277 35.858 26.6379 35.9363 26.3622C36.0146 26.0859 36.1087 25.5568 36.2255 24.7915C36.343 24.0179 36.4762 23.0628 36.6171 21.9346H39.6232L39.6238 27.5694ZM45.0171 25.928C45.0171 26.4488 44.8447 26.8512 44.5005 27.1352C44.1563 27.4275 43.6631 27.5694 43.0208 27.5694H41.1578V21.9346H41.8083V24.3413H42.9198C43.6006 24.3413 44.1248 24.4757 44.4772 24.7444C44.8371 25.0201 45.0171 25.4148 45.0171 25.928ZM41.8077 27.0015H42.9507C43.8823 27.0015 44.3439 26.6462 44.3439 25.928C44.3439 25.5804 44.2264 25.3282 43.9839 25.162C43.749 24.9965 43.365 24.9175 42.8409 24.9175H41.8077V27.0015ZM50.4344 27.5694H49.784V24.9175H46.841V27.5694H46.1918V21.9346H46.8423V24.3337H49.7852V21.9346H50.4344V27.5694ZM51.9684 27.5694V21.9346H52.6183V24.3413H53.534C54.199 24.3413 54.708 24.4757 55.0522 24.7361C55.4046 24.9971 55.5764 25.3989 55.5764 25.928C55.5764 26.4565 55.4122 26.8589 55.0838 27.1435C54.7554 27.4275 54.2691 27.5694 53.6357 27.5694H51.9684ZM52.6183 27.0091H53.5656C54.0266 27.0091 54.3638 26.9143 54.5824 26.7411C54.7939 26.559 54.9038 26.2827 54.9038 25.928C54.9038 25.5727 54.7939 25.32 54.5672 25.162C54.3323 25.0048 53.9647 24.9258 53.4557 24.9258H52.6183V27.0091ZM57.111 27.5694H56.4612V21.9346H57.1117L57.111 27.5694ZM58.6532 21.9346H59.2639V25.0672C59.2639 25.644 59.2481 26.1649 59.209 26.6379H59.2406L62.3717 21.9346H63.0835V27.5694H62.4734V24.468C62.4734 23.9472 62.4968 23.4105 62.5359 22.8425H62.5043L59.3656 27.5694H58.6532V21.9346ZM60.9703 21.4844C60.5005 21.4844 60.1563 21.3902 59.9371 21.2087C59.7256 21.0266 59.6005 20.7191 59.5772 20.3008H60.1721C60.1954 20.5688 60.2655 20.7509 60.383 20.8611C60.5005 20.9636 60.6963 21.019 60.9861 21.019C61.252 21.019 61.4402 20.9636 61.5735 20.8452C61.6985 20.735 61.7768 20.5536 61.8002 20.3008H62.4027C62.3711 20.7032 62.2385 21.0031 62.0111 21.2004C61.7844 21.3902 61.4402 21.4844 60.9703 21.4844ZM36.9354 35.9625L36.2388 34.1708H34L33.311 35.9625H32.6536L34.8608 30.3035H35.4089L37.6086 35.9625H36.9354ZM36.0348 33.5793L35.3856 31.8347C35.3066 31.6138 35.2132 31.3381 35.1266 31.0217C35.0723 31.2668 34.994 31.5349 34.8841 31.8347L34.2273 33.5793H36.0348ZM42.352 35.9625H41.7022V30.9115H39.8865L39.7691 31.8347C39.6124 33.0661 39.4792 33.9658 39.3541 34.5337C39.2367 35.1023 39.0801 35.4965 38.8919 35.718C38.6961 35.9466 38.4384 36.0568 38.117 36.0491C37.9294 36.0491 37.757 36.0173 37.6086 35.9542V35.4022C37.7494 35.4729 37.8902 35.5041 38.0387 35.5041C38.106 35.5052 38.1727 35.4908 38.2337 35.4621C38.2948 35.4335 38.3486 35.3912 38.3911 35.3385C38.4927 35.2208 38.5868 35.031 38.6651 34.7547C38.7435 34.4784 38.8375 33.9499 38.955 33.1846C39.0725 32.411 39.2051 31.4559 39.3466 30.3277H42.352V35.9625ZM47.7454 34.3211C47.7454 34.8419 47.5736 35.2443 47.2288 35.5283C46.8846 35.8205 46.3913 35.9625 45.7497 35.9625H43.8867V30.3277H44.5365V32.7344H45.648C46.3288 32.7344 46.853 32.8681 47.2054 33.1368C47.5654 33.4131 47.7454 33.8079 47.7454 34.3211ZM44.5365 35.3939H45.6796C46.6105 35.3939 47.0721 35.0387 47.0721 34.3211C47.0721 33.9734 46.9547 33.7213 46.7122 33.5551C46.4772 33.3896 46.0939 33.3106 45.5691 33.3106H44.5372L44.5365 35.3939ZM50.5791 33.6105L49.1152 35.9625H48.3485L49.914 33.4997C49.5067 33.366 49.2093 33.1686 49.0217 32.9C48.8335 32.6395 48.74 32.3002 48.74 31.8978C48.74 31.3929 48.9118 31.0064 49.256 30.7301C49.6008 30.4614 50.125 30.3277 50.8298 30.3277H52.3644V35.9625H51.7139V33.6105H50.5791ZM51.7146 30.8956H50.8456C50.3833 30.8956 50.0233 30.9746 49.7884 31.1401C49.5459 31.298 49.4208 31.5667 49.4208 31.9296C49.4208 32.679 49.9058 33.0502 50.8689 33.0502H51.7146V30.8956ZM58.1411 35.9625H57.4912V33.3106H54.5483V35.9625H53.8978V30.3277H54.5483V32.7268H57.4912V30.3277H58.1411V35.9625ZM62.0705 30.8326C61.4598 30.8326 60.9748 31.0376 60.6142 31.4483C60.2624 31.8666 60.0824 32.4269 60.0824 33.1451C60.0824 33.8786 60.2542 34.4548 60.599 34.8496C60.9356 35.252 61.4288 35.457 62.0629 35.457C62.4544 35.457 62.9003 35.3863 63.3935 35.2443V35.8205C63.0096 35.9702 62.5321 36.0408 61.9606 36.0408C61.139 36.0408 60.5049 35.7887 60.059 35.2832C59.6125 34.7782 59.3852 34.0683 59.3852 33.1374C59.3852 32.5606 59.4951 32.048 59.7066 31.6138C59.9117 31.1894 60.239 30.8373 60.6457 30.6034C61.0449 30.3671 61.5299 30.2487 62.078 30.2487C62.6654 30.2487 63.1744 30.3589 63.6127 30.5722L63.3386 31.1325C62.9155 30.9351 62.493 30.8326 62.0705 30.8326Z" fill="#123759"/>
<path d="M31.6449 15.5033H30.9124L29.4163 13.036L27.8968 15.5033H27.2109L29.0582 12.5725L27.336 9.89323H28.0528L29.432 12.1166L30.8271 9.89323H31.513L29.7908 12.5489L31.6449 15.5033ZM37.2719 12.6903C37.2719 13.5861 37.0458 14.2929 36.5937 14.8118C36.1497 15.3224 35.5188 15.5822 34.7155 15.5822C33.8976 15.5822 33.2661 15.3301 32.8221 14.8194C32.3782 14.3164 32.1514 13.6014 32.1514 12.6826C32.1514 11.7709 32.3782 11.0641 32.8221 10.5611C33.2661 10.0581 33.9052 9.80664 34.723 9.80664C35.5264 9.80664 36.1503 10.0581 36.6019 10.5771C37.0458 11.0877 37.2719 11.7944 37.2719 12.6903ZM32.8373 12.6903C32.8373 13.4524 33.0015 14.0261 33.3204 14.419C33.64 14.8118 34.1079 15.0079 34.7161 15.0079C35.3312 15.0079 35.7992 14.8118 36.1181 14.419C36.4301 14.0261 36.5861 13.4524 36.5861 12.6903C36.5861 11.9358 36.4301 11.3628 36.1187 10.9699C35.8068 10.5847 35.3394 10.388 34.723 10.388C34.1079 10.388 33.64 10.5847 33.321 10.9775C33.0015 11.3704 32.8373 11.9441 32.8373 12.6903ZM42.4701 15.5033H41.8234V10.4745H40.0153L39.8978 11.394C39.7425 12.6196 39.6099 13.5155 39.4855 14.0809C39.368 14.6469 39.2126 15.0397 39.0251 15.2594C38.8306 15.4873 38.5735 15.5969 38.254 15.5899C38.0805 15.5926 37.9083 15.5603 37.7475 15.495V14.9455C37.8877 15.0155 38.0279 15.0474 38.1757 15.0474C38.2428 15.0485 38.3092 15.0343 38.3701 15.0057C38.4309 14.9771 38.4845 14.935 38.5268 14.8825C38.6278 14.7647 38.7213 14.5762 38.7996 14.3012C38.8773 14.0261 38.9708 13.4995 39.0876 12.7374C39.2044 11.967 39.337 11.017 39.4772 9.89323H42.4701V15.5033ZM48.3851 16.9645H47.7693V15.5033H43.9043V16.9645H43.2886V14.9143H43.7167C44.1064 14.254 44.4417 13.4448 44.7222 12.4942C44.995 11.5429 45.151 10.6796 45.1819 9.89323H47.6834V14.9137H48.3844L48.3851 16.9645ZM47.0367 14.9143V10.4828H45.7667C45.7193 11.103 45.5716 11.8416 45.3069 12.7138C45.0493 13.5779 44.7449 14.3171 44.395 14.9137L47.0367 14.9143ZM49.3279 9.89323H49.9355V13.0125C49.9355 13.5855 49.9203 14.1044 49.8812 14.5762H49.9127L53.0294 9.89323H53.7386V15.5026H53.131V12.4152C53.131 11.897 53.1544 11.3628 53.1936 10.7967H53.162L50.0372 15.5033H49.3279V9.89323ZM59.4824 15.5026H58.8357V12.8635H55.9054V15.5033H55.2587V9.89387H55.9054V12.2815H58.8357V9.89387H59.4824V15.5026ZM64.1115 9.89323V10.4828H61.6568V15.5033H61.0101V9.89387L64.1115 9.89323Z" fill="#85BF60"/>
</g>
<defs>
<clipPath id="clip0_7251_9247">
<rect width="218" height="38" fill="white"/>
</clipPath>
</defs>
</svg>
