<svg width="52" height="42" viewBox="0 0 52 42" fill="none" xmlns="http://www.w3.org/2000/svg">
<path d="M32.4805 33.0879C34.2087 32.282 35.7341 31.0231 37.0557 29.3105C38.2756 27.598 39.0885 25.6839 39.4951 23.5684C39.5506 23.2018 39.5895 22.8369 39.6113 22.4736C39.3205 22.4962 39.028 22.5107 38.7334 22.5107C35.5819 22.5107 33.04 21.5031 31.1084 19.4883C29.1769 17.4735 28.2109 14.9548 28.2109 11.9326C28.211 8.80979 29.2783 6.14005 31.4131 3.92383C33.548 1.70753 36.395 0.599608 39.9531 0.599608C43.6129 0.59962 46.5613 2.00947 48.7979 4.83008C50.9328 7.65082 52 11.2277 52 15.5596C52 19.7904 51.187 23.7192 49.5605 27.3457C47.934 31.073 45.6463 34.1457 42.6982 36.5635C39.6484 39.082 36.242 40.6942 32.4805 41.3994L32.4805 33.0879ZM4.26953 33.0879C5.99778 32.282 7.52312 31.0231 8.84473 29.3105C10.0646 27.598 10.8775 25.6838 11.2842 23.5684C11.3397 23.2018 11.3786 22.8369 11.4004 22.4736C11.1096 22.4962 10.8171 22.5107 10.5225 22.5107C7.37097 22.5107 4.82903 21.5031 2.89746 19.4883C0.965887 17.4735 2.31186e-06 14.9548 2.57607e-06 11.9326C3.33667e-05 8.80975 1.06734 6.14007 3.20215 3.92382C5.33705 1.70753 8.18403 0.599606 11.7422 0.599606C15.4019 0.599671 18.3504 2.00945 20.5869 4.83008C22.7218 7.65082 23.7891 11.2277 23.7891 15.5596C23.789 19.7905 22.9751 23.7191 21.3486 27.3457C19.722 31.0731 17.4345 34.1457 14.4863 36.5635C11.4365 39.0819 8.03098 40.6942 4.26953 41.3994L4.26953 33.0879Z" fill="#1E65F4"/>
</svg>
