<svg width="18" height="18" viewBox="0 0 18 18" fill="none" xmlns="http://www.w3.org/2000/svg">
<path d="M3.53544 11.8931C5.13312 11.8931 6.42829 10.598 6.42829 9.00028C6.42829 7.4026 5.13312 6.10742 3.53544 6.10742C1.93775 6.10742 0.642578 7.4026 0.642578 9.00028C0.642578 10.598 1.93775 11.8931 3.53544 11.8931Z" stroke="#6C789C" stroke-width="1.5" stroke-linecap="round" stroke-linejoin="round"/>
<path d="M14.4641 17.3575C16.0618 17.3575 17.357 16.0623 17.357 14.4646C17.357 12.867 16.0618 11.5718 14.4641 11.5718C12.8665 11.5718 11.5713 12.867 11.5713 14.4646C11.5713 16.0623 12.8665 17.3575 14.4641 17.3575Z" stroke="#6C789C" stroke-width="1.5" stroke-linecap="round" stroke-linejoin="round"/>
<path d="M14.4641 6.42878C16.0618 6.42878 17.357 5.1336 17.357 3.53592C17.357 1.93824 16.0618 0.643066 14.4641 0.643066C12.8665 0.643066 11.5713 1.93824 11.5713 3.53592C11.5713 5.1336 12.8665 6.42878 14.4641 6.42878Z" stroke="#6C789C" stroke-width="1.5" stroke-linecap="round" stroke-linejoin="round"/>
<path d="M6.12012 7.71463L11.8801 4.82178" stroke="#6C789C" stroke-width="1.5" stroke-linecap="round" stroke-linejoin="round"/>
<path d="M6.12012 10.2861L11.8801 13.179" stroke="#6C789C" stroke-width="1.5" stroke-linecap="round" stroke-linejoin="round"/>
</svg>
