<svg width="117" height="33" viewBox="0 0 117 33" fill="none" xmlns="http://www.w3.org/2000/svg">
<g opacity="0.4" clip-path="url(#clip0_7251_9227)">
<path fill-rule="evenodd" clip-rule="evenodd" d="M2.46713 23.6248C2.14294 23.6248 1.82192 23.5601 1.5224 23.4343C1.22289 23.3086 0.950739 23.1243 0.721499 22.892C0.492259 22.6597 0.310416 22.3839 0.186352 22.0804C0.0622885 21.7769 -0.00156632 21.4515 -0.00156632 21.123C-0.00156632 20.7944 0.0622885 20.4691 0.186352 20.1656C0.310416 19.8621 0.492259 19.5863 0.721499 19.3539C0.950739 19.1216 1.22289 18.9374 1.5224 18.8116C1.82192 18.6859 2.14294 18.6212 2.46713 18.6212H19.3795C19.7069 18.6212 20.0208 18.4894 20.2523 18.2548C20.4838 18.0202 20.6138 17.7021 20.6138 17.3703V14.316H6.99035C6.66616 14.316 6.34514 14.2513 6.04562 14.1255C5.74611 13.9998 5.47396 13.8155 5.24472 13.5832C5.01548 13.3509 4.83364 13.0751 4.70957 12.7716C4.58551 12.468 4.52165 12.1427 4.52165 11.8142C4.52165 11.4856 4.58551 11.1603 4.70957 10.8568C4.83364 10.5532 5.01548 10.2774 5.24472 10.0451C5.47396 9.81282 5.74611 9.62854 6.04562 9.50281C6.34514 9.37708 6.66616 9.31237 6.99035 9.31237H20.6138V6.25923C20.6138 5.92747 20.4838 5.6093 20.2523 5.37472C20.0208 5.14013 19.7069 5.00834 19.3795 5.00834H2.46713C1.81177 5.00834 1.18325 4.7445 0.719845 4.27488C0.256435 3.80526 -0.00390625 3.16831 -0.00390625 2.50417C-0.00390625 1.84002 0.256435 1.20308 0.719845 0.733454C1.18325 0.263831 1.81177 2.80994e-07 2.46713 2.80994e-07H23.0825C23.7373 2.80994e-07 24.3652 0.263582 24.8282 0.732759C25.2911 1.20194 25.5512 1.83828 25.5512 2.5018V21.1171C25.5512 21.7806 25.2911 22.4169 24.8282 22.8861C24.3652 23.3553 23.7373 23.6189 23.0825 23.6189H2.46713V23.6248ZM91.035 2.5018C91.035 1.83828 91.2951 1.20194 91.758 0.732759C92.221 0.263582 92.8489 2.80994e-07 93.5037 2.80994e-07H114.53C115.184 2.80994e-07 115.812 0.263582 116.275 0.732759C116.738 1.20194 116.998 1.83828 116.998 2.5018V21.1265C116.998 21.7901 116.738 22.4264 116.275 22.8956C115.812 23.3648 115.184 23.6283 114.53 23.6283C113.875 23.6283 113.247 23.3648 112.784 22.8956C112.321 22.4264 112.061 21.7901 112.061 21.1265V14.3207H95.9724V21.1265C95.9724 21.7901 95.7123 22.4264 95.2493 22.8956C94.7863 23.3648 94.1584 23.6283 93.5037 23.6283C92.8489 23.6283 92.221 23.3648 91.758 22.8956C91.2951 22.4264 91.035 21.7901 91.035 21.1265V2.5018ZM110.827 5.00359C111.154 5.00359 111.468 5.13538 111.7 5.36997C111.931 5.60456 112.061 5.92273 112.061 6.25449V9.30763H95.9724V6.25449C95.9724 5.92273 96.1024 5.60456 96.3339 5.36997C96.5654 5.13538 96.8793 5.00359 97.2067 5.00359H110.827ZM87.1763 2.5018C87.1763 2.17316 87.1124 1.84774 86.9883 1.54413C86.8641 1.24052 86.6822 0.964669 86.4528 0.73234C86.2235 0.500011 85.9512 0.315755 85.6515 0.190098C85.3519 0.0644405 85.0307 -0.000155473 84.7064 2.80994e-07H61.8587C61.2039 2.80994e-07 60.576 0.263582 60.113 0.732759C59.6501 1.20194 59.39 1.83828 59.39 2.5018V30.4982C59.39 31.1617 59.6501 31.7981 60.113 32.2672C60.576 32.7364 61.2039 33 61.8587 33C62.5134 33 63.1413 32.7364 63.6043 32.2672C64.0673 31.7981 64.3274 31.1617 64.3274 30.4982V23.6212H84.7064C85.3612 23.6212 85.9891 23.3576 86.4521 22.8885C86.915 22.4193 87.1751 21.7829 87.1751 21.1194L87.1763 2.5018ZM65.5617 18.6153C65.2344 18.6153 64.9204 18.4835 64.6889 18.2489C64.4574 18.0143 64.3274 17.6961 64.3274 17.3644V6.25449C64.3274 5.92273 64.4574 5.60456 64.6889 5.36997C64.9204 5.13538 65.2344 5.00359 65.5617 5.00359H80.9987C81.3261 5.00359 81.64 5.13538 81.8715 5.36997C82.103 5.60456 82.2331 5.92273 82.2331 6.25449V17.3691C82.2318 17.7 82.1012 18.017 81.8699 18.2506C81.6385 18.4841 81.3253 18.6153 80.9987 18.6153H65.5617ZM49.0285 2.80994e-07L39.844 9.30763H34.3531V2.5018C34.3531 1.83828 34.0931 1.20194 33.6301 0.732759C33.1671 0.263582 32.5392 2.80994e-07 31.8844 2.80994e-07C31.2297 2.80994e-07 30.6018 0.263582 30.1388 0.732759C29.6758 1.20194 29.4157 1.83828 29.4157 2.5018V21.1171C29.4157 21.7806 29.6758 22.4169 30.1388 22.8861C30.6018 23.3553 31.2297 23.6189 31.8844 23.6189C32.5392 23.6189 33.1671 23.3553 33.6301 22.8861C34.0931 22.4169 34.3531 21.7806 34.3531 21.1171V14.3112H39.844L49.0285 23.6189H53.0568C53.381 23.6189 53.702 23.5541 54.0015 23.4284C54.301 23.3027 54.5732 23.1184 54.8024 22.8861C55.0316 22.6538 55.2135 22.378 55.3375 22.0745C55.4616 21.7709 55.5255 21.4456 55.5255 21.1171C55.5255 20.7885 55.4616 20.4632 55.3375 20.1597C55.2135 19.8561 55.0316 19.5803 54.8024 19.348C54.5732 19.1157 54.301 18.9314 54.0015 18.8057C53.702 18.68 53.381 18.6153 53.0568 18.6153H51.0736L44.5848 12.0395V11.5841L51.0736 5.00834H53.0568C53.7115 5.00834 54.3394 4.74475 54.8024 4.27558C55.2654 3.8064 55.5255 3.17006 55.5255 2.50654C55.5255 1.84302 55.2654 1.20668 54.8024 0.737502C54.3394 0.268324 53.7115 0.00474302 53.0568 0.00474302H49.0285V2.80994e-07Z" fill="white"/>
</g>
<defs>
<clipPath id="clip0_7251_9227">
<rect width="117" height="33" fill="white"/>
</clipPath>
</defs>
</svg>
