<svg width="210" height="32" viewBox="0 0 210 32" fill="none" xmlns="http://www.w3.org/2000/svg">
<g opacity="0.4">
<mask id="mask0_7251_9226" style="mask-type:alpha" maskUnits="userSpaceOnUse" x="1" y="16" width="31" height="16">
<path d="M16.4833 16.7617L1.53125 31.9998H31.4354L16.4833 16.7617Z" fill="#D9DDE9"/>
</mask>
<g mask="url(#mask0_7251_9226)">
<path d="M0 0V32H31.437L0 0Z" fill="white"/>
</g>
<path d="M31.437 0H0V32L31.437 0Z" fill="white"/>
<path d="M31.437 0H0V32L31.437 0Z" fill="white"/>
<path d="M140.323 5.82422C135.706 5.82422 131.652 9.63106 131.652 14.3301V24.732H135.37V20.9475H145.275V24.732H148.993V14.3301C148.993 9.63106 144.939 5.82422 140.323 5.82422ZM145.275 17.1704H135.37V14.3376C135.37 11.7277 137.758 9.60875 140.323 9.60875C142.886 9.60875 145.275 11.7277 145.275 14.3376V17.1704Z" fill="white"/>
<path d="M191.717 5.82422C187.101 5.82422 183.047 9.63106 183.047 14.3301V24.732H186.764V20.9475H196.669V24.732H200.388V14.3301C200.388 9.63106 196.333 5.82422 191.717 5.82422ZM196.669 17.1704H186.764V14.3376C186.764 11.7277 189.153 9.60875 191.717 9.60875C194.281 9.60875 196.669 11.7277 196.669 14.3376V17.1704Z" fill="white"/>
<path d="M102.553 5.82422C97.4252 5.82422 93.2617 10.0549 93.2617 15.2819C93.2617 20.5014 97.418 24.7395 102.553 24.7395C107.681 24.7395 111.844 20.5088 111.844 15.2819C111.844 10.0549 107.681 5.82422 102.553 5.82422ZM102.553 20.9475C99.4778 20.9475 96.9797 18.4047 96.9797 15.2744C96.9797 12.1442 99.4778 9.60132 102.553 9.60132C105.628 9.60132 108.127 12.1442 108.127 15.2744C108.127 18.4121 105.628 20.9475 102.553 20.9475Z" fill="white"/>
<path d="M89.3264 14.2777C89.7866 13.4524 90.0495 12.5081 90.0495 11.4895C90.0495 8.35925 87.5515 5.81641 84.4763 5.81641H77.1719V24.7242H86.3389C89.4141 24.7242 91.9122 22.1813 91.9122 19.0511C91.9049 17.0511 90.875 15.2889 89.3264 14.2777ZM80.8825 9.60094H84.4763C85.4989 9.60094 86.3316 10.4486 86.3316 11.4895C86.3316 12.5304 85.4989 13.378 84.4763 13.378H80.8825V9.60094ZM86.3316 20.9471H80.8825V17.1625H86.3316C87.3542 17.1625 88.1869 18.0102 88.1869 19.0511C88.1869 20.092 87.3542 20.9471 86.3316 20.9471Z" fill="white"/>
<path d="M65.7053 5.82422C60.5776 5.82422 56.4141 10.0549 56.4141 15.2819C56.4141 20.5014 60.5703 24.7395 65.7053 24.7395C70.8402 24.7395 74.9965 20.5088 74.9965 15.2819C74.9965 10.0549 70.833 5.82422 65.7053 5.82422ZM65.7053 20.9475C62.6301 20.9475 60.132 18.4047 60.132 15.2744C60.132 12.1442 62.6301 9.60132 65.7053 9.60132C68.7804 9.60132 71.2786 12.1442 71.2786 15.2744C71.2786 18.4121 68.7804 20.9475 65.7053 20.9475Z" fill="white"/>
<path d="M160.739 13.423L160.76 13.3859H156.429C155.406 13.3859 154.574 12.5382 154.574 11.4973C154.574 10.4564 155.406 9.60875 156.429 9.60875H163.237L165.713 5.82422H156.421C153.346 5.82422 150.848 8.36707 150.848 11.4973C150.848 14.4267 153.025 16.8358 155.823 17.1332L155.801 17.1704H160.132C161.155 17.1704 161.987 18.018 161.987 19.0589C161.987 20.0999 161.155 20.9475 160.132 20.9475H153.324L150.848 24.732H160.14C163.214 24.732 165.713 22.1892 165.713 19.0589C165.713 16.1295 163.528 13.7204 160.739 13.423Z" fill="white"/>
<path d="M171.902 5.82422C168.827 5.82422 166.328 8.36707 166.328 11.4973C166.328 14.4267 168.506 16.8358 171.302 17.1332L171.281 17.1704H175.613C176.635 17.1704 177.468 18.018 177.468 19.0589C177.468 20.0999 176.635 20.9475 175.613 20.9475H168.805L166.328 24.732H175.62C178.695 24.732 181.193 22.1892 181.193 19.0589C181.193 16.1295 179.016 13.7204 176.218 13.423L176.241 13.3859H171.909C170.887 13.3859 170.054 12.5382 170.054 11.4973C170.054 10.4564 170.887 9.60875 171.909 9.60875H178.717L181.193 5.82422H171.902Z" fill="white"/>
<path d="M43.7297 24.732H40.0117V5.82422H48.7624C50.3256 5.82422 51.6696 6.36699 52.8018 7.45997C53.9558 8.56782 54.8543 10.1961 54.8762 11.8095C54.8909 13.2743 54.5475 14.4639 53.6345 15.5941C52.7652 16.6871 51.8814 17.5124 50.5374 17.8024L55.1829 24.732H50.8514L46.4834 18.1891C46.3081 17.9436 46.0306 17.8024 45.731 17.8024H43.7297V24.732ZM43.7297 14.3302H48.6821C50.048 14.3302 51.1583 13.1999 51.1583 11.8095C51.1583 10.4192 50.048 9.28904 48.6821 9.28904H43.7297V14.3302Z" fill="white"/>
<path d="M129.609 5.82422L122.012 14.055L129.799 24.7245H125.467L119.543 16.7242L118.039 18.5534V24.7172H114.32V5.82422H118.039V13.2818L124.737 5.82422H129.609Z" fill="white"/>
</g>
</svg>
