<svg width="159" height="50" viewBox="0 0 159 50" fill="none" xmlns="http://www.w3.org/2000/svg">
<g opacity="0.4" clip-path="url(#clip0_7251_9225)">
<mask id="mask0_7251_9225" style="mask-type:luminance" maskUnits="userSpaceOnUse" x="0" y="0" width="159" height="50">
<path d="M159 0H0V50H159V0Z" fill="white"/>
</mask>
<g mask="url(#mask0_7251_9225)">
<path d="M37.9238 41.3258L33.4523 33.6643L29.0735 41.3258H23.833L30.566 29.7846L23.7031 19.0703H29.1786L33.576 26.2238L37.7692 19.0703H43.0097L36.258 30.1332L43.1951 41.3258H37.9238Z" fill="white"/>
<path d="M60.2316 33.7612C60.2316 38.6507 56.6548 41.7097 51.969 41.7097C47.8457 41.7097 44.3597 39.3586 44.0195 34.2374H48.491C48.7982 36.4631 50.5258 37.4261 52.408 37.4261C54.752 37.4261 55.7622 35.8041 55.7622 33.7059C55.7622 31.5121 54.1912 30.1451 52.0019 30.1451C50.1815 30.1451 48.9796 31.0359 48.4251 31.9903H44.1494L45.6254 19.0801H59.6812L59.2132 23.404H49.157L48.759 27.6771C48.759 27.6771 49.8146 26.4015 53.0141 26.4015C56.8713 26.4015 60.2295 29.0716 60.2295 33.7782" fill="white"/>
<path d="M44.5483 16.299C42.1671 6.73257 34.6115 0 18.9313 0H0L2.57077 17.9188C4.50246 34.088 10.4995 39.29 21.1124 41.2053C21.1616 41.219 21.2133 41.2199 21.2629 41.2081C21.3125 41.1963 21.3586 41.1722 21.3971 41.1378C21.4355 41.1034 21.4652 41.0598 21.4836 41.0107C21.5018 40.9617 21.5082 40.9088 21.5021 40.8567C21.5026 40.7876 21.4833 40.7198 21.4467 40.662C21.41 40.6041 21.3575 40.5587 21.2959 40.5314C14.1218 37.4171 13.3033 27.2023 11.7716 16.9536L10.5861 8.78614H21.3928C31.3563 8.78614 39.0501 8.62457 43.9195 16.5562C43.9533 16.6129 44.0002 16.6602 44.0559 16.6941C44.1116 16.7278 44.1745 16.7469 44.239 16.7495C44.2831 16.7493 44.3266 16.74 44.367 16.7221C44.4075 16.7042 44.4441 16.6781 44.4746 16.6455C44.5053 16.6128 44.5292 16.5741 44.545 16.5317C44.5607 16.4894 44.5682 16.4442 44.5669 16.3988C44.5676 16.3649 44.5627 16.3312 44.5524 16.299" fill="white"/>
<path d="M85.9666 29.7336C85.9666 29.7336 87.0859 42.1103 74.9557 42.1103C68.5649 42.1103 63.6172 37.0614 63.6172 30.2055C63.6172 23.3496 68.5773 18.3008 75.1413 18.3008C80.1983 18.3008 84.2328 21.3024 85.7687 25.924H82.9278C81.5816 22.8883 78.6707 20.9071 75.1165 20.9071C70.0596 20.9071 66.3137 24.8696 66.3137 30.2821C66.3137 35.5308 69.8679 39.589 75.1165 39.589C79.5345 39.589 82.8948 36.6851 83.2804 32.0975H74.6568V29.759H85.9666V29.7336Z" fill="white"/>
<path d="M99.6012 23.296V26.1022C99.2288 26.0583 98.8544 26.0364 98.4796 26.0362C94.7977 26.0362 92.2373 28.5108 92.2373 33.1663V41.7463H89.582V23.5958H92.2373V27.6561C93.2929 24.95 95.406 23.2344 98.5106 23.2344C98.8751 23.2343 99.2392 23.2562 99.6012 23.3003" fill="white"/>
<path d="M119.04 32.6714C119.04 38.1178 115.039 42.1101 109.949 42.1101C104.89 42.1101 100.891 38.0838 100.891 32.6714C100.891 27.225 104.956 23.2305 109.949 23.2305C114.975 23.2305 119.04 27.225 119.04 32.6714ZM103.579 32.6714C103.579 36.6637 106.395 39.5038 109.949 39.5038C113.503 39.5038 116.34 36.6637 116.34 32.6714C116.34 28.6791 113.491 25.839 109.949 25.839C106.428 25.839 103.579 28.645 103.579 32.6714Z" fill="white"/>
<path d="M137.416 23.5977V41.7524H134.75V38.1534C133.567 40.53 131.518 42.1138 128.477 42.1138C124.573 42.1138 122.234 39.5394 122.234 35.1154V23.5977H124.89V34.5882C124.89 37.8238 126.364 39.5075 129.244 39.5075C132.734 39.5075 134.75 36.9331 134.75 32.9046V23.5977H137.408H137.416Z" fill="white"/>
<path d="M159.002 32.6723C159.002 38.1527 155.545 42.111 150.743 42.111C149.369 42.1392 148.012 41.779 146.822 41.0692C145.632 40.3595 144.652 39.3274 143.99 38.0847V50.0001H141.332V23.597H143.99V27.3258C144.65 26.069 145.632 25.023 146.829 24.3014C148.025 23.5799 149.39 23.2105 150.777 23.2334C155.545 23.2334 159.002 27.162 159.002 32.6744V32.6723ZM156.322 32.6744C156.322 28.7118 153.826 25.8419 150.271 25.8419C146.717 25.8419 143.968 28.6799 143.968 32.6744C143.968 36.6689 146.688 39.5068 150.271 39.5068C153.855 39.5068 156.322 36.6667 156.322 32.6744Z" fill="white"/>
</g>
</g>
<defs>
<clipPath id="clip0_7251_9225">
<rect width="159" height="50" fill="white"/>
</clipPath>
</defs>
</svg>
