<svg width="36" height="36" viewBox="0 0 36 36" fill="none" xmlns="http://www.w3.org/2000/svg">
<path fill-rule="evenodd" clip-rule="evenodd" d="M16.3476 8.30176C16.3718 8.36972 16.3857 8.44705 16.3857 8.52832V14.6631H15.7938C15.7845 14.6628 15.7751 14.6626 15.7656 14.6626C15.7562 14.6626 15.7468 14.6628 15.7374 14.6631H10.5366C10.5123 14.662 10.4879 14.662 10.4635 14.6631H9.8037V8.52832C9.8037 8.42011 9.82833 8.3189 9.86913 8.2373C9.87382 8.22793 9.87849 8.21854 9.8828 8.20898L10.456 6.93848C10.578 6.67046 10.87 6.48438 11.1494 6.48438H15.04C15.3542 6.48438 15.6096 6.65337 15.7285 6.92676L15.7324 6.93652L16.3066 8.20898C16.3109 8.21854 16.3156 8.22793 16.3203 8.2373L16.3476 8.30176ZM9.0039 16.2627H9.70019V30.6284C9.70022 30.9413 9.88256 31.2257 10.167 31.356C10.4514 31.4861 10.7856 31.4382 11.0225 31.2339L14.9658 27.8326V30.6284C14.9659 31.0702 15.3238 31.4282 15.7656 31.4282C16.2074 31.4282 16.5654 31.0702 16.5654 30.6284V16.2627H17.1855C17.6273 16.2627 17.9852 15.9046 17.9853 15.4629V12.2824L32.4971 10.0473V17.8064C31.707 17.8355 31.0791 18.4817 31.0791 19.2791V20.0769L31.0889 20.2683C31.1347 20.709 31.3425 21.1704 31.7627 21.4802L31.7617 21.4812L32.6601 22.1804L32.7705 22.2527C32.8867 22.3155 33.0179 22.3484 33.1514 22.3484H33.2012C33.2699 22.3484 33.338 22.3396 33.4037 22.3225C33.701 22.4021 33.9199 22.6738 33.9199 22.9961C33.9197 23.3805 33.608 23.6921 33.2236 23.6924C32.839 23.6924 32.5266 23.3806 32.5264 22.9961H30.9268C30.927 24.2643 31.9554 25.292 33.2236 25.292C34.4917 25.2918 35.5193 24.2641 35.5195 22.9961C35.5195 22.3269 35.2334 21.7245 34.7768 21.3047C35.0627 20.9938 35.2734 20.5702 35.2734 20.0769V19.2791C35.2734 18.5744 34.7734 17.9628 34.0967 17.8314V9.7442C34.8149 9.42707 35.2371 8.62944 35.0849 7.82983L35.0801 7.80542L35.0381 7.65308C34.8129 6.95248 34.1528 6.44384 33.3838 6.45093L33.2178 6.45972L33.2148 6.46069L17.9479 8.11507C17.9186 7.95448 17.8717 7.79567 17.8066 7.64258L17.751 7.52148L17.1914 6.27832C16.8093 5.41035 15.9694 4.88477 15.04 4.88477H11.1494C10.289 4.88477 9.48317 5.37888 9.07519 6.12402L8.99804 6.27832L8.42382 7.55078H8.42577C8.27646 7.86064 8.20409 8.19759 8.20409 8.52832V9.15722L2.25487 9.80273L2.23827 9.80469C1.2579 9.93256 0.511244 10.81 0.677726 11.8555L0.675773 11.8564L0.850578 13.1035C0.989999 14.1159 1.94047 14.7644 2.89843 14.6338L2.90503 14.633L2.91405 14.6318L8.20409 13.8026V15.4629C8.20425 15.9046 8.56217 16.2627 9.0039 16.2627ZM32.6787 19.405H33.2969H33.6728V20.0769C33.6728 20.1003 33.6595 20.164 33.5781 20.241L33.1758 20.5535L32.7441 20.2185L32.7119 20.1951L32.709 20.1921C32.7066 20.1893 32.7029 20.1827 32.6982 20.1726C32.6933 20.1619 32.688 20.1485 32.6846 20.1326L32.6787 20.0769V19.405ZM14.9658 20.3113V24.546L11.9053 22.3843L14.9658 20.3113ZM13.253 16.2627L14.9658 17.3504V16.2627H13.253ZM2.38866 11.4043L2.4453 11.3916L8.20116 10.7656V12.1836L2.6787 13.0488C2.61799 13.0561 2.55845 13.039 2.51171 13.0049C2.48866 12.988 2.47038 12.9695 2.458 12.9492L2.43554 12.8848V12.8818L2.26073 11.6348L2.25683 11.6084L2.25292 11.5664C2.25379 11.5274 2.26709 11.4981 2.28515 11.4746C2.30505 11.4488 2.33875 11.4209 2.38866 11.4043ZM17.9873 9.71948V10.6628L33.4287 8.28589H33.4316L33.458 8.27515C33.4681 8.26871 33.4795 8.25859 33.4902 8.24292C33.5097 8.21457 33.5177 8.17889 33.5127 8.1394C33.5042 8.11509 33.489 8.09108 33.4658 8.07397C33.4403 8.05527 33.4133 8.04877 33.3857 8.05151L17.9873 9.71948ZM11.2998 28.8813L14.4648 26.1509L11.2998 23.9155V28.8813ZM11.2998 20.8628L14.3047 18.8267L11.2998 16.9175V20.8628Z" fill="#1E65F4"/>
</svg>
