<svg width="36" height="36" viewBox="0 0 36 36" fill="none" xmlns="http://www.w3.org/2000/svg">
<path fill-rule="evenodd" clip-rule="evenodd" d="M24.8578 3.04103C26.7267 2.32448 28.8192 3.26222 29.5367 5.12606L29.5366 5.1261L29.5414 5.13804C29.7066 5.5474 29.781 5.97682 29.781 6.4178C29.781 7.43524 29.3458 8.41858 28.5858 9.10615C28.2922 9.36588 27.9575 9.58381 27.5798 9.75001C27.5407 9.76376 27.5004 9.77855 27.4589 9.79453L27.4578 9.79499L24.4642 10.9401C24.433 10.952 24.403 10.9658 24.3741 10.9811L18.0997 13.3832C18.274 12.8199 18.3689 12.2202 18.3689 11.5974C18.3689 9.68458 17.4838 7.97758 16.082 6.86587C15.9444 6.75583 15.804 6.65473 15.6616 6.56087L24.8573 3.04119L24.8578 3.04103ZM17.9839 15.1408C17.6569 15.2682 17.3339 15.3529 17.0147 15.4092C16.8204 15.6457 16.608 15.8666 16.3832 16.071V29.0518H23.7547V24.2661C23.7547 24.1597 23.7755 24.0581 23.8132 23.9653H22.5781C22.1363 23.9653 21.7781 23.6071 21.7781 23.1653C21.7781 22.7234 22.1363 22.3653 22.5781 22.3653H25.213C25.6548 22.3653 26.013 22.7234 26.013 23.1653C26.013 23.2717 25.9922 23.3732 25.9545 23.4661H27.5398C27.502 23.3732 27.4813 23.2717 27.4813 23.1653C27.4813 22.7234 27.8394 22.3653 28.2813 22.3653H30.9161C31.358 22.3653 31.7161 22.7234 31.7161 23.1653C31.7161 23.6071 31.358 23.9653 30.9161 23.9653H29.9253C29.963 24.0581 29.9838 24.1597 29.9838 24.2661V29.0518H33.4804C34.6441 29.0518 35.5888 29.9965 35.5888 31.1602V32.7032V32.7132L35.5888 32.7132C35.5744 33.8636 34.6405 34.8116 33.4804 34.8116H2.39436C1.23065 34.8116 0.28595 33.8669 0.28595 32.7032V31.1602C0.28595 29.9965 1.23065 29.0518 2.39436 29.0518H2.84471L7.14882 14.6822C6.60808 13.7777 6.30157 12.7192 6.30157 11.5974C6.30157 8.26805 9.00586 5.56376 12.3352 5.56376C12.7661 5.56376 13.1845 5.60845 13.5895 5.69261C13.7973 5.5783 14.0174 5.47537 14.2446 5.39001L24.285 1.54707L24.2854 1.54691C26.9803 0.513952 29.9924 1.86544 31.0276 4.54538C31.2757 5.16279 31.381 5.79604 31.381 6.4178C31.381 7.82944 30.8029 9.18952 29.7876 10.1725L29.2976 15.5631C29.2609 16.0928 29.0941 16.6216 28.7103 17.0248C28.4144 17.3356 28.0402 17.5188 27.6281 17.5926V20.377C27.6281 20.8189 27.27 21.177 26.8281 21.177C26.3863 21.177 26.0281 20.8189 26.0281 20.377V17.5719C25.0343 17.3458 24.2749 16.4926 24.2045 15.4317L24.2044 15.4306L24.0262 12.8275L17.9839 15.1408ZM8.68309 14.1071C8.82527 14.3163 8.98505 14.5125 9.1603 14.6937C9.96387 15.5198 11.0901 16.031 12.3352 16.031C13.3589 16.031 14.3007 15.6833 15.0537 15.1019L15.0811 15.08C15.0876 15.0748 15.0943 15.0696 15.1009 15.0645C15.4068 14.8144 15.6786 14.5357 15.9006 14.2373C15.9097 14.223 15.9192 14.209 15.9292 14.1952C16.4533 13.4736 16.7601 12.5732 16.7601 11.6063C16.7601 10.1996 16.1032 8.93852 15.0786 8.12805L15.0752 8.12533L15.0752 8.12532C14.8535 7.94797 14.6105 7.79464 14.3386 7.65046C14.0782 7.51692 13.7966 7.40962 13.4899 7.32311C13.4546 7.31317 13.4204 7.30093 13.3874 7.28656C13.0484 7.20639 12.698 7.16376 12.3352 7.16376C9.88952 7.16376 7.90158 9.1517 7.90158 11.5974C7.90158 12.5093 8.17548 13.3582 8.64822 14.0597C8.66036 14.075 8.67199 14.0908 8.68309 14.1071ZM25.589 12.2294L28.0245 11.2978L28.0245 11.2978L28.0335 11.2942L28.0808 11.2753L27.7033 15.4275L27.7017 15.4473C27.6828 15.7351 27.603 15.8674 27.5514 15.9217C27.512 15.963 27.4233 16.0307 27.1864 16.0307H26.5547C26.1542 16.0307 25.8273 15.7252 25.8009 15.3253L25.8008 15.3233L25.589 12.2294ZM4.51494 29.0518H14.7832V17.1191C14.035 17.451 13.2082 17.6334 12.3497 17.6398L12.3437 17.6398C10.827 17.6398 9.43782 17.0807 8.37784 16.1552L4.51494 29.0518ZM2.39436 30.6518H3.31793C3.35721 30.6577 3.39717 30.6608 3.43751 30.6608H15.5832C15.6241 30.6608 15.6642 30.6577 15.7034 30.6518H24.435C24.4741 30.6577 24.514 30.6607 24.5547 30.6607H29.1838C29.2244 30.6607 29.2644 30.6577 29.3035 30.6518H33.4804C33.7605 30.6518 33.9888 30.8802 33.9888 31.1602V32.697C33.9831 32.9886 33.7449 33.2116 33.4804 33.2116H2.39436C2.11431 33.2116 1.88595 32.9833 1.88595 32.7032V31.1602C1.88595 30.8802 2.11431 30.6518 2.39436 30.6518ZM28.3838 25.0661V29.0518H25.3547V25.0661H28.3838ZM11.1242 11.5972C11.1242 10.9227 11.671 10.3759 12.3455 10.3759C13.02 10.3759 13.5668 10.9227 13.5668 11.5972C13.5668 12.2717 13.02 12.8185 12.3455 12.8185C11.671 12.8185 11.1242 12.2717 11.1242 11.5972ZM12.3455 8.77592C10.7874 8.77592 9.52423 10.039 9.52423 11.5972C9.52423 13.1553 10.7874 14.4185 12.3455 14.4185C13.9036 14.4185 15.1668 13.1553 15.1668 11.5972C15.1668 10.039 13.9036 8.77592 12.3455 8.77592ZM25.9705 5.14227C25.296 5.14227 24.7492 5.68905 24.7492 6.36354C24.7492 7.03803 25.296 7.58481 25.9705 7.58481C26.645 7.58481 27.1918 7.03803 27.1918 6.36354C27.1918 5.68906 26.645 5.14227 25.9705 5.14227ZM23.1492 6.36354C23.1492 4.8054 24.4124 3.54227 25.9705 3.54227C27.5286 3.54227 28.7918 4.8054 28.7918 6.36354C28.7918 7.92169 27.5286 9.18481 25.9705 9.18481C24.4124 9.18481 23.1492 7.92169 23.1492 6.36354ZM30.6188 19.142C30.932 19.4536 30.9334 19.9601 30.6218 20.2734L28.9344 21.9698C28.6228 22.2831 28.1163 22.2844 27.803 21.9728C27.4898 21.6612 27.4884 21.1547 27.8 20.8415L29.4874 19.145C29.799 18.8318 30.3055 18.8304 30.6188 19.142ZM24.0149 19.1435C23.7025 18.8311 23.196 18.8311 22.8835 19.1435C22.5711 19.456 22.5711 19.9625 22.8835 20.2749L24.58 21.9713C24.8924 22.2837 25.3989 22.2837 25.7113 21.9713C26.0238 21.6589 26.0238 21.1524 25.7113 20.84L24.0149 19.1435Z" fill="#1E65F4"/>
</svg>
