<svg width="36" height="36" viewBox="0 0 36 36" fill="none" xmlns="http://www.w3.org/2000/svg">
<path fill-rule="evenodd" clip-rule="evenodd" d="M5.01122 1.70784C5.11454 1.27826 5.54653 1.01377 5.97611 1.11709L16.2537 3.58893C16.6662 2.97478 17.3789 2.57001 18.1853 2.57001C19.3257 2.57001 20.291 3.46932 20.4405 4.58912L31.3289 7.20234C31.7585 7.30545 32.0232 7.73732 31.9201 8.16695C31.817 8.59657 31.3851 8.86127 30.9555 8.75816L30.7202 8.70169L34.8519 15.0099C35.0939 15.3795 34.9906 15.8753 34.621 16.1174C34.614 16.122 34.607 16.1264 34.6 16.1307C34.802 16.273 34.9353 16.5066 34.9396 16.7721C34.993 20.0847 32.3201 22.7482 29.0226 22.7482C25.7225 22.7482 23.0594 20.0851 23.0594 16.785C23.0594 16.4962 23.2125 16.2431 23.4419 16.1024C23.0915 15.8562 22.9962 15.3748 23.2313 15.0126L27.7851 7.99727L20.0982 6.15242C19.6958 6.78431 18.984 7.21261 18.1853 7.21261C16.9991 7.21261 16.006 6.29915 15.878 5.14418L9.29762 3.56156L13.372 9.80162C13.6136 10.1716 13.5095 10.6673 13.1395 10.9088C13.128 10.9164 13.1164 10.9236 13.1046 10.9304C13.3424 11.0691 13.5022 11.3269 13.5022 11.622C13.5022 14.9173 10.8437 17.5852 7.58506 17.5852C4.28503 17.5852 1.62185 14.922 1.62185 11.622C1.62185 11.3269 1.78163 11.0691 2.0194 10.9304C2.00671 10.923 1.99414 10.9152 1.98173 10.907C1.61277 10.664 1.51073 10.1678 1.75381 9.79887L6.33286 2.84851L5.60197 2.67273C5.17239 2.56941 4.9079 2.13742 5.01122 1.70784ZM24.4956 15.985H33.5894C33.562 15.9547 33.5365 15.9218 33.5134 15.8865L29.0224 9.02976L24.5733 15.8838C24.5498 15.9201 24.5237 15.9539 24.4956 15.985ZM2.96998 10.822H12.154C12.1088 10.7793 12.0678 10.7307 12.0323 10.6764L7.58206 3.86067L3.0899 10.6791C3.05482 10.7324 3.01446 10.7801 2.96998 10.822ZM17.465 4.80066L17.4645 4.81383C17.4641 4.8328 17.464 4.85461 17.464 4.89131C17.464 5.27928 17.7974 5.61261 18.1853 5.61261C18.4755 5.61261 18.7418 5.40104 18.8208 5.13687C18.8244 5.10055 18.8305 5.06404 18.8393 5.02755C18.8452 5.00278 18.8522 4.97856 18.8603 4.95493C18.8605 4.93886 18.8605 4.91947 18.8605 4.89131C18.8605 4.48737 18.5114 4.17001 18.1853 4.17001C17.8423 4.17001 17.5861 4.38834 17.5066 4.63684C17.5031 4.66109 17.4984 4.68539 17.4926 4.70968C17.4851 4.74091 17.4758 4.77126 17.465 4.80066ZM17.9336 7.83173C18.3754 7.83173 18.7336 8.1899 18.7336 8.63173V24.9819H25.4649C27.5663 24.9819 29.2614 26.6769 29.2614 28.7784V28.9929H29.2995C31.3088 28.9929 32.9577 30.6418 32.9577 32.6511V33.1582C32.9577 33.6 32.5996 33.9582 32.1577 33.9582H3.89842C3.45659 33.9582 3.09842 33.6 3.09842 33.1582V32.6511C3.09842 30.6418 4.74739 28.9929 6.75662 28.9929L6.7781 28.9931V28.7784C6.7781 26.6769 8.47318 24.9819 10.5746 24.9819H17.1336L17.1336 8.63173C17.1336 8.1899 17.4917 7.83173 17.9336 7.83173ZM17.9336 26.6646C17.8062 26.6646 17.6857 26.6349 17.5788 26.5819H10.5746C9.35683 26.5819 8.3781 27.5606 8.3781 28.7784V29.7926C8.3781 30.2344 8.01993 30.5926 7.5781 30.5926C7.42803 30.5926 7.28761 30.5513 7.16759 30.4794C7.04748 30.5514 6.90689 30.5929 6.75662 30.5929C5.73035 30.5929 4.86448 31.3682 4.71969 32.3582H31.3365C31.1917 31.3682 30.3258 30.5929 29.2995 30.5929H14.1326L14.1112 30.5926H12.7913C12.3495 30.5926 11.9913 30.2344 11.9913 29.7926C11.9913 29.3507 12.3495 28.9926 12.7913 28.9926H27.6614V28.7784C27.6614 27.5606 26.6827 26.5819 25.4649 26.5819H18.2884C18.1814 26.6349 18.061 26.6646 17.9336 26.6646ZM7.58506 15.9852C5.44207 15.9852 3.6684 14.4539 3.29448 12.422H11.8297C11.456 14.457 9.68345 15.9852 7.58506 15.9852ZM29.0226 21.1483C26.8796 21.1483 25.1059 19.617 24.732 17.585H33.2808C32.9393 19.6127 31.171 21.1483 29.0226 21.1483Z" fill="#1E65F4"/>
</svg>
