<svg width="36" height="36" viewBox="0 0 36 36" fill="none" xmlns="http://www.w3.org/2000/svg">
<path fill-rule="evenodd" clip-rule="evenodd" d="M6.09017 6.43398C5.33062 6.43398 4.69454 7.07006 4.69454 7.82961V27.0103C4.69454 27.7698 5.33062 28.4059 6.09017 28.4059H25.9337C26.6583 28.4059 27.2705 27.827 27.3253 27.1142L27.2382 27.0011C27.0724 26.7849 26.8363 26.4733 26.5533 26.0894C25.9878 25.3223 25.2323 24.2627 24.4754 23.0958C23.7203 21.9317 22.9541 20.646 22.3738 19.4291C21.8073 18.2411 21.3638 17.0101 21.3638 15.9907C21.3638 12.5471 23.9522 9.66878 27.3293 9.27191V7.82961C27.3293 7.07976 26.703 6.43398 25.8922 6.43398H19.3189V10.9602C19.3716 12.2585 18.3242 13.2694 17.069 13.2694H14.9562C13.6859 13.2694 12.6649 12.2484 12.6649 10.9781V6.43398H6.09017ZM14.2649 6.43398H17.7189V10.9781C17.7189 10.9914 17.7193 11.0047 17.7199 11.018C17.7373 11.3662 17.4638 11.6694 17.069 11.6694H14.9562C14.5695 11.6694 14.2649 11.3648 14.2649 10.9781V6.43398ZM25.8922 4.83398H18.5189H13.4649H6.09017C4.44696 4.83398 3.09454 6.1864 3.09454 7.82961V27.0103C3.09454 28.6535 4.44696 30.0059 6.09017 30.0059H25.9337C27.5397 30.0059 28.8679 28.714 28.9272 27.1214L29.0218 26.9979C29.1875 26.7808 29.4236 26.4679 29.7066 26.0824C30.2719 25.3122 31.0272 24.2489 31.7839 23.0797C32.5388 21.9133 33.3048 20.6267 33.8848 19.4122C34.4506 18.2276 34.895 17.0009 34.895 15.9908C34.895 12.5051 32.2694 9.66735 28.9293 9.27234V7.82961C28.9293 6.1767 27.5671 4.83398 25.8922 4.83398ZM28.4168 25.1356C28.3137 25.276 28.217 25.4065 28.128 25.5259C28.0396 25.4078 27.9437 25.2789 27.8414 25.1401C27.2884 24.3899 26.5525 23.3575 25.818 22.2252C25.0817 21.0901 24.3566 19.8694 23.8183 18.7406C23.2662 17.5828 22.9641 16.6285 22.9641 15.9908C22.9641 13.1563 25.2608 10.8253 28.1296 10.8253C30.9641 10.8253 33.295 13.1221 33.295 15.9908C33.295 16.6171 32.9938 17.5653 32.441 18.7226C31.9026 19.8501 31.1771 21.0724 30.4407 22.2104C29.706 23.3455 28.9699 24.382 28.4168 25.1356ZM26.3197 15.8665C26.3197 14.8584 27.1214 14.0566 28.1296 14.0566C28.5123 14.0566 28.8654 14.1722 29.156 14.3708C29.2433 14.4315 29.3265 14.5008 29.4043 14.5786C29.7963 14.9706 29.9709 15.4977 29.9281 16.01C29.8548 16.6601 29.4669 17.1967 28.9422 17.4735C28.2631 17.8175 27.4123 17.7057 26.8447 17.1381C26.648 16.9414 26.506 16.7106 26.4188 16.4648C26.3545 16.2779 26.3197 16.0767 26.3197 15.8665ZM25.7134 13.4472C26.9035 12.2571 28.7545 12.1306 30.0851 13.0678C30.9661 13.6825 31.5394 14.704 31.5394 15.8665L31.5393 15.8813L31.5391 15.8894C31.5365 15.9805 31.5305 16.0708 31.5211 16.1601C31.4531 16.9296 31.1247 17.6805 30.5357 18.2695C30.3108 18.4944 30.0623 18.6813 29.7982 18.8302C29.3061 19.1139 28.7375 19.2764 28.1296 19.2764C26.6271 19.2764 25.3604 18.3189 24.9026 16.9771C24.4885 15.7817 24.7587 14.4019 25.7134 13.4472ZM7.53907 21.6948C7.09725 21.6948 6.73907 22.053 6.73907 22.4948C6.73907 22.9367 7.09725 23.2948 7.53907 23.2948H13.7945C14.2364 23.2948 14.5945 22.9367 14.5945 22.4948C14.5945 22.053 14.2364 21.6948 13.7945 21.6948H7.53907ZM6.73907 19.5122C6.73907 19.0703 7.09725 18.7122 7.53907 18.7122H11.5161C11.9579 18.7122 12.3161 19.0703 12.3161 19.5122C12.3161 19.954 11.9579 20.3122 11.5161 20.3122H7.53907C7.09725 20.3122 6.73907 19.954 6.73907 19.5122ZM7.53907 24.9673C7.09725 24.9673 6.73907 25.3255 6.73907 25.7673C6.73907 26.2091 7.09725 26.5673 7.53907 26.5673H14.8302C15.272 26.5673 15.6302 26.2091 15.6302 25.7673C15.6302 25.3255 15.272 24.9673 14.8302 24.9673H7.53907Z" fill="#1E65F4"/>
</svg>
