<svg width="114" height="35" viewBox="0 0 114 35" fill="none" xmlns="http://www.w3.org/2000/svg">
<path d="M75.125 34.8349L85.9134 0H102.81L113.549 34.8349H101.135L94.3864 9.45519H94.1401L87.2927 34.8349H75.125ZM82.3665 28.8632L85.1744 19.9057H103.5L106.308 28.8632H82.3665Z" fill="#ABB1C3"/>
<path d="M41.6094 34.8349V0H55.8953C59.8363 0 63.2846 0.746463 66.2404 2.23939C69.2289 3.69914 71.5278 5.75606 73.137 8.41014C74.7791 11.0311 75.6001 14.0335 75.6001 17.4175C75.6001 20.8014 74.7791 23.8204 73.137 26.4745C71.5278 29.0954 69.2289 31.1524 66.2404 32.6453C63.2846 34.105 59.8363 34.8349 55.8953 34.8349H41.6094Z" fill="#ABB1C3"/>
<path d="M59.8281 15.065L59.8281 17.7285L57.1914 17.7285L57.1914 15.065L59.8281 15.065Z" fill="white"/>
<path d="M62.4688 17.729L62.4688 20.3926L59.8321 20.3926L59.8321 17.729L62.4688 17.729Z" fill="white"/>
<path d="M65.1016 15.065L65.1016 17.7285L62.4649 17.7285L62.4649 15.065L65.1016 15.065Z" fill="white"/>
<path d="M70.375 15.065L70.375 17.7285L67.7383 17.7285L67.7383 15.065L70.375 15.065Z" fill="white"/>
<path d="M75.6484 15.065L75.6484 17.7285L73.0118 17.7285L73.0118 15.065L75.6484 15.065Z" fill="white"/>
<path d="M67.7344 17.729L67.7344 20.3926L65.0977 20.3926L65.0977 17.729L67.7344 17.729Z" fill="white"/>
<path d="M73.0078 17.729L73.0078 20.3926L70.3711 20.3926L70.3711 17.729L73.0078 17.729Z" fill="white"/>
<path d="M51.0313 15.0654L55.5863 15.0653L55.5863 26.6542L51.0313 26.6543L51.0313 15.0654ZM52.0034 18.8793L54.6401 18.8793L54.6401 16.2158L52.0034 16.2158L52.0034 18.8793Z" fill="white"/>
<path d="M0 34.8349V0H11.7243L23.8921 17.6663H24.1384V0H35.7149V34.8349H23.9906L11.8229 17.1686H11.5766V34.8349H0Z" fill="#ABB1C3"/>
</svg>
