<svg width="36" height="36" viewBox="0 0 36 36" fill="none" xmlns="http://www.w3.org/2000/svg">
<path fill-rule="evenodd" clip-rule="evenodd" d="M18.8012 3.09883C18.8012 2.657 18.4431 2.29883 18.0012 2.29883C17.5594 2.29883 17.2012 2.657 17.2012 3.09883V6.06586C17.2012 6.50769 17.5594 6.86586 18.0012 6.86586C18.4431 6.86586 18.8012 6.50769 18.8012 6.06586V3.09883ZM6.91907 6.63754C7.23149 6.32512 7.73803 6.32512 8.05044 6.63754L10.3911 8.9782C10.7035 9.29062 10.7035 9.79715 10.3911 10.1096C10.0787 10.422 9.57215 10.422 9.25973 10.1096L6.91907 7.76891C6.60665 7.45649 6.60665 6.94996 6.91907 6.63754ZM17.2 12.4776V11.3495H16.2187C15.7769 11.3495 15.4187 10.9913 15.4187 10.5495C15.4187 10.1077 15.7769 9.74951 16.2187 9.74951H18H19.7792C20.221 9.74951 20.5792 10.1077 20.5792 10.5495C20.5792 10.9913 20.221 11.3495 19.7792 11.3495H18.8V12.4777C25.3628 12.8904 30.5512 18.338 30.5681 25.0034L30.5681 25.0054V25.368C30.5681 25.8098 30.2099 26.168 29.7681 26.168H26.3009V27.7495H29.3587C29.6808 27.7495 29.9715 27.9427 30.0963 28.2396L31.5386 31.6724H32.4245C32.8663 31.6724 33.2245 32.0305 33.2245 32.4724C33.2245 32.9142 32.8663 33.2724 32.4245 33.2724H31.0262L31.0071 33.2726H4.99609L4.97701 33.2724H3.19922C2.75739 33.2724 2.39922 32.9142 2.39922 32.4724C2.39922 32.0305 2.75739 31.6724 3.19922 31.6724H4.46457L5.9069 28.2396C6.03167 27.9427 6.32235 27.7495 6.64444 27.7495H9.68437V26.168H6.24609C5.80426 26.168 5.44609 25.8098 5.44609 25.368V25.0054C5.44609 18.3374 10.6364 12.8892 17.2 12.4776ZM17.9838 14.0526L18 14.0528L18.0161 14.0527C23.9134 14.0617 28.714 18.7231 28.9583 24.568H7.05465C7.28374 18.7234 12.0845 14.0606 17.9838 14.0526ZM28.8271 29.3495L29.8031 31.6724H6.20007L7.17606 29.3495H28.8271ZM11.2844 26.1681V27.7494H24.7009V26.1681H11.2844ZM2.90234 17.2494C2.46051 17.2494 2.10234 17.6075 2.10234 18.0494C2.10234 18.4912 2.46051 18.8494 2.90234 18.8494H6.23201C6.67384 18.8494 7.03201 18.4912 7.03201 18.0494C7.03201 17.6075 6.67384 17.2494 6.23201 17.2494H2.90234ZM28.9184 18.0495C28.9184 17.6076 29.2766 17.2495 29.7184 17.2495H33.0481C33.4899 17.2495 33.8481 17.6076 33.8481 18.0495C33.8481 18.4913 33.4899 18.8495 33.0481 18.8495H29.7184C29.2766 18.8495 28.9184 18.4913 28.9184 18.0495ZM29.0313 7.76901C29.3438 7.45659 29.3438 6.95005 29.0313 6.63764C28.7189 6.32522 28.2124 6.32522 27.9 6.63764L25.5593 8.97829C25.2469 9.29071 25.2469 9.79725 25.5593 10.1097C25.8717 10.4221 26.3783 10.4221 26.6907 10.1097L29.0313 7.76901Z" fill="#1E65F4"/>
</svg>
