<svg width="36" height="36" viewBox="0 0 36 36" fill="none" xmlns="http://www.w3.org/2000/svg">
<path fill-rule="evenodd" clip-rule="evenodd" d="M25.6051 1.14522C25.8737 0.794421 26.3759 0.727796 26.7267 0.996407C29.5402 3.15074 31.3609 6.34982 31.3609 9.97065C31.3609 13.6239 29.5077 16.8549 26.6459 19.0093C26.2929 19.275 25.7913 19.2043 25.5256 18.8513C25.2599 18.4983 25.3306 17.9967 25.6836 17.731C28.1999 15.8367 29.7609 13.0551 29.7609 9.97065C29.7609 6.91418 28.2279 4.1611 25.7539 2.26676C25.4031 1.99815 25.3365 1.49602 25.6051 1.14522ZM10.3069 2.26676C10.6577 1.99815 10.7243 1.49602 10.4557 1.14522C10.1871 0.794421 9.68499 0.727796 9.33419 0.996407C6.52069 3.15074 4.69995 6.34982 4.69995 9.97065C4.69995 13.6235 6.55266 16.8538 9.39811 19.008C9.75037 19.2747 10.2521 19.2053 10.5188 18.853C10.7855 18.5008 10.7161 17.999 10.3639 17.7323C7.86142 15.8378 6.29995 13.0555 6.29995 9.97065C6.29995 6.91418 7.83297 4.1611 10.3069 2.26676ZM17.9751 12.4167C17.9601 12.417 17.945 12.4172 17.9299 12.4172C17.9268 12.4172 17.9237 12.4172 17.9206 12.4172L15.6873 17.924L17.95 19.6763L20.2087 17.9242L17.9751 12.4167ZM15.0627 19.464L16.6445 20.689L13.6119 23.0415L15.0627 19.464ZM9.63896 32.8377L12.2471 26.4068L16.381 28.8526L9.63896 32.8377ZM13.4007 25.2303L17.9528 27.9235L22.509 25.2305L17.9509 21.7006L13.4007 25.2303ZM8.41484 35.4198L17.9525 29.7823L27.4807 35.4197C27.7761 35.5944 28.1501 35.5613 28.4101 35.3374C28.6702 35.1134 28.7584 34.7485 28.6295 34.4305L20.6759 14.8191C20.892 14.862 21.1248 14.8159 21.3144 14.6727C22.7875 13.5592 23.747 11.884 23.747 9.97065C23.747 8.07037 22.786 6.41418 21.3518 5.30438C21.0024 5.03399 20.4999 5.09807 20.2295 5.44749C19.9591 5.79692 20.0232 6.29939 20.3726 6.56978C21.4764 7.4239 22.147 8.63804 22.147 9.97065C22.147 11.3204 21.4749 12.5457 20.3496 13.3962C20.2796 13.4492 20.2207 13.5114 20.1734 13.5799L19.4487 11.7929C19.8444 11.4015 20.0895 10.8582 20.0895 10.2576C20.0895 9.06484 19.1226 8.09794 17.9299 8.09794C16.7372 8.09794 15.7703 9.06484 15.7703 10.2576C15.7703 10.8711 16.0261 11.4249 16.437 11.8181L15.771 13.4603C15.7477 13.4377 15.7227 13.4163 15.6961 13.3962C14.5709 12.5457 13.8988 11.3204 13.8988 9.97065C13.8988 8.63804 14.5693 7.4239 15.6731 6.56978C16.0226 6.29939 16.0866 5.79692 15.8162 5.44749C15.5458 5.09807 15.0434 5.03399 14.694 5.30438C13.2598 6.41418 12.2988 8.07036 12.2988 9.97065C12.2988 11.884 13.2582 13.5592 14.7314 14.6727C14.8759 14.7819 15.0455 14.8346 15.2137 14.8345L7.26641 34.4305C7.13745 34.7485 7.22564 35.1133 7.48562 35.3373C7.74559 35.5612 8.11944 35.5945 8.41484 35.4198ZM23.6516 26.4137L19.5243 28.8532L26.2563 32.8362L23.6516 26.4137ZM19.2564 20.6879L22.2787 23.0285L20.8334 19.4646L19.2564 20.6879ZM12.9324 3.72737C13.2016 4.07768 13.1359 4.57993 12.7856 4.84918C11.1252 6.12533 10.1069 7.95779 10.1069 9.98576C10.1069 12.0292 11.1403 13.8879 12.8226 15.1462C13.1764 15.4109 13.2487 15.9122 12.984 16.266C12.7194 16.6198 12.2181 16.6921 11.8643 16.4275C9.8302 14.9061 8.50692 12.5952 8.50692 9.98576C8.50692 7.39098 9.81507 5.11434 11.8106 3.58059C12.1609 3.31134 12.6632 3.37706 12.9324 3.72737ZM24.2503 3.58059C23.8999 3.31134 23.3977 3.37706 23.1284 3.72737C22.8592 4.07768 22.9249 4.57993 23.2752 4.84918C24.9356 6.12533 25.9539 7.95779 25.9539 9.98576C25.9539 12.0292 24.9205 13.8879 23.2383 15.1462C22.8844 15.4109 22.8122 15.9122 23.0768 16.266C23.3414 16.6198 23.8428 16.6921 24.1966 16.4275C26.2306 14.9061 27.5539 12.5952 27.5539 9.98576C27.5539 7.39098 26.2458 5.11434 24.2503 3.58059Z" fill="#1E65F4"/>
</svg>
