<svg width="28" height="28" viewBox="0 0 28 28" fill="none" xmlns="http://www.w3.org/2000/svg">
<path d="M3.03746 12.8713L15.5465 7.677C16.7813 7.13593 20.9688 5.4045 20.9688 5.4045C20.9688 5.4045 22.9016 4.64699 22.7405 6.48664C22.6867 7.24414 22.2573 9.89537 21.8278 12.7631L20.4856 21.2579C20.4856 21.2579 20.3782 22.5024 19.4656 22.7188C18.5529 22.9352 17.0496 21.9614 16.7813 21.7449C16.5665 21.5826 12.7548 19.1477 11.3589 17.9574C10.9831 17.6327 10.5536 16.9835 11.4125 16.2259C13.3453 14.4404 15.6538 12.222 17.0496 10.8153C17.6939 10.1659 18.3382 8.65093 15.6538 10.4905L8.08404 15.6307C8.08404 15.6307 7.22505 16.1718 5.61442 15.6849C4.00382 15.1979 2.12478 14.5486 2.12478 14.5486C2.12478 14.5486 0.836302 13.7371 3.03746 12.8713Z" fill="white"/>
</svg>
