<svg width="26" height="26" viewBox="0 0 26 26" fill="none" xmlns="http://www.w3.org/2000/svg">
<path d="M5.23984 20.802C2.94527 18.5064 3.20131 15.5112 5.92229 12.7871L14.3517 4.38469C14.5708 4.16551 15.3831 3.42801 16.5922 3.18286C17.4237 3.01511 18.6515 3.05146 19.7812 4.18109L19.7838 4.18369C20.9399 5.33981 21.0136 6.52189 20.8718 7.31082C20.6677 8.44564 19.9385 9.27456 19.6347 9.57839L11.1591 18.0291C10.8464 18.3417 10.1126 19.0766 9.12889 19.1016C8.52798 19.1166 7.96654 18.8678 7.46171 18.363L7.45859 18.3599C6.50607 17.4074 6.692 16.083 7.95511 14.8178L16.3783 6.38634L17.3697 7.37574L8.94659 15.8072C7.97744 16.7774 8.33477 17.1524 8.49681 17.3144L8.50253 17.3201C8.73624 17.5538 8.95853 17.6691 9.16524 17.6639C9.55321 17.6541 9.96819 17.2381 10.1681 17.0381L18.6448 8.58639C18.8458 8.38539 19.3283 7.84058 19.4566 7.12644C19.5771 6.45957 19.3361 5.81971 18.7414 5.22503L18.7398 5.22347C18.1753 4.65891 17.5261 4.44597 16.8083 4.5914C16.1757 4.71916 15.6231 5.09414 15.3416 5.37564L6.91221 13.778C5.67871 15.0126 3.95544 17.4328 6.28118 19.7596C8.44228 21.9207 10.6932 20.5776 12.2004 19.0704L19.1538 12.0755L20.1473 13.0628L13.193 20.0588C10.4289 22.8228 7.53078 23.0929 5.23984 20.802Z" fill="#6C789C"/>
</svg>
