<svg width="23" height="23" viewBox="0 0 23 23" fill="none" xmlns="http://www.w3.org/2000/svg">
<path d="M11.4723 22.345H11.4678C9.643 22.3443 7.84999 21.8865 6.2575 21.0179L0.47768 22.5341L2.02446 16.8843C1.07033 15.2307 0.568273 13.3551 0.569091 11.4335C0.571483 5.42205 5.46255 0.53125 11.4722 0.53125C14.3888 0.532509 17.1263 1.66796 19.1848 3.72885C21.2433 5.78963 22.3763 8.52891 22.3752 11.4421C22.3727 17.4522 17.4836 22.3425 11.4723 22.345ZM6.52529 19.0441L6.8562 19.2405C8.24756 20.0661 9.84247 20.503 11.4686 20.5036H11.4723C16.467 20.5036 20.5323 16.4383 20.5343 11.4415C20.5352 9.02006 19.5935 6.74328 17.8826 5.03035C16.1716 3.31742 13.8963 2.37363 11.4758 2.37279C6.47721 2.37279 2.41192 6.43771 2.40994 11.4341C2.40924 13.1465 2.88834 14.8141 3.79547 16.2569L4.01094 16.5997L3.09547 19.9438L6.52529 19.0441ZM16.9651 14.0348C16.897 13.9212 16.7154 13.853 16.443 13.7166C16.1706 13.5802 14.8312 12.9212 14.5814 12.8302C14.3318 12.7394 14.1501 12.694 13.9685 12.9666C13.7869 13.2393 13.2648 13.853 13.1059 14.0348C12.947 14.2166 12.788 14.2394 12.5157 14.103C12.2433 13.9666 11.3655 13.679 10.3249 12.7508C9.51501 12.0284 8.96826 11.1363 8.80935 10.8636C8.65043 10.5908 8.79241 10.4435 8.92879 10.3076C9.05135 10.1855 9.20124 9.98934 9.33744 9.83031C9.47365 9.67128 9.51905 9.55757 9.60986 9.37588C9.70066 9.19398 9.65527 9.03495 9.58715 8.89858C9.51905 8.76221 8.97422 7.42126 8.7472 6.87577C8.52605 6.34455 8.30147 6.41652 8.13426 6.40813C7.97553 6.40015 7.79372 6.39848 7.61212 6.39848C7.43052 6.39848 7.13536 6.46666 6.88565 6.7394C6.63594 7.01215 5.93217 7.67124 5.93217 9.01209C5.93217 10.353 6.90834 11.6485 7.04456 11.8303C7.18077 12.0122 8.96556 14.7638 11.6984 15.9438C12.3484 16.2245 12.8558 16.3921 13.2515 16.5177C13.9041 16.7251 14.498 16.6958 14.9674 16.6256C15.4908 16.5474 16.5792 15.9667 16.8063 15.3303C17.0332 14.6938 17.0332 14.1484 16.9651 14.0348Z" fill="white"/>
</svg>
