<svg width="358" height="316" viewBox="0 0 358 316" fill="none" xmlns="http://www.w3.org/2000/svg">
<path d="M232.709 148.079C233.067 148.696 233.726 149.076 234.44 149.076H355.069C356.609 149.076 357.571 150.744 356.8 152.078L262.562 314.993C261.792 316.323 259.872 316.324 259.101 314.995L237.747 278.181C236.975 276.851 235.054 276.853 234.285 278.185L213.033 315.009C212.264 316.342 210.341 316.343 209.57 315.012L124.363 167.93C124.005 167.313 123.346 166.933 122.632 166.933H68.7175C68.717 166.933 68.7166 166.933 68.7163 166.933C68.716 166.933 68.7156 166.934 68.7151 166.934H2.00355C0.46321 166.934 -0.498946 165.265 0.272327 163.932L94.5113 1.01712C95.281 -0.313401 97.2014 -0.314519 97.9726 1.0151L119.324 37.8273C120.096 39.1576 122.018 39.1556 122.787 37.8236L144.04 1.00049C144.809 -0.331915 146.731 -0.33347 147.502 0.997697L232.709 148.079ZM246.906 256.34C246.547 256.96 246.547 257.725 246.907 258.345L259.079 279.332C259.85 280.661 261.771 280.66 262.54 279.33L325.82 169.934C326.592 168.601 325.63 166.933 324.089 166.933H299.827C299.113 166.933 298.454 167.313 298.096 167.93L246.906 256.34ZM209.541 279.303C210.312 280.634 212.234 280.633 213.003 279.3L225.666 257.359C225.667 257.358 225.667 257.355 225.666 257.354L225.666 257.353C225.665 257.352 225.665 257.351 225.666 257.35C225.666 257.349 225.666 257.348 225.665 257.347L173.316 166.935C173.316 166.934 173.315 166.934 173.314 166.934H173.313C173.313 166.934 173.312 166.933 173.312 166.933C173.312 166.933 173.311 166.933 173.311 166.933H147.912C146.371 166.933 145.409 168.602 146.182 169.935L209.541 279.303ZM243.631 166.933C243.632 166.933 243.631 166.934 243.631 166.934H197.443C195.902 166.934 194.94 168.602 195.712 169.936L234.263 236.52C235.034 237.85 236.955 237.85 237.725 236.52L276.28 169.935C277.052 168.601 276.09 166.933 274.549 166.933H243.632C243.631 166.933 243.631 166.933 243.631 166.933ZM31.2518 146.076C30.4805 147.409 31.4427 149.077 32.983 149.077H57.2444C57.9581 149.077 58.6176 148.697 58.9752 148.079L110.165 59.6681C110.525 59.0477 110.524 58.2825 110.165 57.6625L97.9931 36.6782C97.2219 35.3485 95.3015 35.3497 94.5319 36.6802L31.2518 146.076ZM80.7938 146.074C80.0219 147.407 80.984 149.076 82.5247 149.076H159.528C161.068 149.076 162.03 147.409 161.26 146.076L122.798 79.5069C122.029 78.1749 120.106 78.1741 119.336 79.5053L80.7938 146.074ZM131.405 58.6491C131.404 58.6511 131.404 58.6536 131.405 58.6556C131.406 58.6578 131.406 58.6605 131.405 58.6626C131.403 58.6647 131.403 58.6674 131.404 58.6697L183.061 148.077C183.419 148.695 184.079 149.076 184.793 149.076H209.158C210.699 149.076 211.661 147.407 210.889 146.074L147.532 36.7066C146.76 35.3755 144.838 35.377 144.069 36.7094L131.405 58.6491Z" fill="#1E65F4"/>
</svg>
