<svg width="359" height="318" viewBox="0 0 359 318" fill="none" xmlns="http://www.w3.org/2000/svg">
<path d="M144.669 37.309L145.189 37.6089L144.669 37.309ZM211.489 146.673L210.97 146.974L211.489 146.673ZM183.662 148.676L184.181 148.376L183.662 148.676ZM132.005 59.2622L132.494 59.6109L132.005 59.2622ZM132.005 59.2693L131.486 59.5694L132.005 59.2693ZM132.006 59.2552L131.485 59.5529L132.006 59.2552ZM132.006 59.2487L131.486 58.9488L132.006 59.2487ZM123.399 80.1065L123.918 79.8063L123.399 80.1065ZM119.936 80.1049L119.417 79.8043L119.936 80.1049ZM161.86 146.675L162.38 146.375L161.86 146.675ZM81.3944 146.674L80.8752 146.373L81.3944 146.674ZM98.5937 37.2778L99.1127 36.9767L98.5937 37.2778ZM95.1325 37.2798L95.6518 37.5802L95.1325 37.2798ZM110.766 60.2677L111.285 60.5683L110.766 60.2677ZM110.765 58.2621L110.246 58.5631L110.765 58.2621ZM59.5758 148.679L60.0951 148.98L59.5758 148.679ZM31.8524 146.675L31.333 146.375L31.8524 146.675ZM276.881 170.534L276.362 170.234L276.881 170.534ZM234.864 237.119L234.345 237.42L234.864 237.119ZM196.312 170.535L195.793 170.836L196.312 170.535ZM173.917 167.535L173.398 167.835L173.917 167.535ZM226.266 257.95L225.697 257.76L226.266 257.95ZM226.266 257.947L225.747 258.248L226.266 257.947ZM226.266 257.953L226.781 257.644L226.266 257.953ZM226.267 257.959L225.747 257.659L226.267 257.959ZM226.267 257.953L225.752 258.262L226.267 257.953ZM213.604 279.9L214.124 280.2L213.604 279.9ZM210.141 279.903L209.622 280.203L210.141 279.903ZM298.697 168.53L298.177 168.229L298.697 168.53ZM326.421 170.534L326.94 170.834L326.421 170.534ZM259.68 279.931L260.199 279.63L259.68 279.931ZM263.141 279.929L262.622 279.629L263.141 279.929ZM247.507 258.945L246.988 259.246L247.507 258.945ZM247.507 256.939L248.026 257.24L247.507 256.939ZM144.64 1.6001L145.16 1.90003L144.64 1.6001ZM148.103 1.59731L148.622 1.29654L148.103 1.59731ZM119.925 38.4269L120.444 38.1258L119.925 38.4269ZM123.387 38.4232L122.867 38.1233L123.387 38.4232ZM95.1119 1.61673L94.5926 1.3163L95.1119 1.61673ZM0.872913 164.532L1.39228 164.832L0.872913 164.532ZM124.964 168.53L125.483 168.229L124.964 168.53ZM213.633 315.609L213.114 315.309L213.633 315.609ZM210.17 315.612L210.69 315.311L210.17 315.612ZM238.348 278.781L238.867 278.48L238.348 278.781ZM234.885 278.785L235.405 279.085L234.885 278.785ZM263.162 315.592L262.643 315.292L263.162 315.592ZM259.701 315.594L259.182 315.895L259.701 315.594ZM357.401 152.677L356.881 152.377L357.401 152.677ZM233.31 148.678L232.791 148.979L233.31 148.678ZM235.04 149.676V150.276H355.669V149.676V149.076H235.04V149.676ZM357.401 152.677L356.881 152.377L262.643 315.292L263.162 315.592L263.682 315.893L357.92 152.978L357.401 152.677ZM259.701 315.594L260.22 315.293L238.867 278.48L238.348 278.781L237.829 279.082L259.182 315.895L259.701 315.594ZM234.885 278.785L234.366 278.485L213.114 315.309L213.633 315.609L214.153 315.909L235.405 279.085L234.885 278.785ZM210.17 315.612L210.69 315.311L125.483 168.229L124.964 168.53L124.444 168.83L209.651 315.912L210.17 315.612ZM123.233 167.532V166.932H69.3181V167.532V168.132H123.233V167.532ZM69.3157 167.533V166.933H2.60413V167.533V168.133H69.3157V167.533ZM0.872913 164.532L1.39228 164.832L95.6313 1.91716L95.1119 1.61673L94.5926 1.3163L0.353547 164.231L0.872913 164.532ZM98.5732 1.61471L98.0542 1.91575L119.406 38.7279L119.925 38.4269L120.444 38.1258L99.0922 1.31367L98.5732 1.61471ZM123.387 38.4232L123.907 38.7231L145.16 1.90003L144.64 1.6001L144.121 1.30018L122.867 38.1233L123.387 38.4232ZM148.103 1.59731L147.584 1.89807L232.791 148.979L233.31 148.678L233.829 148.378L148.622 1.29654L148.103 1.59731ZM247.507 258.945L246.988 259.246L259.161 280.232L259.68 279.931L260.199 279.63L248.026 258.644L247.507 258.945ZM263.141 279.929L263.66 280.23L326.94 170.834L326.421 170.534L325.902 170.233L262.622 279.629L263.141 279.929ZM324.69 167.532V166.932H300.427V167.532V168.132H324.69V167.532ZM298.697 168.53L298.177 168.229L246.987 256.639L247.507 256.939L248.026 257.24L299.216 168.831L298.697 168.53ZM213.604 279.9L214.124 280.2L226.787 258.259L226.267 257.959L225.747 257.659L213.084 279.6L213.604 279.9ZM226.267 257.953L226.781 257.645L226.781 257.644L226.266 257.953L225.752 258.261L225.752 258.262L226.267 257.953ZM226.266 257.947L226.785 257.646L174.436 167.234L173.917 167.535L173.398 167.835L225.747 258.248L226.266 257.947ZM173.914 167.533V166.933H173.914V167.533V168.133H173.914V167.533ZM173.911 167.532V166.932H148.513V167.532V168.132H173.911V167.532ZM146.782 170.535L146.263 170.836L209.622 280.203L210.141 279.903L210.66 279.602L147.302 170.234L146.782 170.535ZM244.232 167.533V166.933H198.043V167.533V168.133H244.232V167.533ZM196.312 170.535L195.793 170.836L234.345 237.42L234.864 237.119L235.383 236.819L196.832 170.235L196.312 170.535ZM238.326 237.119L238.845 237.42L277.4 170.835L276.881 170.534L276.362 170.234L237.806 236.819L238.326 237.119ZM275.15 167.532V166.932H244.232V167.532V168.132H275.15V167.532ZM33.5836 149.677V150.277H57.845V149.677V149.077H33.5836V149.677ZM59.5758 148.679L60.0951 148.98L111.285 60.5683L110.766 60.2677L110.247 59.967L59.0566 148.378L59.5758 148.679ZM110.765 58.2621L111.284 57.961L99.1127 36.9767L98.5937 37.2778L98.0747 37.5788L110.246 58.5631L110.765 58.2621ZM95.1325 37.2798L94.6131 36.9794L31.333 146.375L31.8524 146.675L32.3718 146.976L95.6518 37.5802L95.1325 37.2798ZM83.1252 149.676V150.276H160.128V149.676V149.076H83.1252V149.676ZM161.86 146.675L162.38 146.375L123.918 79.8063L123.399 80.1065L122.879 80.4066L161.341 146.975L161.86 146.675ZM119.936 80.1049L119.417 79.8043L80.8752 146.373L81.3944 146.674L81.9137 146.974L120.456 80.4055L119.936 80.1049ZM132.005 59.2693L131.486 59.5694L183.142 148.976L183.662 148.676L184.181 148.376L132.525 58.9691L132.005 59.2693ZM185.394 149.676V150.276H209.759V149.676V149.076H185.394V149.676ZM211.489 146.673L212.008 146.372L148.651 37.0055L148.132 37.3063L147.613 37.607L210.97 146.974L211.489 146.673ZM144.669 37.309L144.15 37.009L131.486 58.9488L132.006 59.2487L132.525 59.5487L145.189 37.6089L144.669 37.309ZM148.132 37.3063L148.651 37.0055C147.649 35.275 145.15 35.277 144.15 37.009L144.669 37.309L145.189 37.6089C145.727 36.6763 147.073 36.6752 147.613 37.607L148.132 37.3063ZM209.759 149.676V150.276C211.762 150.276 213.012 148.106 212.008 146.372L211.489 146.673L210.97 146.974C211.511 147.907 210.837 149.076 209.759 149.076V149.676ZM183.662 148.676L183.142 148.976C183.607 149.781 184.465 150.276 185.394 150.276V149.676V149.076C184.894 149.076 184.431 148.809 184.181 148.376L183.662 148.676ZM132.005 59.2622L131.517 58.9134C131.38 59.1054 131.366 59.3618 131.486 59.5694L132.005 59.2693L132.525 58.9691C132.642 59.1723 132.628 59.4232 132.494 59.6109L132.005 59.2622ZM132.006 59.2552L131.485 59.5529C131.369 59.35 131.384 59.1004 131.517 58.9134L132.005 59.2622L132.494 59.6109C132.63 59.4199 132.645 59.1648 132.527 58.9575L132.006 59.2552ZM132.006 59.2552L132.527 58.9575C132.631 59.1407 132.631 59.3658 132.525 59.5487L132.006 59.2487L131.486 58.9488C131.378 59.1357 131.378 59.3657 131.485 59.5529L132.006 59.2552ZM123.399 80.1065L123.918 79.8063C122.918 78.0748 120.419 78.0737 119.417 79.8043L119.936 80.1049L120.456 80.4055C120.995 79.4737 122.341 79.4743 122.879 80.4066L123.399 80.1065ZM160.128 149.676V150.276C162.13 150.276 163.381 148.108 162.38 146.375L161.86 146.675L161.341 146.975C161.88 147.909 161.206 149.076 160.128 149.076V149.676ZM83.1252 149.676V149.076C82.0468 149.076 81.3733 147.908 81.9137 146.974L81.3944 146.674L80.8752 146.373C79.8716 148.106 81.1223 150.276 83.1252 150.276V149.676ZM98.5937 37.2778L99.1127 36.9767C98.1102 35.2482 95.6136 35.2497 94.6131 36.9794L95.1325 37.2798L95.6518 37.5802C96.1906 36.6489 97.5349 36.6481 98.0747 37.5788L98.5937 37.2778ZM110.766 60.2677L111.285 60.5683C111.752 59.7618 111.752 58.7671 111.284 57.961L110.765 58.2621L110.246 58.5631C110.498 58.9972 110.498 59.5328 110.247 59.967L110.766 60.2677ZM57.845 149.677V150.277C58.7727 150.277 59.6302 149.782 60.0951 148.98L59.5758 148.679L59.0566 148.378C58.8063 148.811 58.3445 149.077 57.845 149.077V149.677ZM33.5836 149.677V149.077C32.5054 149.077 31.8319 147.909 32.3718 146.976L31.8524 146.675L31.333 146.375C30.3304 148.108 31.5812 150.277 33.5836 150.277V149.677ZM244.232 167.532V166.932C243.698 166.932 243.429 167.578 243.808 167.957L244.232 167.533L244.656 167.108C245.035 167.487 244.766 168.132 244.232 168.132V167.532ZM276.881 170.534L277.4 170.835C278.404 169.102 277.153 166.932 275.15 166.932V167.532V168.132C276.228 168.132 276.902 169.3 276.362 170.234L276.881 170.534ZM234.864 237.119L234.345 237.42C235.346 239.149 237.843 239.149 238.845 237.42L238.326 237.119L237.806 236.819C237.267 237.75 235.922 237.75 235.383 236.819L234.864 237.119ZM198.043 167.533V166.933C196.04 166.933 194.79 169.103 195.793 170.836L196.312 170.535L196.832 170.235C196.291 169.301 196.965 168.133 198.043 168.133V167.533ZM244.232 167.533V168.133C244.767 168.133 245.034 167.487 244.656 167.108L244.232 167.533L243.808 167.957C243.43 167.579 243.697 166.933 244.232 166.933V167.533ZM148.513 167.532V166.932C146.51 166.932 145.259 169.102 146.263 170.836L146.782 170.535L147.302 170.234C146.761 169.301 147.434 168.132 148.513 168.132V167.532ZM173.913 167.533L174.337 167.108C174.224 166.996 174.071 166.932 173.911 166.932V167.532V168.132C173.753 168.132 173.601 168.069 173.488 167.957L173.913 167.533ZM173.914 167.533V166.933C174.072 166.933 174.225 166.996 174.337 167.108L173.913 167.533L173.488 167.957C173.601 168.07 173.754 168.133 173.914 168.133V167.533ZM173.917 167.535L174.436 167.234C174.328 167.047 174.128 166.933 173.914 166.933V167.533V168.133C173.702 168.133 173.505 168.021 173.398 167.835L173.917 167.535ZM226.266 257.95L226.835 258.139C226.89 257.975 226.872 257.796 226.785 257.646L226.266 257.947L225.747 258.248C225.661 258.1 225.643 257.922 225.697 257.76L226.266 257.95ZM226.266 257.953L226.781 257.644C226.871 257.793 226.89 257.974 226.835 258.139L226.266 257.95L225.697 257.76C225.641 257.927 225.661 258.11 225.752 258.261L226.266 257.953ZM226.267 257.959L226.787 258.259C226.896 258.068 226.895 257.833 226.781 257.645L226.267 257.953L225.752 258.262C225.641 258.077 225.639 257.846 225.747 257.659L226.267 257.959ZM213.604 279.9L213.084 279.6C212.546 280.533 211.2 280.534 210.66 279.602L210.141 279.903L209.622 280.203C210.625 281.934 213.124 281.932 214.124 280.2L213.604 279.9ZM300.427 167.532V166.932C299.5 166.932 298.642 167.427 298.177 168.229L298.697 168.53L299.216 168.831C299.466 168.398 299.928 168.132 300.427 168.132V167.532ZM326.421 170.534L326.94 170.834C327.943 169.101 326.692 166.932 324.69 166.932V167.532V168.132C325.768 168.132 326.442 169.3 325.902 170.233L326.421 170.534ZM259.68 279.931L259.161 280.232C260.163 281.961 262.66 281.959 263.66 280.23L263.141 279.929L262.622 279.629C262.083 280.56 260.739 280.561 260.199 279.63L259.68 279.931ZM247.507 258.945L248.026 258.644C247.775 258.21 247.774 257.674 248.026 257.24L247.507 256.939L246.987 256.639C246.52 257.445 246.521 258.44 246.988 259.246L247.507 258.945ZM144.64 1.6001L145.16 1.90003C145.698 0.967344 147.044 0.966258 147.584 1.89807L148.103 1.59731L148.622 1.29654C147.62 -0.433979 145.12 -0.431955 144.121 1.30018L144.64 1.6001ZM119.925 38.4269L119.406 38.7279C120.409 40.4574 122.907 40.4547 123.907 38.7231L123.387 38.4232L122.867 38.1233C122.329 39.0557 120.984 39.0571 120.444 38.1258L119.925 38.4269ZM95.1119 1.61673L95.6313 1.91716C96.1701 0.985797 97.5143 0.985011 98.0542 1.91575L98.5732 1.61471L99.0922 1.31367C98.0897 -0.414831 95.5931 -0.413381 94.5926 1.3163L95.1119 1.61673ZM2.60413 167.533V166.933C1.5259 166.933 0.852388 165.766 1.39228 164.832L0.872913 164.532L0.353547 164.231C-0.649107 165.965 0.601694 168.133 2.60413 168.133V167.533ZM69.3169 167.533L68.8926 167.108C69.0048 166.996 69.157 166.933 69.3157 166.933V167.533V168.133C69.4753 168.133 69.6283 168.07 69.7412 167.957L69.3169 167.533ZM69.3181 167.532V166.932C69.158 166.932 69.0051 166.996 68.8926 167.108L69.3169 167.533L69.7412 167.957C69.6293 168.069 69.4772 168.132 69.3181 168.132V167.532ZM124.964 168.53L125.483 168.229C125.018 167.426 124.161 166.932 123.233 166.932V167.532V168.132C123.732 168.132 124.194 168.398 124.444 168.83L124.964 168.53ZM213.633 315.609L213.114 315.309C212.575 316.242 211.229 316.243 210.69 315.311L210.17 315.612L209.651 315.912C210.654 317.643 213.153 317.641 214.153 315.909L213.633 315.609ZM238.348 278.781L238.867 278.48C237.864 276.751 235.365 276.753 234.366 278.485L234.885 278.785L235.405 279.085C235.943 278.152 237.288 278.151 237.829 279.082L238.348 278.781ZM263.162 315.592L262.643 315.292C262.104 316.223 260.76 316.224 260.22 315.293L259.701 315.594L259.182 315.895C260.185 317.624 262.681 317.622 263.682 315.893L263.162 315.592ZM355.669 149.676V150.276C356.748 150.276 357.421 151.443 356.881 152.377L357.401 152.677L357.92 152.978C358.923 151.244 357.672 149.076 355.669 149.076V149.676ZM235.04 149.676V149.076C234.541 149.076 234.079 148.81 233.829 148.378L233.31 148.678L232.791 148.979C233.256 149.782 234.113 150.276 235.04 150.276V149.676Z" fill="#D9DDE9"/>
</svg>
