<svg width="36" height="36" viewBox="0 0 36 36" fill="none" xmlns="http://www.w3.org/2000/svg">
<path fill-rule="evenodd" clip-rule="evenodd" d="M7.7074 9.51869C10.2573 6.21658 14.2484 4.09072 18.743 4.09072C22.4328 4.09072 25.7872 5.52548 28.278 7.86351L26.5748 7.70346C26.135 7.66212 25.7448 7.98521 25.7035 8.4251C25.6622 8.86499 25.9853 9.2551 26.4251 9.29644L30.2018 9.65136C30.4447 9.67418 30.6847 9.58496 30.8536 9.40905C31.0226 9.23313 31.1021 8.98974 31.0695 8.74801L30.5695 5.03818C30.5105 4.60031 30.1077 4.29319 29.6698 4.35221C29.232 4.41122 28.9248 4.81402 28.9839 5.25189L29.1511 6.49275C26.3996 4.00838 22.7484 2.49072 18.743 2.49072C13.7309 2.49072 9.28038 4.86387 6.44103 8.54078C6.17099 8.89048 6.23556 9.39288 6.58526 9.66292C6.93496 9.93297 7.43736 9.86839 7.7074 9.51869ZM2.98515 12.5659C2.98515 12.124 3.34333 11.7659 3.78515 11.7659H8.10865C10.0112 11.7659 11.5585 13.3132 11.5585 15.2158C11.5585 16.1509 11.1863 17.0007 10.5806 17.623C11.524 18.2377 12.1458 19.3019 12.1458 20.5155V20.5742C12.1458 22.4768 10.5984 24.0241 8.69588 24.0241H3.78515C3.34333 24.0241 2.98515 23.666 2.98515 23.2241V17.8656V12.5659ZM8.10865 18.6656L8.11232 18.6656H8.69588C9.72213 18.6656 10.5458 19.4893 10.5458 20.5155V20.5742C10.5458 21.5932 9.7148 22.4241 8.69588 22.4241H4.58515V18.6656L8.10865 18.6656ZM9.95853 15.2158C9.95853 16.2352 9.1349 17.0642 8.11134 17.0656L4.58515 17.0656V13.3659H8.10865C9.12756 13.3659 9.95853 14.1968 9.95853 15.2158ZM25.4375 11.7659C24.9957 11.7659 24.6375 12.124 24.6375 12.5659V17.8656V23.2241C24.6375 23.666 24.9957 24.0241 25.4375 24.0241H30.3482C32.2508 24.0241 33.7981 22.4768 33.7981 20.5742V20.5155C33.7981 19.3019 33.1763 18.2377 32.2329 17.623C32.8386 17.0007 33.2109 16.1509 33.2109 15.2158C33.2109 13.3132 31.6636 11.7659 29.761 11.7659H25.4375ZM26.2375 17.0656L29.7637 17.0656C30.7872 17.0642 31.6109 16.2352 31.6109 15.2158C31.6109 14.1968 30.7799 13.3659 29.761 13.3659H26.2375V17.0656ZM26.2375 22.4241V18.6656L29.761 18.6656L29.7647 18.6656H30.3482C31.3745 18.6656 32.1981 19.4893 32.1981 20.5155V20.5742C32.1981 21.5932 31.3671 22.4241 30.3482 22.4241H26.2375ZM15.5166 15.6217L15.5169 15.6214L15.517 15.6212L15.5256 15.6092C15.5341 15.5974 15.5482 15.5781 15.5677 15.5524C15.6066 15.5009 15.6666 15.4244 15.7454 15.3313C15.9041 15.1441 16.1338 14.8965 16.4174 14.6539C17.0059 14.1503 17.7135 13.7629 18.4396 13.7969C19.2989 13.8372 19.7528 14.1221 19.9904 14.4518C20.2416 14.8004 20.3718 15.3655 20.2348 16.1913C20.2113 16.3312 20.1269 16.548 19.9369 16.8443C19.7516 17.1332 19.4932 17.456 19.174 17.8024C18.5354 18.4953 17.7036 19.2287 16.8636 19.9066C16.0272 20.5816 15.2002 21.1875 14.5809 21.6255C14.2717 21.8442 14.0154 22.0202 13.8369 22.1412C13.7477 22.2016 13.6781 22.2483 13.6311 22.2796L13.578 22.3148L13.5649 22.3235L13.5619 22.3254L13.5613 22.3258L13.5613 22.3259C13.2655 22.5198 13.1322 22.8849 13.2335 23.2238C13.3347 23.5626 13.6463 23.7948 14 23.7948H22C22.4418 23.7948 22.8 23.4367 22.8 22.9948C22.8 22.553 22.4418 22.1948 22 22.1948H16.5206C16.9451 21.8788 17.4047 21.526 17.8685 21.1517C18.7358 20.4517 19.6357 19.6623 20.3505 18.8867C20.708 18.4989 21.0318 18.101 21.2838 17.7079C21.531 17.3223 21.739 16.8957 21.8128 16.4555L21.813 16.4543C21.9914 15.3804 21.8757 14.3312 21.2885 13.5164C20.6875 12.6825 19.7103 12.2548 18.5145 12.1987C17.1855 12.1364 16.084 12.8333 15.3771 13.4382C15.0129 13.7498 14.7234 14.0626 14.5247 14.297C14.4249 14.4148 14.3467 14.5145 14.2921 14.5865C14.2648 14.6226 14.2434 14.6518 14.228 14.6731L14.2095 14.699L14.2037 14.7072L14.2017 14.7101L14.2009 14.7113L14.2006 14.7117C14.2004 14.712 14.2003 14.7122 14.8587 15.1666L14.2003 14.7122C13.9493 15.0758 14.0407 15.574 14.4043 15.825C14.7674 16.0756 15.2648 15.9849 15.5161 15.6225L15.5162 15.6224L15.5163 15.6222L15.5165 15.6219L15.5166 15.6217ZM30.9598 26.2928C31.312 26.5596 31.3811 27.0614 31.1142 27.4136C28.282 31.1508 23.7891 33.5568 18.7363 33.5568C14.6149 33.5568 10.8785 31.9509 8.10057 29.3381L8.29813 30.9736C8.35112 31.4122 8.03848 31.8108 7.59984 31.8638C7.1612 31.9167 6.76266 31.6041 6.70968 31.1655L6.20968 27.0263C6.17985 26.7794 6.26656 26.5326 6.44429 26.3587C6.62203 26.1847 6.87057 26.1033 7.11679 26.1384L11.1129 26.708C11.5503 26.7703 11.8543 27.1754 11.792 27.6128C11.7296 28.0502 11.3245 28.3543 10.8871 28.2919L9.04682 28.0296C11.5557 30.4602 14.9669 31.9568 18.7363 31.9568C23.2697 31.9568 27.2979 29.8003 29.839 26.4472C30.1059 26.095 30.6077 26.0259 30.9598 26.2928Z" fill="#1E65F4"/>
</svg>
