<svg width="36" height="36" viewBox="0 0 36 36" fill="none" xmlns="http://www.w3.org/2000/svg">
<path fill-rule="evenodd" clip-rule="evenodd" d="M19.2373 2.2002H18.9897C18.734 1.84842 18.3358 1.60692 17.8799 1.56055L17.7187 1.55273C16.906 1.55292 16.2376 2.1704 16.1572 2.96191L16.1494 3.12207L16.1572 3.2832C16.2377 4.0746 16.9061 4.6922 17.7187 4.69238C18.3431 4.69238 18.8825 4.3277 19.1356 3.7998H19.2373C20.0665 3.79997 20.951 4.24263 21.5586 4.97363C22.119 5.64803 22.3982 6.51126 22.2099 7.40527L22.166 7.58398V7.58691L20.3662 14.0869L20.3633 14.0957C20.1096 15.0536 19.659 15.9071 19.0735 16.6324C18.8735 16.6816 18.6852 16.7875 18.5342 16.9492C17.3203 18.2498 15.6882 19.0131 14.0927 19.1006H13.3379C12.109 19.1005 10.9241 18.6959 9.76462 17.9912C9.40468 17.7031 9.0771 17.4398 8.79587 17.1865L8.51559 16.9229L8.43259 16.8467C8.25196 16.6994 8.03552 16.6182 7.81537 16.603C7.31574 15.9587 6.93973 15.22 6.70798 14.3857H6.707L4.90915 7.69238L4.9072 7.68457L4.86325 7.50391C4.46951 5.64087 6.05935 3.90039 7.83688 3.90039H8.31992C8.59033 4.37341 9.09974 4.69225 9.68356 4.69238C10.5506 4.69238 11.2539 3.9891 11.2539 3.12207C11.2537 2.30948 10.6361 1.64104 9.8447 1.56055L9.68356 1.55273C9.11834 1.55286 8.62288 1.8516 8.34651 2.2998H7.83688C5.07434 2.2998 2.51289 5.03947 3.3652 8.10645L3.36423 8.10742L5.16403 14.8076L5.16599 14.8145C5.47016 15.9093 5.97482 16.8699 6.63841 17.6948C6.63698 17.9429 6.71904 18.1914 6.88474 18.3945L6.96091 18.4775L7.3154 18.8135C7.6754 19.1382 8.06707 19.4516 8.42601 19.7387L8.45114 19.7588L8.50388 19.8018L8.56149 19.8369C9.89022 20.6546 11.3695 21.2194 12.9853 21.2919V26.6121C12.9856 31.1953 16.7009 34.9107 21.2842 34.9109C25.8676 34.9109 29.5837 31.1955 29.584 26.6121V21.9127C31.8464 21.5328 33.5701 19.5653 33.5703 17.1948C33.5703 14.5523 31.4286 12.4099 28.7861 12.4097C26.1434 12.4097 24.0009 14.5522 24.0009 17.1948C24.0011 19.5641 25.7235 21.5308 27.9843 21.9121V26.6121C27.9841 30.3118 24.9839 33.3113 21.2842 33.3113C17.5845 33.3111 14.5852 30.3117 14.5849 26.6121V21.2688C16.6497 21.0585 18.6529 20.0471 20.1425 18.4512C20.3878 18.1884 20.4795 17.8372 20.4213 17.5085C21.0905 16.6465 21.6075 15.6403 21.9072 14.5127L21.9082 14.5137L23.708 8.01367L23.707 8.0127C24.1376 6.47097 23.6667 5.00623 22.79 3.95117C21.9228 2.90763 20.6076 2.20036 19.2373 2.2002ZM31.9707 17.1948C31.9707 15.436 30.5449 14.0095 28.7861 14.0093C27.0271 14.0093 25.6006 15.4358 25.6006 17.1948C25.6008 18.9536 27.0272 20.3794 28.7861 20.3794C30.5448 20.3792 31.9705 18.9535 31.9707 17.1948ZM28.7871 16.4688C29.1877 16.4688 29.5126 16.7937 29.5127 17.1943C29.5127 17.595 29.1878 17.9199 28.7871 17.9199C28.3864 17.9198 28.0615 17.595 28.0615 17.1943C28.0616 16.7937 28.3865 16.4688 28.7871 16.4688ZM28.7871 19.5205C30.0714 19.5205 31.1133 18.4787 31.1133 17.1943C31.1132 15.91 30.0714 14.8691 28.7871 14.8691C27.5028 14.8692 26.462 15.9101 26.4619 17.1943C26.4619 18.4786 27.5028 19.5204 28.7871 19.5205Z" fill="#1E65F4"/>
</svg>
