<svg width="261" height="52" viewBox="0 0 261 52" fill="none" xmlns="http://www.w3.org/2000/svg">
<g opacity="0.4">
<path d="M79.9027 33.5413C79.049 33.5413 78.1953 32.866 78.1953 31.6279V24.537C78.1953 22.0608 77.3416 21.5543 75.1221 21.5543H74.5529C73.9838 21.5543 72.9594 21.6106 72.4472 21.7231V33.5413H71.3089C70.4552 33.5413 69.6016 32.866 69.6016 31.6279V19.6972C70.5122 19.3595 72.8456 19.0781 74.2115 19.0781H75.6912C79.2197 19.0781 81.0979 20.8227 81.0979 24.4807V33.5413H79.9027Z" fill="white"/>
<path d="M89.9752 33.7673C86.3328 33.7673 83.3164 30.8409 83.3164 26.5638C83.3164 22.1179 85.8775 18.9102 90.2597 18.9102C93.7883 18.9102 96.9185 21.5552 96.9185 26.1136C96.9185 30.5032 94.4143 33.7673 89.9752 33.7673ZM90.0321 21.4426C87.8694 21.4426 86.3328 23.1872 86.3328 26.1136C86.3328 29.5465 87.5848 31.2911 90.2597 31.2911C92.4793 31.2911 93.959 29.7154 93.959 26.5076C93.9021 23.1872 92.4793 21.4426 90.0321 21.4426Z" fill="white"/>
<path d="M109.097 33.5417C108.016 33.5417 107.39 32.8101 107.276 31.9659C106.821 29.3209 106.024 25.7755 104.317 22.1737C102.78 25.4941 101.414 29.94 100.902 33.5417H99.3654C98.6824 33.5417 98.1133 33.0915 98.1133 32.3036C98.1133 31.5157 99.0239 28.1954 99.8776 25.888C100.731 23.6932 101.699 21.3296 103.178 19.1348H103.748C104.658 19.1348 105.796 19.4724 106.309 20.2603C108.471 24.0309 110.065 28.927 110.691 33.4854L109.097 33.5417Z" fill="white"/>
<path d="M123.269 33.5417C122.416 33.5417 121.562 32.8664 121.562 31.6283V22.7365C121.277 23.0179 120.879 23.6369 120.367 24.7062L117.578 30.1088C116.155 32.8664 114.96 33.5417 113.48 33.5417H112.285V19.191H113.708C114.562 19.191 115.131 19.8664 115.131 20.7105V29.4897C115.472 29.0958 116.155 27.6889 116.44 27.0698L118.944 22.0612C119.854 20.2603 121.107 19.1348 122.985 19.1348H124.464V33.4854L123.269 33.5417Z" fill="white"/>
<path d="M136.759 33.5983C136.076 33.5983 135.222 33.2607 134.71 32.6979C132.946 30.6719 131.466 28.5897 130.043 26.2823V33.5421H129.076C127.653 33.5421 127.141 32.5853 127.141 31.5724V19.1914H128.051C129.474 19.1914 129.986 20.0918 129.986 21.1048V25.607C131.295 23.6936 132.547 21.7239 134.141 20.0918C134.881 19.2477 135.222 19.1914 136.36 19.1914H138.352V19.304C137.214 20.4295 134.368 23.8624 132.889 25.8884C134.255 27.8581 135.564 29.9966 137.385 31.5724C137.783 31.91 138.125 32.0789 138.523 32.1351C138.409 33.2044 137.954 33.5983 136.759 33.5983Z" fill="white"/>
<path d="M150.078 33.5417C148.997 33.5417 148.37 32.8101 148.257 31.9659C147.801 29.3209 147.005 25.7755 145.297 22.1737C143.761 25.4941 142.395 29.94 141.882 33.5417H140.346C139.663 33.5417 139.094 33.0915 139.094 32.3036C139.094 31.5157 140.004 28.1954 140.858 25.888C141.712 23.6932 142.679 21.3296 144.159 19.1348H144.728C145.639 19.1348 146.777 19.4724 147.289 20.2603C149.452 24.0309 151.045 28.927 151.671 33.4854L150.078 33.5417Z" fill="white"/>
<path d="M164.246 33.5417C163.392 33.5417 162.538 32.8664 162.538 31.6283V22.7365C162.254 23.0179 161.855 23.6369 161.343 24.7062L158.555 30.1088C157.132 32.8664 155.937 33.5417 154.457 33.5417H153.262V19.191H154.685C155.538 19.191 156.107 19.8664 156.107 20.7105V29.4897C156.449 29.0958 157.132 27.6889 157.416 27.0698L159.92 22.0612C160.831 20.2603 162.083 19.1348 163.961 19.1348H165.441V33.4854L164.246 33.5417Z" fill="white"/>
<path d="M178.587 33.5421C177.733 33.5421 176.879 32.8667 176.879 31.6286V27.4079H171.017V33.5983H169.936C168.969 33.5983 168.172 32.923 168.172 31.6849V19.1914H169.595C170.448 19.1914 171.017 19.8667 171.017 20.7109V24.9879H176.879V19.1914H178.188C178.928 19.1914 179.725 19.7542 179.725 20.7109V33.5421H178.587Z" fill="white"/>
<path d="M193.5 33.5417C192.646 33.5417 191.792 32.8664 191.792 31.6283V22.7365C191.508 23.0179 191.109 23.6369 190.597 24.7062L187.808 30.1088C186.386 32.8664 185.19 33.5417 183.711 33.5417H182.516V19.191H183.938C184.792 19.191 185.361 19.8664 185.361 20.7105V29.4897C185.703 29.0958 186.386 27.6889 186.67 27.0698L189.174 22.0612C190.085 20.2603 191.337 19.1348 193.215 19.1348H194.695V33.4854L193.5 33.5417Z" fill="white"/>
<path d="M206.989 33.5983C206.306 33.5983 205.453 33.2607 204.94 32.6979C203.176 30.6719 201.696 28.5897 200.274 26.2823V33.5421H199.306C197.883 33.5421 197.371 32.5853 197.371 31.5724V19.1914H198.282C199.705 19.1914 200.217 20.0918 200.217 21.1048V25.607C201.526 23.6936 202.778 21.7239 204.371 20.0918C205.111 19.2477 205.453 19.1914 206.591 19.1914H208.583V19.304C207.445 20.4295 204.599 23.8624 203.119 25.8884C204.485 27.8581 205.794 29.9966 207.615 31.5724C208.014 31.91 208.355 32.0789 208.754 32.1351C208.583 33.2044 208.128 33.5983 206.989 33.5983Z" fill="white"/>
<path d="M220.763 33.5413C219.568 33.5413 218.942 32.866 218.828 32.1344C218.714 31.1777 218.6 30.4461 218.43 29.827H212.625C212.34 31.0651 212.055 32.3032 211.885 33.4851H210.746C209.779 33.4851 209.438 32.9786 209.438 32.0781C209.438 29.9959 212.169 21.5543 214.389 19.0781H215.584C216.722 19.0781 217.519 19.6972 217.917 20.3725C219.226 22.6799 221.389 28.8703 222.015 33.4288H220.763V33.5413ZM215.47 21.8357C214.617 23.2989 213.706 25.6063 213.251 27.576H217.747C217.234 25.55 216.267 23.1863 215.47 21.8357Z" fill="white"/>
<path d="M225.142 33.5431C224.117 33.5431 223.32 32.699 223.32 31.7423C223.32 30.7856 224.174 29.9414 225.142 29.9414C226.166 29.9414 226.963 30.7856 226.963 31.7423C226.963 32.699 226.109 33.5431 225.142 33.5431Z" fill="white"/>
<path d="M234.819 28.4201C233.794 28.4201 232.997 28.2513 232.371 27.9136V33.4851H231.233C230.436 33.4851 229.469 32.9786 229.469 31.4028V19.7534C230.266 19.4721 232.201 19.0781 233.225 19.0781H234.875C237.721 19.0781 239.713 20.6539 239.713 23.524C239.713 26.563 237.607 28.4201 234.819 28.4201ZM234.534 21.498H233.623C233.282 21.498 232.77 21.6106 232.428 21.6669V25.7188C232.94 25.8876 233.737 25.9439 234.477 25.9439C235.957 25.9439 236.754 25.0998 236.754 23.7491C236.697 22.1734 236.014 21.498 234.534 21.498Z" fill="white"/>
<path d="M252.46 21.3866C251.721 24.0316 249.899 27.2394 249.103 28.6463C246.314 33.3173 245.574 33.7675 243.639 33.7675C242.728 33.7675 241.647 33.0922 241.647 31.9104V31.4039L243.07 31.3476C244.094 31.2913 244.777 30.3909 245.346 29.6593C243.468 27.0143 241.078 22.6247 240.281 19.248H241.875C242.899 19.248 243.525 19.8671 243.753 20.655C244.322 22.6247 245.688 25.326 246.883 27.1831C248.078 25.1009 249.558 21.7242 250.127 19.248H251.55C252.347 19.248 252.802 19.5857 252.802 20.3173C252.688 20.5987 252.574 21.0489 252.46 21.3866Z" fill="white"/>
<path d="M29.6936 20.9451C30.111 19.5114 30.0087 18.2237 29.465 18.0689C28.9213 17.9141 28.1421 18.9508 27.7246 20.3845C27.3072 21.8182 27.4095 23.106 27.9532 23.2608C28.4969 23.4156 29.2761 22.3788 29.6936 20.9451Z" fill="white"/>
<path d="M25.6831 33.0585C26.1198 31.9259 26.1168 30.873 25.6762 30.7069C25.2357 30.5408 24.5245 31.3243 24.0877 32.457C23.6509 33.5896 23.654 34.6425 24.0946 34.8086C24.5351 34.9747 25.2463 34.1912 25.6831 33.0585Z" fill="white"/>
<path d="M17.6795 40.2852C17.7192 39.7584 16.6334 39.2488 15.2543 39.1471C13.8751 39.0455 12.7249 39.3902 12.6852 39.9171C12.6455 40.444 13.7313 40.9535 15.1104 41.0552C16.4895 41.1569 17.6397 40.8121 17.6795 40.2852Z" fill="white"/>
<path d="M20.723 42.9402C21.5977 42.1359 22.0464 41.2071 21.7254 40.8657C21.4043 40.5242 20.435 40.8995 19.5603 41.7038C18.6856 42.5081 18.2368 43.4369 18.5579 43.7783C18.879 44.1197 19.8483 43.7445 20.723 42.9402Z" fill="white"/>
<path d="M26.4271 43.6148C27.6722 42.5204 28.3429 41.2565 27.9253 40.7919C27.5076 40.3273 26.1597 40.8379 24.9146 41.9324C23.6695 43.0268 22.9987 44.2907 23.4164 44.7553C23.8341 45.2199 25.182 44.7093 26.4271 43.6148Z" fill="white"/>
<path d="M33.8686 30.3456C34.076 29.9618 33.435 29.2232 32.437 28.6959C31.439 28.1685 30.4618 28.0522 30.2544 28.436C30.047 28.8197 30.688 29.5584 31.686 30.0857C32.684 30.613 33.6612 30.7294 33.8686 30.3456Z" fill="white"/>
<path d="M22.1387 28.2687C22.4464 27.7992 21.7122 26.7882 20.4989 26.0106C19.2855 25.2329 18.0524 24.9831 17.7447 25.4526C17.437 25.9221 18.1711 26.9331 19.3845 27.7108C20.5979 28.4884 21.831 28.7382 22.1387 28.2687Z" fill="white"/>
<path d="M35.7023 22.5427C36.6621 21.7888 37.2025 20.8816 36.9092 20.5166C36.6159 20.1515 35.6001 20.4668 34.6403 21.2208C33.6804 21.9747 33.1401 22.8819 33.4333 23.2469C33.7266 23.612 34.7424 23.2967 35.7023 22.5427Z" fill="white"/>
<path d="M37.6289 26.3531C38.761 25.4638 39.3935 24.3878 39.0416 23.9497C38.6897 23.5117 37.4867 23.8775 36.3546 24.7668C35.2224 25.656 34.59 26.7321 34.9419 27.1701C35.2938 27.6082 36.4968 27.2424 37.6289 26.3531Z" fill="white"/>
<path d="M39.5659 32.7638C40.4975 31.6301 40.8968 30.425 40.4577 30.0722C40.0186 29.7195 38.9074 30.3525 37.9758 31.4863C37.0443 32.62 36.645 33.8251 37.0841 34.1779C37.5232 34.5306 38.6344 33.8976 39.5659 32.7638Z" fill="white"/>
<path d="M42.09 40.9017C42.5546 40.4381 41.9539 39.1045 40.7483 37.9231C39.5427 36.7417 38.1887 36.1598 37.7241 36.6234C37.2595 37.0871 37.8601 38.4206 39.0658 39.602C40.2714 40.7834 41.6253 41.3653 42.09 40.9017Z" fill="white"/>
<path d="M37.7612 43.126C38.2394 42.8902 38.1266 41.7069 37.5094 40.4831C36.8922 39.2592 36.0042 38.4583 35.526 38.6941C35.0478 38.9299 35.1605 40.1132 35.7778 41.337C36.395 42.5609 37.283 43.3618 37.7612 43.126Z" fill="white"/>
<path d="M41.7616 16.6815C42.5593 15.4889 42.8447 14.2858 42.399 13.9942C41.9533 13.7027 40.9452 14.4332 40.1475 15.6258C39.3498 16.8184 39.0644 18.0215 39.5102 18.313C39.9559 18.6045 40.9639 17.8741 41.7616 16.6815Z" fill="white"/>
<path d="M46.8883 12.3804C47.8104 11.5817 48.306 10.65 47.9954 10.2993C47.6847 9.94861 46.6854 10.3118 45.7633 11.1105C44.8412 11.9092 44.3456 12.8409 44.6562 13.1916C44.9669 13.5423 45.9662 13.1791 46.8883 12.3804Z" fill="white"/>
<path d="M52.1149 25.0345C53.1712 24.4195 53.8335 23.5952 53.5943 23.1935C53.3551 22.7917 52.3049 22.9647 51.2486 23.5797C50.1922 24.1948 49.5299 25.019 49.7691 25.4208C50.0083 25.8225 51.0586 25.6496 52.1149 25.0345Z" fill="white"/>
<path d="M50.4705 30.312C51.7116 29.7827 52.546 28.9602 52.3344 28.4751C52.1227 27.9899 50.9451 28.0258 49.7041 28.5551C48.4631 29.0845 47.6286 29.907 47.8403 30.3921C48.0519 30.8773 49.2295 30.8414 50.4705 30.312Z" fill="white"/>
<path d="M22.7714 20.2187C23.1756 19.9787 22.9915 18.9418 22.3603 17.9027C21.7291 16.8636 20.8898 16.2159 20.4857 16.456C20.0815 16.696 20.2656 17.7329 20.8968 18.772C21.528 19.8111 22.3673 20.4588 22.7714 20.2187Z" fill="white"/>
<path d="M11.264 21.1681C11.3798 20.6522 10.4785 20.0158 9.25104 19.7465C8.02357 19.4772 6.93468 19.6771 6.81894 20.1929C6.7032 20.7088 7.60444 21.3453 8.83192 21.6145C10.0594 21.8838 11.1483 21.6839 11.264 21.1681Z" fill="white"/>
<path d="M9.16807 29.1323C9.73939 27.8868 9.76163 26.6794 9.21776 26.4355C8.67388 26.1915 7.76984 27.0034 7.19852 28.2488C6.62721 29.4943 6.60496 30.7017 7.14883 30.9456C7.69271 31.1896 8.59675 30.3777 9.16807 29.1323Z" fill="white"/>
<path d="M20.7197 9.16867C20.9845 8.74587 20.2893 7.84596 19.1669 7.15867C18.0445 6.47138 16.92 6.25696 16.6552 6.67977C16.3904 7.10257 17.0857 8.00247 18.208 8.68977C19.3304 9.37706 20.4549 9.59147 20.7197 9.16867Z" fill="white"/>
<path d="M24.7818 8.69041C25.285 8.3724 25.0205 7.07433 24.1912 5.79108C23.3618 4.50782 22.2815 3.72534 21.7783 4.04334C21.2751 4.36135 21.5395 5.65942 22.3689 6.94267C23.1983 8.22593 24.2786 9.00841 24.7818 8.69041Z" fill="white"/>
<path d="M36.7753 12.8516C37.1795 12.6115 36.9954 11.5746 36.3642 10.5355C35.733 9.49645 34.8937 8.84873 34.4896 9.08878C34.0854 9.32884 34.2695 10.3658 34.9007 11.4048C35.5319 12.4439 36.3712 13.0916 36.7753 12.8516Z" fill="white"/>
<path d="M15.4696 28.5249C15.822 28.1276 15.2647 27.0746 14.225 26.1728C13.1852 25.271 12.0567 24.862 11.7044 25.2593C11.352 25.6565 11.9093 26.7095 12.949 27.6113C13.9888 28.5131 15.1173 28.9221 15.4696 28.5249Z" fill="white"/>
<path d="M35.3989 30.3886C34.8867 29.5444 34.2038 28.8128 33.7485 28.4189C34.3745 29.4882 35.342 31.7955 35.0575 33.8215C34.8298 35.6786 33.6347 37.6483 31.3582 38.2674C29.0817 37.7046 27.8865 35.7349 27.6589 33.8215C27.3743 31.7392 28.3987 29.4882 28.9679 28.4189C28.0573 29.2068 26.2361 31.3453 26.4068 33.5401C26.5206 34.947 27.2036 36.2977 27.8865 37.3107C28.5126 38.2674 29.0248 39.3366 29.0248 40.4622C29.0248 41.2501 28.9679 42.2631 28.7402 43.5574C28.228 46.7652 26.1791 49.2414 24.9271 50.0856C24.8702 50.0856 25.0409 50.1981 26.5775 50.5921C28.1142 50.986 30.3907 51.0423 31.3582 50.986C32.3257 50.986 34.6022 50.986 36.1388 50.5921C37.6754 50.1981 37.8462 50.0856 37.7893 50.0856C36.5372 49.2414 34.4314 46.7652 33.9761 43.5574C33.8054 42.2068 33.6916 41.1938 33.6916 40.4622C33.6916 39.3366 34.2038 38.2674 34.8298 37.3107C35.5128 36.2977 36.1388 34.947 36.3095 33.5401C36.3665 32.6397 36.1957 31.683 36.4234 30.8388C36.651 29.8821 37.1063 28.9817 37.8462 28.5315C38.8706 27.9687 39.6105 28.3626 40.3503 28.7566C40.8056 28.9817 41.204 29.2068 41.7162 29.2068C42.7406 29.2068 43.7081 28.4752 44.0496 28.1375C43.6512 28.4752 42.5699 29.0379 41.4317 28.5315C41.0902 28.3626 40.8056 28.2501 40.5211 28.0812C39.6105 27.5747 38.8137 27.1808 37.5047 27.5185C36.3095 27.8561 35.6835 29.3193 35.3989 30.3886Z" fill="white"/>
<path d="M47.2366 27.35C46.0984 29.4885 44.1634 30.2201 43.082 30.5015C49.5131 31.1768 50.0253 24.2547 47.635 22.5664C47.9765 23.0729 48.318 25.2677 47.2366 27.35Z" fill="white"/>
<path d="M38.3034 16.5453C38.1895 14.1254 39.4985 12.5496 40.2953 11.7617C34.4333 14.3505 37.4497 20.5972 40.3522 20.8786C39.84 20.5972 38.4172 18.8526 38.3034 16.5453Z" fill="white"/>
<path d="M32.8407 23.0735C32.613 25.0432 33.5236 26.844 33.9789 27.5194C33.2391 27.0129 31.7024 25.4371 31.7594 23.4111C31.8163 21.3852 33.2391 19.0778 33.9789 18.1211C33.6944 18.9652 33.0683 21.1038 32.8407 23.0735Z" fill="white"/>
<path d="M30.107 11.4233C30.733 11.986 31.8144 12.1549 32.2697 12.1549C29.7655 13.2804 29.0257 11.2544 28.9688 10.1289C29.0257 10.354 29.424 10.8605 30.107 11.4233Z" fill="white"/>
<path d="M17.016 21.9467C18.7803 23.016 21.3983 25.2108 22.4796 26.1675C21.7967 25.661 17.8697 23.1848 15.8209 22.5095C13.7151 21.8342 12.52 22.0593 11.4386 23.5788C10.5849 24.7606 10.4142 26.9554 10.528 27.8558C10.3573 27.4619 10.0158 26.3363 10.0727 25.042C10.1296 23.7476 10.7557 22.3407 11.7232 21.6091C12.6907 20.8775 14.7965 20.6524 17.016 21.9467Z" fill="white"/>
<path d="M22.7653 35.2289C22.5946 37.0297 23.5621 38.2115 24.0743 38.5492C20.7734 37.4237 21.7409 34.1596 22.5376 32.2462C23.1637 30.7267 23.1637 28.8133 23.0499 28.0254C23.2206 28.1942 23.5052 28.757 23.5621 29.9951C23.5621 31.5146 22.936 32.9778 22.7653 35.2289Z" fill="white"/>
<path d="M23.788 22.9032C23.2189 24.9292 24.5848 27.4616 25.3247 28.4183C23.4465 26.8426 22.7636 25.4356 22.7067 23.8599C22.6498 22.2841 23.2758 21.3837 24.5279 19.414C25.2108 18.3447 26.5767 16.2625 26.9751 15.4746C26.9751 15.8123 26.5198 17.0504 25.8938 18.401C25.1539 20.0331 24.5279 20.3707 23.788 22.9032Z" fill="white"/>
<path d="M22.2537 39.4496C24.8717 39.731 26.4083 38.7742 26.8636 38.2678C26.8636 38.4366 25.1562 40.8565 22.1399 40.35C19.7495 39.9561 17.1316 37.9864 16.1641 37.0859C17.1316 37.7613 19.6357 39.1682 22.2537 39.4496Z" fill="white"/>
<path d="M31.0764 36.9168C30.5642 36.4666 29.4259 35.3973 28.8568 34.5532C28.2308 33.5965 28.2308 31.9644 29.6536 31.8519C30.6211 31.7956 31.1902 32.8086 31.3609 33.2588C31.4748 32.8086 32.0439 31.7956 33.0683 31.8519C34.4911 31.9644 34.4342 33.5965 33.8651 34.5532C33.2959 35.3973 32.1577 36.5229 31.6455 36.9168C31.5317 37.0294 31.4178 37.0856 31.4178 37.1419C31.304 37.0856 31.1902 37.0294 31.0764 36.9168Z" fill="white"/>
<path d="M27.0327 28.7011C26.5774 28.1946 25.6099 26.8439 25.2115 25.8872C24.7562 24.818 25.0408 23.1859 26.4636 23.2985C27.488 23.411 27.8864 24.5366 27.8864 24.9868C28.114 24.5366 28.8539 23.6362 29.8214 23.9175C31.2442 24.2552 30.9027 25.9435 30.106 26.7877C29.423 27.5193 28.0571 28.4197 27.4311 28.7574C27.2603 28.8136 27.2034 28.8699 27.1465 28.9262C27.2034 28.9262 27.1465 28.8136 27.0327 28.7011Z" fill="white"/>
<path d="M32.439 18.121C31.8699 17.7271 30.6747 16.7141 30.1056 15.87C29.4796 14.9695 29.3088 13.3375 30.7316 13.1124C31.6992 12.9998 32.3252 13.9565 32.4959 14.4067C32.6098 13.9565 33.122 12.8873 34.0895 12.9435C35.5123 12.9435 35.5692 14.6319 35.057 15.5886C34.5448 16.489 33.4634 17.6145 32.9512 18.0648C32.8374 18.1773 32.7236 18.2336 32.7236 18.2899C32.6667 18.2899 32.6098 18.2336 32.439 18.121Z" fill="white"/>
<path d="M25.2112 15.9247C24.4144 15.587 22.6501 14.6303 21.6826 13.7298C20.6582 12.7731 20.0321 10.7472 21.7395 10.1844C22.9347 9.79046 23.9591 10.8034 24.3006 11.3099C24.3006 10.6909 24.699 9.28396 25.8941 9.05885C27.6584 8.72119 28.2275 10.7472 27.7722 12.0978C27.3738 13.3359 26.3494 15.0805 25.8372 15.7558C25.7234 15.9247 25.6096 16.0372 25.6096 16.0935C25.4957 16.0935 25.3819 16.0372 25.2112 15.9247Z" fill="white"/>
<path d="M38.8166 11.085C38.3613 10.2971 37.5645 8.27113 37.3369 6.92049C37.1092 5.45728 37.9629 3.31875 39.7841 3.9378C41.0362 4.38802 41.2069 5.9075 41.15 6.58282C41.5484 6.07633 42.8574 5.11962 44.0525 5.73867C45.7599 6.6391 44.8493 8.66507 43.5972 9.56551C42.459 10.3534 40.4101 11.085 39.4995 11.3664C39.2719 11.4226 39.1581 11.4789 39.1011 11.4789C38.9873 11.4226 38.9304 11.3101 38.8166 11.085Z" fill="white"/>
<path d="M44.45 39.6181C43.6532 38.8865 42.0028 36.9731 41.2629 35.5662C40.4661 33.9904 40.6369 31.4017 42.8565 31.4579C44.45 31.5142 45.1899 33.1462 45.3606 33.8778C45.6452 33.1462 46.6696 31.683 48.2631 31.9081C50.4827 32.2458 50.2551 34.8908 49.1737 36.2415C48.2062 37.4796 46.2143 39.0553 45.3037 39.6744C45.076 39.8432 44.9053 39.8995 44.9053 39.9558C44.7915 39.8995 44.6207 39.7869 44.45 39.6181Z" fill="white"/>
<path d="M49.1741 22.5105C49.1172 22.4542 48.9464 22.3979 48.7188 22.2291C47.8082 21.7226 45.8162 20.3157 44.7349 19.1339C43.5967 17.8395 43.1414 15.3633 45.304 14.8568C46.7837 14.5192 47.922 15.9261 48.2066 16.6014C48.3204 15.8698 48.9464 14.2378 50.483 14.1252C52.7026 13.9564 53.0441 16.4889 52.3042 18.0083C51.6782 19.4153 50.1416 21.385 49.4017 22.1166C49.3448 22.2854 49.231 22.4542 49.1741 22.5105Z" fill="white"/>
<path d="M43.252 27.6319C43.195 27.5757 43.0812 27.5194 42.9674 27.4068C42.3414 26.9003 40.9755 25.6622 40.3494 24.6493C39.6096 23.58 39.6096 21.6103 41.26 21.4977C42.3983 21.3852 43.0812 22.567 43.252 23.1298C43.4227 22.567 44.1056 21.4415 45.2439 21.4977C46.8943 21.6103 46.8943 23.5237 46.2114 24.6493C45.5854 25.6622 44.2195 26.9566 43.5934 27.4068C43.3658 27.5194 43.3089 27.6319 43.252 27.6319Z" fill="white"/>
<path d="M18.3255 37.1424C17.3011 36.7484 14.9108 35.6792 13.6587 34.6099C12.2359 33.4844 11.3253 30.9519 13.488 30.0515C14.9677 29.4324 16.3905 30.6705 16.8458 31.3458C16.8458 30.5579 17.1873 28.7571 18.7808 28.3631C21.0573 27.8004 21.8541 30.3328 21.3988 32.0774C21.0004 33.6532 19.7483 35.9605 19.1223 36.861C18.9515 37.0861 18.8946 37.2549 18.8377 37.3112C18.7239 37.2549 18.5532 37.1986 18.3255 37.1424Z" fill="white"/>
<path d="M16.1626 20.8785C14.9675 20.4283 12.2926 19.1902 10.8129 18.0084C9.21931 16.714 8.13797 13.7876 10.6421 12.8309C12.3495 12.1556 13.9999 13.5625 14.5122 14.2941C14.5122 13.3937 14.9105 11.3114 16.7317 10.8612C19.2928 10.1859 20.2603 13.1686 19.7481 15.1383C19.2928 16.9391 17.87 19.5842 17.187 20.6534C17.0163 20.9348 16.9025 21.1036 16.8456 21.1599C16.6748 21.1036 16.4472 20.9911 16.1626 20.8785Z" fill="white"/>
<path d="M30.3334 10.4665C29.4228 9.73486 27.5447 7.76516 26.6341 6.30196C25.6665 4.66992 25.6665 1.85607 28.1138 1.74352C29.8212 1.68724 30.7317 3.43183 30.9594 4.21971C31.244 3.43183 32.2684 1.79979 33.9758 1.96863C36.423 2.19373 36.2522 5.00759 35.1709 6.58334C34.2034 7.99027 32.1546 9.79114 31.187 10.5227C30.9594 10.6916 30.7887 10.8041 30.7317 10.8604C30.6748 10.7478 30.5041 10.6353 30.3334 10.4665Z" fill="white"/>
</g>
</svg>
