<svg width="171" height="41" viewBox="0 0 171 41" fill="none" xmlns="http://www.w3.org/2000/svg">
<g opacity="0.4" clip-path="url(#clip0_7251_9223)">
<path d="M12.7027 39.3956C7.95948 37.424 4.12702 33.7814 1.94941 29.175C-0.228202 24.5685 -0.595579 19.327 0.918601 14.468C2.43278 9.60901 5.72047 5.47926 10.1434 2.88052C14.5663 0.281785 19.8089 -0.60051 24.8532 0.404933C29.8975 1.41038 34.3837 4.23182 37.4409 8.32148C40.4979 12.4111 41.9078 17.4772 41.3967 22.5361C40.8856 27.595 38.49 32.2858 34.675 35.6979C30.8599 39.1098 25.8977 40.9995 20.7518 41C17.987 41.004 15.2497 40.4584 12.7027 39.3956ZM3.22285 24.3433V24.4521L3.18586 24.526V24.7827C3.18491 24.8831 3.17828 24.9834 3.16601 25.0831C3.15541 25.1656 3.14939 25.2486 3.14797 25.3318V25.5145C3.14797 25.551 3.17594 25.5796 3.20841 25.6107C3.24813 25.6442 3.27909 25.6868 3.29863 25.7346C3.29626 25.7602 3.29173 25.7855 3.28509 25.8104C3.27241 25.8576 3.26455 25.906 3.26164 25.9548C3.27134 25.9545 3.28094 25.9568 3.28939 25.9614C3.29783 25.9661 3.30478 25.9731 3.30946 25.9815C3.31991 26.0067 3.32437 26.0341 3.3225 26.0612C3.32062 26.0884 3.31245 26.1148 3.29863 26.1384H3.33562V26.248C3.37532 26.2712 3.41501 26.2989 3.4538 26.3246C3.53808 26.3976 3.64111 26.4459 3.75152 26.4647C3.78847 26.4647 3.82437 26.4524 3.85345 26.4299L3.96532 26.3212L4.0393 26.3568L4.07539 26.1009C4.14276 26.1532 4.22319 26.1865 4.30814 26.1972C4.32142 26.1979 4.33469 26.1957 4.34701 26.1908C4.35933 26.1859 4.3704 26.1784 4.37942 26.1687C4.39607 26.1424 4.40727 26.1131 4.41238 26.0825C4.4175 26.0519 4.41641 26.0206 4.40918 25.9904C4.41578 25.9941 4.42326 25.996 4.43083 25.9958C4.46331 25.9958 4.48948 25.9601 4.51655 25.9236C4.53591 25.8914 4.56244 25.864 4.59413 25.8434L5.03889 25.7337L5.29691 25.6972H5.37179C5.51459 25.6676 5.65928 25.6476 5.80483 25.6375C6.17171 25.638 6.52815 25.5168 6.81704 25.2934H7.44856C7.73003 25.4021 8.10894 25.5332 8.47612 25.6606C8.80814 25.7627 9.13353 25.8848 9.45045 26.0261L9.52442 25.9164C9.33526 25.7648 9.10964 25.6641 8.86946 25.6242C8.69673 25.5881 8.53061 25.5262 8.37688 25.4405L8.67279 25.5501C8.6367 25.5136 8.59971 25.4681 8.56363 25.4254C8.52822 25.3793 8.49027 25.3353 8.44995 25.2934H9.1807C8.92461 25.2952 8.6686 25.283 8.41387 25.2569L8.33628 25.1891L8.11345 25.1527C8.05301 25.1304 7.99075 25.1089 7.93302 25.0884C7.69574 25.0331 7.47772 24.9162 7.30151 24.7497L7.22753 24.641C7.32061 24.6874 7.41097 24.7388 7.49818 24.7952C7.58168 24.8536 7.6727 24.9007 7.76883 24.9351C7.88044 24.9921 7.99624 25.0407 8.11525 25.0804L8.05752 25.0046H8.07195H8.07737L8.04128 24.9682L8.15224 25.0046H8.19194C8.11601 24.9308 8.04827 24.8493 7.98986 24.7614C7.85002 24.5733 7.69304 24.362 7.57395 24.362C7.51983 24.362 7.48374 24.4039 7.44947 24.4913C7.46119 24.5029 7.4657 24.5109 7.4648 24.518C7.46389 24.5251 7.45577 24.5323 7.44405 24.5403C7.43332 24.548 7.42308 24.5564 7.41337 24.5652C7.22302 24.4521 6.99027 24.3059 6.72051 24.1329L6.69165 24.1142L6.70969 24.1259V24.1624L6.6727 24.1989L6.59873 24.2712C6.57897 24.2862 6.554 24.2929 6.52926 24.2899C6.50761 24.2899 6.48776 24.2899 6.48776 24.3086V24.3825C6.46859 24.3902 6.44799 24.3938 6.42731 24.3932H6.36416C6.34283 24.3905 6.32119 24.3953 6.30316 24.4069C6.28513 24.4185 6.27188 24.4361 6.26582 24.4565C6.25771 24.4565 6.23336 24.4209 6.19365 24.3674L6.14494 24.2979C6.0881 24.2167 6.03307 24.141 6.01142 24.141C6.00601 24.141 6.0024 24.1472 6.0024 24.1597C6.01419 24.209 6.01815 24.2598 6.01412 24.3104C6.00781 24.3104 6.00059 24.3032 5.99247 24.2934C5.98075 24.277 5.96571 24.2633 5.94831 24.2531C5.93091 24.2428 5.91154 24.2362 5.89143 24.2336L5.85444 24.3424C5.83781 24.3293 5.81783 24.321 5.79671 24.3184C5.77595 24.3184 5.76513 24.3361 5.7507 24.3611C5.73128 24.3969 5.70343 24.4275 5.6695 24.4503C5.65824 24.4629 5.64435 24.4729 5.62876 24.4797C5.61319 24.4865 5.59631 24.4898 5.57928 24.4895C5.56667 24.4902 5.55402 24.4902 5.54139 24.4895C5.52817 24.4888 5.51492 24.4888 5.5017 24.4895C5.46381 24.4895 5.42231 24.5037 5.37089 24.6062L5.14805 24.7889C5.10139 24.7921 5.0559 24.8048 5.01453 24.8264C4.97776 24.8453 4.93761 24.8567 4.89635 24.8603C4.84042 24.8603 4.7908 24.8255 4.74118 24.7515C4.72096 24.7858 4.69178 24.814 4.6567 24.8334C4.62162 24.8526 4.58193 24.8622 4.5418 24.8611C4.49452 24.857 4.44789 24.8475 4.40288 24.8326C4.35954 24.8211 4.31508 24.8143 4.27025 24.8121C4.25504 24.8118 4.23985 24.8136 4.22514 24.8175C4.19661 24.8296 4.16599 24.8363 4.13493 24.8371C4.04021 24.8371 3.97705 24.7684 3.89676 24.6802C3.8715 24.6535 3.84624 24.6259 3.81827 24.5982L3.7046 24.5652C3.70298 24.5635 3.70103 24.5622 3.69885 24.5613C3.69668 24.5604 3.69434 24.5598 3.69198 24.5599C3.67754 24.5599 3.6631 24.5804 3.64867 24.6018C3.63423 24.6232 3.61979 24.6454 3.60536 24.6454C3.60098 24.645 3.59687 24.6431 3.59364 24.6402V24.5652L3.55755 24.5287V24.3068L3.3717 24.198L3.22285 24.3433ZM22.7519 26.3568H22.825L22.788 26.3933C22.8194 26.3847 22.8497 26.3724 22.8782 26.3568H22.8971H22.8917H22.8827C22.9007 26.3443 22.9107 26.3318 22.9107 26.3194C22.9107 26.3139 22.9094 26.3085 22.9071 26.3036C22.9047 26.2987 22.9014 26.2944 22.8971 26.2908C23.0272 26.202 23.1796 26.1505 23.3373 26.1419C23.4798 26.1276 23.6189 26.0909 23.7497 26.0332L23.7866 26.1072L23.8597 26.0706C23.8967 26.1259 23.9698 26.1259 24.0401 26.1259C24.1106 26.1259 24.1746 26.1259 24.1935 26.1803C24.1232 26.2391 24.0363 26.2751 23.9445 26.2836C23.9324 26.2844 23.9202 26.2819 23.9093 26.2766C23.9054 26.2742 23.9021 26.2707 23.8998 26.2667C23.8976 26.2626 23.8965 26.258 23.8967 26.2534C23.8597 26.2784 23.8417 26.2971 23.8453 26.3095C23.8489 26.322 23.8715 26.3282 23.9138 26.3282C24.0709 26.3168 24.2267 26.2918 24.3794 26.2534C24.3207 26.2436 24.2892 26.232 24.2892 26.2169C24.2892 26.2016 24.3658 26.158 24.429 26.1331C24.4525 26.1232 24.4741 26.1152 24.4885 26.1081L24.4515 26.1811C24.5565 26.1772 24.6561 26.135 24.7312 26.0626C24.7765 26.016 24.8368 25.9863 24.9018 25.9789C24.9536 25.9824 25.003 26.0018 25.0434 26.0342L25.0804 25.9245L25.3393 25.961C25.3203 25.8514 25.406 25.8229 25.4881 25.797C25.5703 25.7711 25.6542 25.7418 25.637 25.6321C25.6745 25.6155 25.7143 25.605 25.7552 25.6009C25.7684 25.6009 25.7765 25.6042 25.7795 25.6107C25.784 25.6188 25.7795 25.633 25.7669 25.6544C25.7543 25.6758 25.7552 25.6714 25.7507 25.6794C25.7462 25.6874 25.7318 25.7052 25.7335 25.7079C25.7376 25.7089 25.742 25.7089 25.7462 25.7079C25.9039 25.6835 26.0536 25.6224 26.1828 25.5296C26.2634 25.4706 26.3555 25.4289 26.4535 25.4075C26.4665 25.407 26.4794 25.4104 26.4905 25.4174L26.4535 25.4539L26.5283 25.4904L26.4913 25.4539L26.4994 25.4485C26.6081 25.3685 26.7303 25.3081 26.8604 25.2703H27.3051C27.5751 25.4826 27.8957 25.623 28.2361 25.6785C28.3264 25.7008 28.4111 25.7231 28.4905 25.7462L28.4535 25.7828H28.7124C28.6985 25.7972 28.6879 25.8145 28.6815 25.8335C28.6751 25.8524 28.6731 25.8726 28.6754 25.8924C28.9401 25.967 29.2126 26.0118 29.4873 26.0261C29.6127 26.0333 29.7373 26.0019 29.8438 25.9361C29.8393 25.9512 29.8554 25.9699 29.8717 25.9896C29.8879 26.0091 29.9114 26.0359 29.9033 26.0564C29.8952 26.0769 29.86 26.0921 29.795 26.1009C29.9123 26.0894 30.0395 26.0885 30.1252 26.0885H30.2948H30.4834C30.748 26.094 31.0126 26.0724 31.2728 26.0243L31.3476 25.9886L31.3882 25.9806C31.5605 25.9639 31.7251 25.9024 31.8655 25.8024C31.8934 25.8343 31.9275 25.8604 31.9658 25.8792C32.004 25.898 32.0457 25.9092 32.0884 25.912C32.0867 25.9085 32.0859 25.9047 32.0859 25.9009C32.0859 25.897 32.0867 25.8932 32.0884 25.8897C32.1081 25.8567 32.2029 25.8398 32.3238 25.8184C32.5114 25.7846 32.7441 25.7418 32.828 25.6188C32.8461 25.6375 32.828 25.6553 32.8146 25.6696C32.801 25.6839 32.801 25.6829 32.802 25.6874C32.8028 25.6919 32.8118 25.6927 32.828 25.6927C33.0297 25.6079 33.2242 25.5074 33.41 25.3924C33.5579 25.3032 33.7113 25.2194 33.8611 25.1428L36.1218 25.1063C36.3204 25.2092 36.5246 25.3012 36.7336 25.3816C36.943 25.4614 37.1475 25.5531 37.3461 25.6562C37.3516 25.6562 37.357 25.6542 37.3612 25.6507C37.3653 25.6471 37.368 25.642 37.3686 25.6366C37.3697 25.6172 37.3645 25.5981 37.3536 25.582C37.3427 25.5659 37.3267 25.5538 37.3082 25.5474C37.3961 25.58 37.4896 25.5949 37.5833 25.5911H37.7079H37.8251C37.9536 25.5851 38.0815 25.6092 38.1986 25.6616L38.1238 25.6981C38.2095 25.7339 38.3013 25.7539 38.3944 25.7569C38.4982 25.752 38.599 25.7213 38.6876 25.6678C38.8308 25.5905 38.987 25.5395 39.1486 25.5171C39.1057 25.5201 39.0631 25.5267 39.0215 25.5368C38.9566 25.5518 38.8904 25.5611 38.8238 25.5644C38.7625 25.5644 38.7282 25.5484 38.7164 25.5154C38.7361 25.4946 38.7627 25.4816 38.7914 25.4789C38.8349 25.4763 38.878 25.47 38.9203 25.4602C38.9627 25.4498 39.0058 25.4435 39.0493 25.4414C39.0695 25.4389 39.0901 25.4409 39.1094 25.4473C39.1288 25.4536 39.1465 25.464 39.1612 25.4779V25.4414C39.3428 25.4074 39.5221 25.3625 39.6981 25.3068L39.8649 25.2586L39.9145 25.2462C40.0436 25.2289 40.1669 25.1829 40.2754 25.1117L40.5714 24.9289C40.5423 24.9436 40.5121 24.9558 40.4812 24.9654C40.4502 24.9754 40.42 24.9876 40.3908 25.002L37.4263 25.0385C37.3361 25.0198 37.2388 24.9921 37.1476 24.9646C37.0566 24.9369 36.9672 24.9111 36.877 24.8924H36.9193C36.9528 24.8924 36.9843 24.8924 37.0096 24.8924C37.0349 24.8924 37.052 24.8924 37.0574 24.8844C37.0026 24.8652 36.9451 24.8547 36.8869 24.8531C36.8645 24.8531 36.8422 24.8553 36.8201 24.8594L36.6469 24.7774C36.521 24.7221 36.3981 24.6601 36.2788 24.592H36.3528C36.2833 24.5688 36.2138 24.5411 36.212 24.5136C36.212 24.5019 36.2211 24.4921 36.2418 24.4814C36.2018 24.466 36.1594 24.4566 36.1165 24.4539C36.0825 24.4554 36.0495 24.4649 36.02 24.4814C35.9936 24.461 35.9627 24.4472 35.9297 24.4414C35.8987 24.4334 35.8685 24.4226 35.8395 24.4093C35.8395 24.4093 35.835 24.4093 35.8269 24.4048C35.789 24.395 35.6861 24.3701 35.668 24.3237C35.6654 24.316 35.6647 24.3078 35.6661 24.3C35.6676 24.292 35.671 24.2845 35.6762 24.2782C35.6549 24.296 35.6274 24.305 35.5995 24.3032C35.5417 24.2987 35.4847 24.287 35.4299 24.2684C35.3585 24.2446 35.2841 24.2305 35.2089 24.2266C35.2048 24.2194 35.2027 24.2114 35.2027 24.2034C35.2027 24.1953 35.2048 24.1873 35.2089 24.1802C35.2288 24.1454 35.3127 24.1419 35.3893 24.1383C35.4462 24.1383 35.4967 24.1329 35.5012 24.116C35.5057 24.0991 35.4949 24.0955 35.4732 24.0795C35.4457 24.076 35.4179 24.0743 35.3903 24.0741C35.1186 24.106 34.8572 24.195 34.6233 24.3353C35.0243 23.5853 35.4843 22.8677 35.9991 22.189C36.3181 21.762 36.6126 21.3177 36.8815 20.8583C36.88 20.7848 36.8657 20.7121 36.8391 20.6435C36.8293 20.6108 36.809 20.5821 36.7811 20.5619C36.7532 20.5418 36.7194 20.5313 36.6848 20.5321C36.3501 20.6061 35.9396 21.3476 35.8332 21.6311C35.0876 22.4198 34.5761 23.3961 34.3545 24.4529H34.3491C34.2932 24.4858 34.2323 24.5096 34.1687 24.5234C34.1687 24.4797 34.2066 24.4494 34.2373 24.4253C34.268 24.4012 34.2788 24.3924 34.2788 24.3771C34.2383 24.4153 34.1958 24.4513 34.1516 24.485C34.1055 24.52 34.0616 24.5575 34.0198 24.5974C33.8304 24.6722 33.6752 24.7489 33.5381 24.8175L33.834 24.4868C33.8029 24.5114 33.7637 24.524 33.724 24.5224L33.9044 24.3041C33.7194 24.3406 33.7194 24.4503 33.7194 24.5224C33.695 24.5224 33.6708 24.5224 33.6454 24.5224L33.7194 24.3763C33.5146 24.4431 33.5056 24.5359 33.4947 24.6437C33.4941 24.7192 33.4691 24.7925 33.4236 24.8531L33.1637 24.8166C32.9567 24.8789 32.7578 24.9648 32.571 25.0724H32.1262C32.2275 24.9424 32.3719 24.8519 32.534 24.8166C32.5406 24.8201 32.5462 24.8253 32.5503 24.8315C32.5543 24.8377 32.5568 24.8448 32.5574 24.8522C32.5574 24.8977 32.4727 24.9539 32.4284 24.9841C32.4179 24.9896 32.4081 24.9965 32.3996 25.0046C32.4076 25.0045 32.4155 25.0031 32.423 25.0002C32.451 24.9931 32.4843 24.9869 32.5231 24.9788C32.6891 24.9449 32.9184 24.8995 32.9743 24.7809L32.5664 24.9636C32.5493 24.9218 32.5466 24.8932 32.5583 24.8745C32.57 24.8558 32.6052 24.846 32.6422 24.8406C32.6793 24.8353 32.7325 24.8273 32.7514 24.7809C32.7276 24.7692 32.7014 24.7629 32.6747 24.7632C32.6034 24.7695 32.5341 24.7898 32.4709 24.8229C32.397 24.8605 32.3163 24.8832 32.2336 24.8896L32.2706 24.854C32.1253 24.9075 32.0594 24.936 31.9999 24.9628L31.9097 25.002C31.9214 24.9939 31.981 24.961 31.981 24.9272L31.7961 24.9636C31.7798 24.9797 31.7735 24.9913 31.7762 24.9993C31.7789 25.0074 31.7906 25.01 31.8105 25.01C31.8307 25.0094 31.8509 25.0076 31.8709 25.0046H31.906C31.8619 25.0243 31.805 25.0466 31.7256 25.0777L30.468 25.1L30.496 25.0733H30.4861C30.4483 25.0716 30.4109 25.0813 30.3787 25.1009L30.0179 25.1081C30.0102 25.1007 30.0021 25.0939 29.9935 25.0876C29.9691 25.0689 29.9547 25.0581 29.9746 25.0118H29.9602H29.9051C29.8251 25.0126 29.7452 25.0186 29.666 25.0297V25.0234C29.666 25.0162 29.6616 25.0056 29.648 24.9904L29.6823 24.9966L29.7932 24.9601H29.6128L29.5649 24.9173C29.5526 24.9076 29.5409 24.8972 29.5298 24.8862C29.4775 24.8862 29.4531 24.8914 29.4477 24.9031C29.4422 24.9146 29.4595 24.9324 29.4784 24.9529L29.4856 24.9601H29.455L29.4919 24.9654C29.5123 24.9829 29.5256 25.007 29.5298 25.0331C29.5099 25.0275 29.4892 25.0247 29.4684 25.0251C29.4383 25.0257 29.4082 25.028 29.3782 25.0323C29.3483 25.0359 29.3182 25.038 29.288 25.0385C29.2122 25.0385 29.1725 25.0144 29.159 24.9601C29.1391 24.9405 29.131 24.9254 29.1355 24.9155C29.1401 24.9057 29.1915 24.8932 29.2474 24.8896C29.3073 24.8944 29.3671 24.8807 29.4188 24.8504H28.8631L28.8316 24.8452L28.8631 24.8148H28.8513C28.7912 24.8189 28.7311 24.8058 28.6782 24.7774C28.6782 24.7489 28.6944 24.7346 28.726 24.7346C28.7741 24.7398 28.8207 24.7543 28.8631 24.7774C28.7741 24.7089 28.6637 24.6733 28.5509 24.6766C28.4003 24.6633 28.2695 24.6508 28.2695 24.4832C28.2183 24.4804 28.1681 24.468 28.1215 24.4467L28.1585 24.4111L28.0475 24.3745C27.5243 24.1828 27.4584 24.1249 27.4548 24.0982C27.4548 24.0857 27.4621 24.0786 27.472 24.0714C27.4819 24.0644 27.4873 24.0599 27.4864 24.0527C27.4855 24.0457 27.4801 24.0403 27.4666 24.0314C27.4511 24.0231 27.4351 24.0156 27.4188 24.0091C27.3896 24.0184 27.3591 24.0233 27.3286 24.0234C27.2925 24.0234 27.2654 24.0135 27.2591 23.9975C27.2527 23.9814 27.2591 23.9806 27.2663 23.9716L27.0083 24.1918C26.9666 24.2861 26.8992 24.3669 26.8134 24.4253C26.688 24.5359 26.5572 24.6499 26.5996 24.7819C26.574 24.7909 26.5473 24.7961 26.5202 24.797C26.501 24.7982 26.4821 24.7925 26.467 24.7809C26.4619 24.7763 26.4579 24.7706 26.4552 24.7643C26.4526 24.758 26.4513 24.7512 26.4517 24.7444C26.4323 24.7518 26.4119 24.756 26.3912 24.7569C26.3487 24.7569 26.3388 24.731 26.329 24.7043C26.319 24.6776 26.3091 24.6472 26.2622 24.6472C26.1985 24.6553 26.1371 24.6759 26.0818 24.7079C26.0818 24.6856 26.0952 24.6766 26.116 24.6642C26.1306 24.6559 26.1443 24.646 26.1566 24.6348H26.1512C26.0222 24.6348 26.0087 24.6847 26.0087 24.7061L25.9717 24.633C25.9752 24.6388 25.9771 24.6454 25.9771 24.6521C25.9771 24.6589 25.9752 24.6656 25.9717 24.6713C25.9428 24.7186 25.812 24.7427 25.7497 24.7427L25.8246 24.5599C25.7427 24.6368 25.6393 24.6878 25.5278 24.7061L25.6027 24.5974C25.4809 24.649 25.4818 24.6989 25.4818 24.7399C25.4835 24.7485 25.4832 24.7574 25.481 24.7658C25.4788 24.7743 25.4748 24.7822 25.4692 24.7889C25.4493 24.8086 25.3997 24.8166 25.3059 24.8166H25.6388C25.4241 24.9101 25.4088 25.0056 25.3961 25.0902C25.3941 25.1382 25.3753 25.1838 25.3428 25.2194L25.2689 25.256H24.457C24.5026 25.2139 24.5402 25.1641 24.5679 25.1089C24.6176 25.0784 24.6738 25.06 24.7322 25.0554C24.7584 25.0569 24.784 25.0652 24.8062 25.0794C24.8283 25.0937 24.8463 25.1133 24.8584 25.1366C24.8864 25.1758 24.9144 25.2132 24.9694 25.2132C25.0534 25.1995 25.1315 25.1617 25.1941 25.1045C25.1793 25.0825 25.1591 25.0647 25.1355 25.0527C25.1118 25.0406 25.0853 25.0348 25.0587 25.0359C24.9873 25.0396 24.9184 25.0634 24.8602 25.1045C24.8602 25.0492 24.9441 24.9734 25.018 24.9075L25.083 24.8478C24.8925 24.9097 24.6927 24.9399 24.4921 24.9369C24.4049 24.9377 24.3177 24.9445 24.2314 24.9574H24.1945C24.1069 25.0414 23.9943 25.0953 23.8733 25.1107C23.8567 25.1109 23.8403 25.1085 23.8246 25.1036C23.8246 25.1232 23.7921 25.1437 23.7506 25.1686C23.7104 25.192 23.6729 25.2195 23.6387 25.2506H23.0072V25.2142C23.0181 25.224 23.0309 25.2318 23.0448 25.2369C23.0587 25.2419 23.0736 25.2441 23.0884 25.2435C23.2648 25.1998 23.4276 25.1141 23.5629 24.9939L23.1561 24.9574C23.1732 24.9664 23.1804 24.9761 23.1804 24.9877C23.1804 25.0243 23.11 25.0715 23.0442 25.1036L23.0081 24.9949C23.0013 25.02 22.9854 25.0416 22.9635 25.0559C22.9415 25.0702 22.9151 25.0761 22.889 25.0724C22.8034 25.0651 22.7191 25.0468 22.6382 25.018L22.6184 25.0126C22.521 24.9785 22.4193 24.9581 22.3161 24.9521C22.2794 24.9494 22.2424 24.9551 22.2082 24.9687C22.1739 24.9824 22.1433 25.0035 22.1185 25.0305C22.1534 25.0323 22.1878 25.0391 22.2205 25.051C22.2495 25.0615 22.2799 25.0678 22.3107 25.0697C22.3338 25.069 22.356 25.0613 22.3745 25.0477C22.3931 25.0343 22.407 25.0155 22.4145 24.9939C22.4605 25.0126 22.4866 25.0331 22.4939 25.059C22.501 25.0849 22.4785 25.1348 22.4524 25.1722C22.433 25.1943 22.4199 25.2211 22.4145 25.2498H21.9697C21.8292 25.205 21.6923 25.1498 21.5601 25.0849C21.429 25.0205 21.2933 24.9657 21.1542 24.9209C21.2087 24.9236 21.262 24.9382 21.3102 24.9636C21.3423 24.9809 21.3776 24.9915 21.414 24.9949L21.45 24.9583C21.4509 24.9574 21.4513 24.9564 21.4513 24.9552C21.4513 24.9541 21.4509 24.9529 21.45 24.9521C21.2606 24.7795 21.0211 24.67 20.7653 24.6392C20.7206 24.6381 20.6763 24.6478 20.6363 24.6677C20.5759 24.6677 20.5036 24.6677 20.4126 24.6677C20.3926 24.6783 20.3736 24.6905 20.3557 24.7043C20.3256 24.7319 20.2868 24.7487 20.2457 24.7515C20.2271 24.752 20.2084 24.7493 20.1906 24.7435C20.1636 24.756 20.151 24.7649 20.1518 24.7684C20.1528 24.772 20.1518 24.7684 20.1627 24.7684C20.2097 24.7639 20.2564 24.7564 20.3025 24.7461L20.3874 24.731C20.4171 24.7248 20.4487 24.7194 20.4776 24.715C20.4045 24.8567 20.3783 24.8603 20.3395 24.8647C20.3007 24.8691 20.2556 24.8745 20.15 24.9975H20.1906L20.2276 25.0341L20.1906 25.0707C20.1582 25.0893 20.1223 25.1014 20.0851 25.1063C20.0589 25.1063 20.0517 25.0912 20.0427 25.0733V25.0671C20.0379 25.0543 20.0288 25.0435 20.017 25.0366C20.0052 25.0297 19.9914 25.0268 19.9777 25.0287C19.9629 25.0291 19.9481 25.0309 19.9336 25.0341C19.8739 25.1107 19.8298 25.1464 19.7883 25.1464C19.7631 25.1441 19.7388 25.1355 19.7179 25.1214H19.7107C19.6819 25.1046 19.6494 25.095 19.6159 25.0938C19.5412 25.1014 19.471 25.1327 19.4157 25.1829V25.1089C19.3149 25.155 19.2046 25.1769 19.0936 25.1732C18.9313 25.1675 18.7698 25.1478 18.611 25.1143C18.5162 25.0974 18.426 25.0813 18.3403 25.0724C18.3667 25.0854 18.3956 25.0923 18.4251 25.0929C18.4865 25.1 18.5631 25.1099 18.592 25.1517C18.5984 25.1617 18.6024 25.1729 18.6038 25.1847C18.6052 25.1964 18.6039 25.2083 18.6001 25.2194L18.1554 25.256C18.1346 25.2424 18.1113 25.2331 18.0868 25.2284C18.0508 25.2176 18.0128 25.2079 18.0101 25.1891C18.0075 25.1704 18.0201 25.1633 18.0453 25.1464L18.1942 25.1829L18.1156 25.1117C18.0002 25.1241 17.9352 25.1473 17.9281 25.1802C17.9208 25.2132 17.9687 25.2694 18.0264 25.3201C18.0445 25.3362 18.0624 25.3523 18.0787 25.3683H17.7828C17.8055 25.3512 17.8209 25.3264 17.8261 25.2988C17.8224 25.2686 17.8069 25.2411 17.7828 25.2221C17.708 25.2047 17.6313 25.1972 17.5545 25.1999C17.3784 25.1925 17.2028 25.2248 17.0412 25.2944C16.912 25.1371 16.7267 25.0347 16.5234 25.0082C16.352 24.9619 16.2167 24.9244 16.2257 24.8299C16.2186 24.8479 16.2062 24.8631 16.1901 24.8739C16.1739 24.8846 16.1549 24.89 16.1355 24.8896C16.1031 24.8882 16.0719 24.8776 16.0452 24.8594L16.1201 24.8229C16.0775 24.7964 16.0287 24.7817 15.9785 24.7801C15.9227 24.7828 15.8687 24.8008 15.8224 24.8317H15.8161C15.7771 24.8586 15.7317 24.8749 15.6843 24.879C15.6548 24.8785 15.6261 24.8699 15.6014 24.854L15.7115 24.7809C15.6049 24.7482 15.4937 24.7329 15.3821 24.7355C15.3272 24.7355 15.273 24.7355 15.2216 24.7399C15.1702 24.7444 15.1259 24.7399 15.0808 24.7399C15.1106 24.6232 15.1413 24.4913 15.171 24.3647C15.211 24.0886 15.2937 23.8201 15.4164 23.5688C15.5373 23.1793 15.6744 22.9832 15.8242 22.9832H15.8387C16.0922 22.9832 16.4105 23.4413 16.7481 23.9262C17.1017 24.4352 17.4698 24.9601 17.7882 24.9957H17.8251L17.8621 24.9592C17.9022 24.8934 17.9272 24.8198 17.9352 24.7435C17.9352 24.3727 17.4382 23.8879 16.9726 23.4618C16.6372 23.1855 16.3263 22.8814 16.0434 22.5527C16.0429 22.5509 16.0429 22.5491 16.0434 22.5474C16.4611 21.6836 18.0841 21.1552 19.0449 21.1212C19.035 21.2024 19.025 21.2852 19.0151 21.3717C18.9251 22.0168 18.8734 22.6664 18.86 23.3174C18.8394 23.834 18.941 24.3482 19.1568 24.8193C19.2298 24.8906 19.2659 24.8914 19.2669 24.8914C19.2859 24.8895 19.3043 24.8835 19.3208 24.8739C19.3372 24.8642 19.3513 24.8512 19.3622 24.8355C19.373 24.8199 19.3803 24.8022 19.3834 24.7834C19.3866 24.7648 19.3856 24.7457 19.3805 24.7274C19.3802 24.7209 19.3802 24.7144 19.3805 24.7079V22.7693C19.3654 22.3417 19.3777 21.9137 19.4175 21.4876C19.4526 21.1711 19.6187 21.0491 20.0112 21.0491C20.7599 21.1169 21.4827 21.3548 22.1231 21.7443C22.1448 21.7901 22.1571 21.8399 22.1591 21.8904C22.0986 22.2478 21.9837 22.5939 21.8181 22.9172C21.6173 23.309 21.4823 23.7305 21.4185 24.1651C21.4226 24.261 21.4617 24.3521 21.5286 24.4217L21.5656 24.4574H21.6025C21.8335 24.4012 21.9282 24.1241 22.0482 23.7746C22.0825 23.6757 22.1167 23.5742 22.1583 23.4689C22.2268 23.2514 22.2855 23.0233 22.3387 22.8157C22.3773 22.6397 22.4286 22.4665 22.4921 22.2978C22.529 22.1151 22.567 22.1151 22.603 22.1151H22.6211C22.7915 22.1151 23.2337 22.5705 23.2337 22.7033V22.7399H23.2706C23.5061 22.7782 23.6586 23.3638 23.7533 23.8023C23.7686 23.8718 23.7821 23.9422 23.7957 24.0109C23.8859 24.4565 23.9572 24.8326 24.309 24.8639H24.3406C24.4123 24.8068 24.4697 24.7341 24.5083 24.6516C24.5469 24.569 24.5658 24.4788 24.5634 24.3879C24.4169 23.5329 24.0617 22.7263 23.5286 22.0375C23.4941 21.9808 23.4689 21.9192 23.4537 21.8548C23.4958 21.8567 23.5377 21.8611 23.5792 21.8681C23.661 21.8811 23.7436 21.8885 23.8264 21.8904H23.8994C24.1083 21.9221 24.3197 21.9343 24.5309 21.927C24.9496 21.9181 25.3675 21.8847 25.7822 21.8271C26.0826 21.7915 26.3668 21.7594 26.6438 21.7434H26.6808L26.7178 21.7069C26.8707 21.6074 27.0558 21.5683 27.2366 21.5972H27.4223C27.5958 21.6022 27.7692 21.5899 27.9402 21.5606C28.6457 21.5382 29.3476 21.4512 30.0368 21.3004C30.6167 21.1787 31.2041 21.0944 31.7951 21.0481C32.8358 20.689 33.92 20.4672 35.0194 20.3886H35.5002V20.3405C35.5986 20.3259 35.6977 20.3172 35.7971 20.3147H36.056L36.093 20.279C36.1159 20.2615 36.1345 20.2391 36.1475 20.2134C36.1605 20.1878 36.1675 20.1597 36.1679 20.131C36.093 19.9483 35.9432 19.9483 35.798 19.9483L35.6726 19.9634C35.5285 19.9683 35.3868 20.0025 35.2567 20.0641C35.2142 20.0641 35.1665 20.0641 35.1286 20.0641C34.5782 20.0949 34.0305 20.1625 33.4894 20.2665L33.3874 20.2843C32.8341 20.361 32.2769 20.4065 31.7185 20.4207L31.538 20.4305C31.4343 20.443 31.3314 20.4519 31.233 20.4617C30.7441 20.5098 30.3219 20.5508 30.1676 20.7959C30.1685 20.7581 30.1584 20.7209 30.1386 20.6885C30.1189 20.6561 30.09 20.63 30.0557 20.6132H30.0187C29.6045 20.6314 29.1924 20.6827 28.7865 20.7665C28.3012 20.8668 27.8084 20.9264 27.3132 20.9448C26.9174 20.9717 26.5241 20.8655 26.1972 20.6435C26.1385 20.6197 26.0757 20.6073 26.0123 20.607C25.9805 20.6162 25.9479 20.6225 25.9148 20.6257C25.8174 20.6391 25.7064 20.6542 25.6784 20.7897C25.6785 20.7968 25.6804 20.8038 25.6837 20.8101C25.6869 20.8164 25.6917 20.822 25.6975 20.8262C25.703 20.8306 25.7076 20.8362 25.7109 20.8425C25.7141 20.8488 25.716 20.8558 25.7164 20.8628H25.7028C25.5328 20.8071 25.3745 20.7213 25.2355 20.6096L25.1986 20.5731H25.1616C25.1189 20.5727 25.0766 20.5794 25.0361 20.5927C25.0711 20.4165 25.0883 20.2374 25.0875 20.0579C25.0875 20.0374 25.0875 20.0169 25.0875 19.9964C25.0875 19.8262 25.0948 19.6506 24.8638 19.6185C24.7799 19.6185 24.7385 19.68 24.6753 19.7745C24.6546 19.8039 24.632 19.8386 24.6049 19.8752V19.9474C24.6281 20.0203 24.6421 20.0958 24.6464 20.172C24.6436 20.3745 24.7217 20.5699 24.8638 20.7157L24.9008 20.7522C24.9042 20.8543 24.9434 20.9519 25.0117 21.0286L25.0497 21.0829L25.0867 21.1186H23.9373L23.9743 21.0838C23.9764 21.0642 23.9829 21.0454 23.9932 21.0286C24.0035 21.0117 24.01 20.9928 24.0121 20.9733C24.0042 20.9375 23.9872 20.9044 23.9628 20.877C23.9383 20.8496 23.9072 20.8287 23.8723 20.8164C23.8558 20.8102 23.8405 20.8012 23.8272 20.7897H23.8173C23.7695 20.7821 23.7207 20.7931 23.681 20.8203C23.6413 20.8476 23.6138 20.889 23.6044 20.9359C23.6329 21.002 23.6859 21.0549 23.7523 21.0838L23.7885 21.1177C23.2731 21.1166 22.7605 21.0439 22.2656 20.902C21.7025 20.5505 21.0412 20.3838 20.3765 20.426C20.0328 20.426 19.698 20.4456 19.375 20.4635C19.0656 20.4813 18.7733 20.4982 18.4855 20.4982C18.1477 20.4081 17.7976 20.3713 17.4481 20.3895C16.5543 20.3904 15.662 20.4639 14.7804 20.6096C14.6189 20.6189 14.4569 20.6066 14.2987 20.5731C14.2583 20.575 14.2188 20.5619 14.1877 20.5366C14.3859 20.4458 14.6008 20.3959 14.8192 20.3904H14.8931V20.2442C14.8757 20.1836 14.8365 20.1314 14.7828 20.0973C14.7292 20.0631 14.6649 20.0495 14.6018 20.0588H14.5431H14.4854C14.847 19.9653 15.2168 19.9056 15.5896 19.8806L15.6709 19.8734H15.7078L15.7448 19.8369L15.7818 19.7629C15.7448 19.6167 15.6321 19.6167 15.522 19.6167L15.5535 19.6016C15.5831 19.592 15.6096 19.5747 15.6301 19.5514C15.6506 19.5282 15.6643 19.4999 15.6699 19.4696C15.665 19.4312 15.6486 19.395 15.623 19.3657C15.5972 19.3363 15.5634 19.3152 15.5256 19.3048L15.485 19.2869H15.0772C15.0772 19.3003 15.0664 19.3039 15.052 19.3084C15.0308 19.3139 15.0117 19.3252 14.9967 19.341C14.9817 19.3567 14.9715 19.3763 14.9672 19.3975C15.0195 19.5267 15.0349 19.5276 15.0655 19.5303C15.0827 19.5309 15.0996 19.5352 15.1151 19.5427C15.2156 19.554 15.3142 19.5782 15.4083 19.6149C15.2973 19.639 15.1377 19.6622 14.9833 19.6845C14.8868 19.6979 14.7921 19.7121 14.7073 19.7255C14.637 19.7541 14.5646 19.778 14.4909 19.7968C14.3455 19.8369 14.24 19.8663 14.1886 20.0187C14.1886 20.0544 14.1886 20.0909 14.2246 20.0918H14.0776C14.0578 20.0518 14.0444 20.0092 14.0379 19.9652C14.0244 19.8975 14.0145 19.8476 13.8927 19.7994C13.8149 19.8408 13.7499 19.9025 13.705 19.9777C13.6756 20.0309 13.6334 20.0761 13.5821 20.1093C13.5308 20.1426 13.472 20.1629 13.4109 20.1684C13.3753 20.0124 13.3628 19.8521 13.3739 19.6925V19.2531C13.4109 19.18 13.447 19.18 13.484 19.18C13.54 19.1954 13.5889 19.2292 13.6228 19.2759C13.6566 19.3227 13.6732 19.3793 13.6698 19.4367V19.5089L13.6969 19.5401C13.7096 19.5617 13.7272 19.5801 13.7483 19.5939C13.7695 19.6077 13.7936 19.6164 13.8187 19.6194C13.9567 19.5918 13.9703 19.5258 13.9847 19.4616C13.9882 19.4404 13.9945 19.4197 14.0036 19.4001C14.018 19.3467 14.0433 19.2967 14.0776 19.2531C14.8896 19.18 15.7745 19.1434 16.7083 19.1434H18.3863H18.4062C18.4008 19.1434 18.2663 19.1649 18.2663 19.2869C18.2639 19.3068 18.2659 19.3269 18.2723 19.3459C18.2787 19.3648 18.2893 19.3822 18.3033 19.3966H15.9703C15.9415 19.398 15.9141 19.4099 15.8935 19.43C15.8729 19.45 15.8605 19.4768 15.8584 19.5053C15.872 19.5422 15.8965 19.574 15.9287 19.5969C15.9608 19.6199 15.9993 19.6326 16.0389 19.6336C16.0667 19.6379 16.0942 19.6446 16.121 19.6533C16.4892 19.7117 16.8607 19.7481 17.2334 19.762C17.5338 19.6758 17.8465 19.639 18.159 19.6533C18.7668 19.6662 19.3734 19.7132 19.9759 19.7941L20.0129 19.7986C20.0869 19.7986 20.4766 19.7986 20.8646 19.762C20.962 19.762 21.0685 19.7513 21.1713 19.7415C21.2741 19.7317 21.3517 19.7246 21.4203 19.7246C21.4667 19.7031 21.517 19.691 21.5682 19.6889C21.5676 19.7267 21.5775 19.764 21.5972 19.7964C21.6168 19.8289 21.6452 19.8552 21.6792 19.8725L21.7532 19.9447L21.7902 19.9082H21.9751L22.0112 19.8734C22.0112 19.91 22.0527 19.9483 22.087 19.9821L22.124 20.0187L22.1979 19.9821C22.2125 19.9683 22.23 19.9576 22.2492 19.9513C22.2684 19.945 22.2888 19.943 22.3089 19.9457H22.3459L22.3829 19.9091C22.3844 19.8927 22.389 19.8766 22.3964 19.8619C22.4114 19.831 22.4194 19.7972 22.4199 19.7629C22.4199 19.6167 22.3072 19.5793 22.1979 19.5427C22.1596 19.542 22.1217 19.5518 22.0888 19.5714C22.0559 19.591 22.0293 19.6193 22.0121 19.6533C21.983 19.6133 21.9435 19.582 21.8977 19.5625C21.8519 19.543 21.8016 19.5362 21.7523 19.5427H21.7388C21.7063 19.4696 21.6738 19.4696 21.6422 19.4696C21.6225 19.4677 21.6034 19.4618 21.5863 19.4519C21.5694 19.4413 21.5503 19.4348 21.5304 19.4332C20.4929 19.3966 19.5032 19.3966 18.4549 19.3966L18.4918 19.36C18.4922 19.3473 18.497 19.335 18.5054 19.3253C18.5224 19.3037 18.5307 19.2767 18.5289 19.2495C18.5289 19.1934 18.4639 19.1604 18.4089 19.1426H18.4242H19.4166C19.6288 19.2243 19.8558 19.2616 20.0833 19.2522C20.6559 19.2398 21.2264 19.1787 21.7884 19.0695C21.7884 19.0926 21.8028 19.1006 21.8227 19.1131C21.8369 19.1216 21.8502 19.1313 21.8624 19.1426L21.8993 19.1791H22.1222V19.0391C22.4852 18.9612 22.8528 18.9055 23.2228 18.8725L23.3816 18.8556C23.4151 18.9107 23.4283 18.9755 23.4186 19.0391C23.4096 19.2091 23.3867 19.3782 23.35 19.5445C23.3047 19.7516 23.2776 19.9622 23.2688 20.1738C23.2539 20.3004 23.2802 20.4283 23.3437 20.5392L23.3807 20.5758H23.4537C23.756 20.5455 23.8092 20.2433 23.8218 19.9519H23.8985V19.9153H23.9735V19.8414C23.9712 19.8 23.9557 19.7603 23.9291 19.7281C23.9025 19.6961 23.8662 19.6733 23.8254 19.6631C23.8254 19.5017 23.812 19.3404 23.802 19.2103C23.7948 19.1096 23.7885 19.0232 23.7885 18.9625H23.8254C24.0872 18.8817 24.3542 18.8188 24.6248 18.7744L24.7889 18.7424C24.9739 18.7058 25.1246 18.6693 25.2707 18.6327C25.3033 18.6121 25.3398 18.5981 25.3781 18.5917C25.4074 18.6173 25.4418 18.6364 25.4791 18.6479L25.5305 18.6693L25.5675 18.5596V18.6693C26.222 18.5724 26.8817 18.515 27.5433 18.4973C27.9772 18.4768 28.4237 18.4563 28.8658 18.4082H28.9415V18.335C28.9155 18.2058 28.8712 18.204 28.8081 18.2022C28.7776 18.2024 28.7471 18.1982 28.7178 18.1898H28.3101C27.9429 18.1898 27.4386 18.2174 27.0705 18.2396C26.8377 18.2521 26.6537 18.2629 26.5698 18.2629C26.3343 18.2584 26.0989 18.2707 25.8652 18.2994C25.7941 18.3174 25.7217 18.3303 25.6487 18.3377C25.6038 18.3415 25.5592 18.3483 25.5152 18.3582C25.499 18.3297 25.4718 18.3234 25.4403 18.3163C25.4206 18.3127 25.4016 18.3067 25.3835 18.2985V18.294C25.3467 18.1888 25.3224 18.0795 25.3113 17.9687V17.3448H25.3853L25.4222 17.3083C25.4322 17.2886 25.4421 17.2708 25.4511 17.2548C25.4781 17.2168 25.4935 17.172 25.4954 17.1255C25.4924 17.1006 25.4836 17.0766 25.4697 17.0556C25.4557 17.0346 25.437 17.017 25.4151 17.0043C25.4033 16.9945 25.3934 16.9865 25.3844 16.9776L25.4214 16.9054V16.7574H25.3844C25.4184 16.7404 25.4468 16.7141 25.4665 16.6818C25.4861 16.6496 25.4961 16.6124 25.4954 16.5747C25.4899 16.5596 25.4854 16.5453 25.4809 16.5311C25.4763 16.4869 25.4571 16.4455 25.4263 16.4134C25.3954 16.3811 25.3547 16.3598 25.3104 16.3528C25.3032 16.3529 25.2961 16.3547 25.2897 16.3579C25.2833 16.3612 25.2778 16.3658 25.2734 16.3715C25.2691 16.3772 25.2635 16.3818 25.2571 16.3851C25.2507 16.3882 25.2437 16.39 25.2364 16.3902V15.9508C25.2257 15.7305 25.2381 15.5099 25.2734 15.2922C25.2869 15.2565 25.3005 15.2244 25.3122 15.1941C25.3365 15.1268 25.3649 15.0611 25.397 14.9971C25.3751 15.0601 25.3653 15.1266 25.3682 15.1932C25.3664 15.2752 25.3597 15.357 25.3483 15.4383L25.3113 15.4749C25.2973 15.4891 25.2867 15.5062 25.2803 15.525C25.2739 15.5439 25.2719 15.5639 25.2743 15.5836V15.9134L25.4232 15.8768C25.4962 15.8768 25.5332 15.7681 25.5332 15.7298V15.6202H25.5703V15.5836C25.5961 15.4635 25.6085 15.3409 25.6073 15.2181V15.1451C25.6055 15.1166 25.5932 15.0897 25.5728 15.0694C25.5523 15.0492 25.5251 15.0371 25.4962 15.0354C25.4816 15.0334 25.4667 15.0354 25.453 15.041C25.4394 15.0467 25.4275 15.0558 25.4186 15.0675C25.4267 15.0497 25.4358 15.0354 25.4584 15.0354L25.4881 15.0211C25.5589 14.9935 25.6227 14.9509 25.6752 14.8965C25.7277 14.8419 25.7676 14.7768 25.7921 14.7056C25.818 14.6613 25.8308 14.6106 25.8291 14.5595C25.8255 14.5022 25.8009 14.4483 25.7599 14.4078C25.7188 14.3672 25.6642 14.343 25.6063 14.3394C25.4382 14.3607 25.275 14.4101 25.1236 14.4855C24.9731 14.5613 24.8104 14.611 24.6428 14.6326C24.4525 14.5952 24.346 14.5524 24.346 14.1201V14.0461C24.3072 13.817 24.2684 13.7163 24.1232 13.6806C23.904 13.7431 23.8697 14.0122 23.8426 14.2288C23.8372 14.2689 23.8327 14.3064 23.8272 14.3402C23.8052 14.4454 23.7424 14.5379 23.6522 14.5978C23.5741 14.649 23.5175 14.7267 23.4935 14.8161C23.4935 14.9329 23.5386 15.0052 23.6784 15.1094C23.6626 16.2983 23.5637 17.4848 23.3824 18.6604C23.1679 18.6944 22.9511 18.7129 22.7338 18.7157C22.5043 18.7198 22.2754 18.7379 22.0482 18.77C20.713 18.8431 19.3949 18.8431 18.1202 18.8431H16.6722C16.7559 18.8155 16.8439 18.8031 16.9321 18.8065H17.0439L17.0773 18.7949C17.1675 18.7673 17.1954 18.7575 17.2289 18.6595C17.1757 18.5312 17.1233 18.5284 17.0719 18.5266C17.0492 18.5272 17.0268 18.523 17.0061 18.5142C16.9107 18.4816 16.8096 18.4692 16.7093 18.4776H16.4918C16.4799 18.4877 16.4656 18.4948 16.4503 18.4981C16.4142 18.5089 16.37 18.5213 16.3439 18.6229C16.3505 18.6436 16.3593 18.6637 16.37 18.6826L16.3439 18.7334H16.3808V18.6996C16.401 18.7241 16.4275 18.7429 16.4575 18.7539L16.4909 18.77H15.2287L15.2333 18.7646C15.2693 18.729 15.3018 18.696 15.3018 18.6604C15.3018 18.4776 15.1512 18.4776 15.079 18.4776C15.0069 18.4776 14.8941 18.5079 14.8941 18.6238C14.8915 18.6436 14.8935 18.6638 14.8999 18.6829C14.9063 18.7018 14.917 18.7191 14.9311 18.7334H14.0785C14.1011 18.7161 14.1195 18.6939 14.1323 18.6687C14.145 18.6433 14.152 18.6156 14.1525 18.5873V18.5142L14.0785 18.4776C13.8738 18.4099 13.7826 18.1844 13.7826 17.745C13.7985 17.3559 13.8437 16.9686 13.9179 16.5863C13.9851 16.2443 14.0268 15.8978 14.0424 15.5497C14.0424 15.1674 13.9144 14.9642 13.6717 14.9642C13.5314 15.0263 13.3812 15.0631 13.2278 15.0729C13.1402 15.0704 13.053 15.0585 12.968 15.0372C12.883 15.0153 12.7958 15.0031 12.7082 15.0006C12.4529 15.0006 12.3058 15.2056 12.0767 15.8795C12.0186 15.9656 11.9929 16.069 12.0036 16.1719C12.0036 16.3394 12.0306 16.4999 12.2264 16.5381H12.2625C12.2985 17.0034 12.3355 17.9643 12.3373 18.0017C12.3892 18.171 12.4839 18.3244 12.6125 18.4474C12.6964 18.5365 12.7632 18.6096 12.7452 18.6952C12.7336 18.7889 12.6955 18.8777 12.6351 18.9509C12.2172 19.0134 11.7944 19.0382 11.372 19.0249H9.70667C9.61013 19.0249 9.47301 19.0178 9.31332 19.0098C9.10944 18.9991 8.87848 18.9884 8.66828 18.9884C8.57807 18.9964 8.48784 18.9991 8.39763 19.0017C8.10172 19.0106 7.86987 19.0169 7.81212 19.2441V19.2807L7.84822 19.3173C8.19018 19.4939 8.57613 19.5702 8.96058 19.5374C9.38279 19.5374 9.87176 19.5018 10.3454 19.4661C10.5366 19.4519 10.7161 19.4385 10.8867 19.4286C10.8711 19.4447 10.8586 19.4634 10.8497 19.4839C10.8407 19.5035 10.8285 19.5216 10.8136 19.5374C10.7757 19.4991 10.7387 19.4643 10.7027 19.4643C10.5609 19.4748 10.4264 19.5304 10.3193 19.6228C10.2123 19.7152 10.1385 19.8395 10.109 19.9768C10.1245 20.1064 10.1913 20.2247 10.2949 20.3057L10.331 20.3422L10.3679 20.3057C10.4564 20.2141 10.5129 20.097 10.5294 19.9715C10.5628 19.836 10.5908 19.7192 10.7098 19.7192C10.7191 19.7185 10.7285 19.7185 10.7378 19.7192H10.8128V19.6105L10.8488 19.647L10.8858 19.6836H10.9227C10.9726 19.6827 11.0222 19.6764 11.0708 19.6649C11.1196 19.654 11.1695 19.648 11.2196 19.647C11.3675 19.5731 11.4415 19.5365 11.4415 19.4269V19.3904C11.4906 19.4054 11.5406 19.417 11.5912 19.4251C11.6421 19.4315 11.6918 19.4444 11.7393 19.4634C11.9608 19.4887 12.1838 19.5009 12.4068 19.5H12.4799C12.4777 19.5356 12.4732 19.571 12.4663 19.606C12.4258 19.8367 12.4059 20.0707 12.4068 20.3048H12.4023C12.1399 20.3914 11.8668 20.4421 11.5904 20.4554C11.5498 20.4554 11.5128 20.4554 11.4776 20.4501C11.4107 20.4497 11.3441 20.4421 11.2792 20.4269C11.2472 20.4193 11.2145 20.4147 11.1817 20.4136L11.1447 20.377C11.2001 20.367 11.2511 20.3406 11.2909 20.3013C11.3307 20.262 11.3574 20.2116 11.3675 20.1569C11.3656 20.1392 11.359 20.1223 11.3484 20.1079C11.3378 20.0935 11.3235 20.0821 11.3071 20.0749C11.2795 20.0591 11.2487 20.0496 11.2169 20.0472C10.969 20.0908 10.7451 20.2205 10.5854 20.4126C10.536 20.4154 10.487 20.4232 10.4392 20.4359C10.4141 20.4424 10.3884 20.4469 10.3625 20.4492H10.2886C10.2886 20.4492 10.2507 20.4492 10.2146 20.5214C10.2141 20.531 10.2156 20.5407 10.219 20.5497C10.2225 20.5588 10.2277 20.567 10.2344 20.574C10.2493 20.5873 10.2685 20.5948 10.2886 20.5954C10.3625 20.5954 10.3995 20.5954 10.3995 20.6319V20.6685H10.2886C10.2507 20.6685 10.2146 20.6685 10.1776 20.7772C10.1854 20.7958 10.1964 20.813 10.2101 20.828C10.2146 20.8325 10.2146 20.8325 10.2146 20.8512C10.217 20.8709 10.2149 20.8909 10.2085 20.9097C10.2021 20.9285 10.1915 20.9456 10.1776 20.9599C10.035 20.9715 9.86454 20.9876 9.68501 21.0063C9.19655 21.064 8.70545 21.0973 8.21359 21.1061C7.79744 21.1356 7.37986 21.0732 6.99116 20.9234L6.95417 20.8877L6.91809 20.9234C6.7371 20.9743 6.54963 20.9993 6.36146 20.9974C5.86697 20.9772 5.37475 20.9197 4.88914 20.8254C4.58016 20.7639 4.26727 20.7233 3.9527 20.7042C3.90654 20.6964 3.85921 20.699 3.81423 20.7117C3.76925 20.7246 3.72776 20.7473 3.69287 20.7781C3.67885 20.7925 3.66826 20.8098 3.66186 20.8288C3.65547 20.8478 3.65343 20.8678 3.65588 20.8877C3.73076 21.2577 4.36047 21.3262 5.02806 21.4002C5.54493 21.4505 6.06403 21.4749 6.58339 21.4733C7.43382 21.6628 8.30642 21.7368 9.17709 21.6935H10.8813C11.4926 21.6364 12.1093 21.6985 12.6964 21.8762C12.7172 21.886 12.7334 21.8967 12.7497 21.9047C12.7883 21.9316 12.8341 21.9468 12.8813 21.9484C12.9293 21.9448 12.9755 21.9291 13.0156 21.9029C13.0557 21.8767 13.0883 21.8408 13.1105 21.7986C13.1232 21.779 13.1303 21.7656 13.1411 21.7656C13.5823 21.7656 14.0316 21.7567 14.4665 21.7479C14.9175 21.738 15.3786 21.7292 15.8458 21.7292C15.7944 21.8129 15.6925 21.9501 15.5626 22.1249C14.9948 22.777 14.5736 23.5407 14.3266 24.3656H14.3221H14.3022C14.2916 24.3684 14.2807 24.3702 14.2697 24.3709L14.3266 24.3986V24.4708C14.3286 24.4921 14.3335 24.5131 14.341 24.5331C14.354 24.5721 14.3615 24.6125 14.3636 24.6535C14.3237 24.6217 14.2857 24.5874 14.25 24.551C14.1881 24.4727 14.1101 24.4084 14.0211 24.3623C13.9321 24.3162 13.8342 24.2893 13.7339 24.2836C13.7501 24.2524 13.8241 24.2479 13.8872 24.2444C13.9504 24.2408 13.9883 24.239 13.9937 24.2212C13.9991 24.2034 13.9847 24.1954 13.9567 24.1749C13.8307 24.168 13.706 24.2028 13.6022 24.2738C13.5225 24.3313 13.4256 24.3607 13.327 24.3576C13.3507 24.3462 13.3707 24.3287 13.3848 24.3068C13.399 24.2849 13.4068 24.2596 13.4074 24.2336C13.4172 24.1757 13.4253 24.1223 13.5498 24.1009H13.5291C13.253 24.1009 13.1773 24.1392 13.1051 24.2453L12.995 24.2097C12.8848 24.3265 12.7367 24.4015 12.5764 24.4217L12.5494 24.428V24.3558C12.5016 24.5652 12.4086 24.5679 12.2914 24.5688C12.2143 24.5658 12.1377 24.5808 12.0676 24.6125V24.5019C12.0321 24.5603 11.9825 24.6091 11.9234 24.644C11.8642 24.6791 11.7973 24.6991 11.7284 24.7025C11.6928 24.7021 11.6575 24.6961 11.6237 24.6846L11.6977 24.5759C11.618 24.6213 11.5281 24.6468 11.4361 24.6499C11.3275 24.6468 11.2219 24.6858 11.142 24.7586C11.139 24.759 11.1362 24.7585 11.1333 24.7576C11.1305 24.7567 11.1279 24.7553 11.1258 24.7533C11.1195 24.7444 11.1258 24.7274 11.1258 24.7087C11.1258 24.69 11.1411 24.6517 11.1258 24.6321C11.116 24.623 11.1042 24.6163 11.0914 24.6122C11.0787 24.6082 11.0651 24.6071 11.0517 24.6089C11.0312 24.6089 11.0108 24.6105 10.9904 24.6134C10.9604 24.6465 10.9235 24.6726 10.8822 24.6904C10.841 24.7081 10.7963 24.7168 10.7514 24.7159C10.717 24.7185 10.6829 24.7077 10.6566 24.6856C10.6566 24.6561 10.681 24.6026 10.7289 24.6026C10.7424 24.6028 10.7558 24.6065 10.7675 24.6134H10.7838C10.779 24.6179 10.775 24.6232 10.7723 24.6291C10.7695 24.6351 10.7679 24.6415 10.7675 24.6481L10.8416 24.5759C10.8196 24.5718 10.7973 24.5697 10.7748 24.5697C10.7258 24.5696 10.6778 24.5845 10.6377 24.6125C10.5965 24.6403 10.5477 24.6549 10.4979 24.6544C10.4764 24.6545 10.455 24.6527 10.4338 24.649C10.4315 24.6472 10.4297 24.6449 10.4285 24.6423C10.4272 24.6396 10.4266 24.6368 10.4266 24.6339C10.4266 24.6187 10.4473 24.6026 10.4717 24.5831C10.5016 24.5616 10.5268 24.5343 10.5457 24.5029L9.73373 24.7596C9.7347 24.7715 9.73809 24.783 9.74367 24.7935C9.74924 24.8042 9.75691 24.8135 9.76621 24.8211C9.79237 24.8486 9.81673 24.8736 9.77072 24.9423H10.0666C10.0946 24.9556 10.1081 24.9708 10.1072 24.9869C10.1072 25.0341 9.95656 25.0759 9.85912 25.1099L9.8077 25.1259H9.99264V25.1891L10.1406 25.1527C10.0675 25.1963 10.0314 25.2337 10.0341 25.2649C10.0369 25.2962 10.1054 25.3309 10.1659 25.3541C10.2263 25.3772 10.266 25.3906 10.2669 25.4156C10.2678 25.4405 10.2389 25.4574 10.1767 25.4833C10.1056 25.4847 10.0347 25.4915 9.96468 25.5038C9.91257 25.5133 9.85977 25.5186 9.8068 25.5199H10.3283C10.2815 25.5504 10.2313 25.5752 10.1785 25.5938C10.1824 25.593 10.1864 25.593 10.1902 25.5938C10.2411 25.5922 10.2918 25.5865 10.3418 25.5769C10.3968 25.5662 10.4526 25.56 10.5087 25.5581L10.5818 25.5217C10.5808 25.5322 10.5771 25.5424 10.5709 25.551C10.5601 25.5697 10.5484 25.5911 10.5583 25.6107C10.5682 25.6304 10.6151 25.6553 10.6936 25.6678C10.7556 25.6398 10.823 25.6255 10.8912 25.6259C11.005 25.6317 11.1168 25.6577 11.2213 25.7026L11.2493 25.7141C11.3299 25.7507 11.4163 25.7733 11.5047 25.781C11.5181 25.7822 11.5317 25.7822 11.5453 25.781C11.6554 25.7534 11.7076 25.7311 11.7094 25.7114C11.7113 25.6919 11.6743 25.6803 11.6363 25.6652C11.5985 25.6499 11.5543 25.6339 11.5543 25.6125C11.5543 25.5911 11.575 25.5804 11.6192 25.5617C11.6491 25.5537 11.6795 25.5484 11.7104 25.5456C11.7304 25.5439 11.7506 25.5467 11.7695 25.5536C11.7884 25.5606 11.8054 25.5716 11.8195 25.5858C11.8336 25.6 11.8507 25.6108 11.8696 25.6177C11.8885 25.6247 11.9087 25.6275 11.9286 25.6259L11.9656 25.4797H12.0757C12.0753 25.4912 12.0738 25.5024 12.0712 25.5136C12.0682 25.5244 12.0682 25.5357 12.0712 25.5466C12.0838 25.5466 12.0974 25.5341 12.1155 25.5163C12.1366 25.513 12.158 25.5113 12.1795 25.5109C12.1975 25.5109 12.2065 25.5109 12.2083 25.5189C12.2101 25.5269 12.1876 25.5492 12.1561 25.5742C12.1073 25.6125 12.0478 25.6634 12.073 25.6954C12.1535 25.6026 12.2625 25.5385 12.3834 25.5127C12.3927 25.5116 12.4021 25.5116 12.4113 25.5127C12.412 25.5141 12.4125 25.5156 12.4125 25.5171C12.4125 25.5187 12.412 25.5202 12.4113 25.5217C12.4113 25.5439 12.3509 25.5849 12.3103 25.6107C12.2963 25.6188 12.2836 25.6287 12.2723 25.6401C12.2937 25.6366 12.3144 25.6299 12.3337 25.6206C12.4365 25.546 12.5484 25.4847 12.6666 25.4379L14.2608 25.4013L14.1868 25.51C14.21 25.4998 14.2353 25.4949 14.2608 25.4958C14.3682 25.5073 14.4731 25.5349 14.572 25.5778C14.7106 25.6325 14.855 25.6716 15.0024 25.6945L14.9662 25.7677H15.1512L15.0763 25.8041C15.123 25.8127 15.1705 25.8165 15.2179 25.8157H15.2955H15.3758C15.4761 25.8117 15.5763 25.8281 15.6699 25.8639C15.652 25.859 15.6335 25.8563 15.6149 25.8559C15.5796 25.8566 15.5459 25.871 15.5212 25.896C15.4967 25.921 15.483 25.9546 15.4832 25.9896H16.1147C16.1147 26.0011 16.1444 26.0181 16.1761 26.0359C16.2076 26.0537 16.259 26.0814 16.2555 26.1027C16.2518 26.1241 16.2301 26.1277 16.1887 26.1357L16.4467 26.0991L16.4107 26.1723C16.6734 26.2531 16.9474 26.2922 17.2226 26.2881C17.4662 26.2881 17.7052 26.2649 17.9569 26.2409H17.9768C18.2158 26.2177 18.4883 26.1901 18.7707 26.1901C18.9111 26.1897 19.0514 26.1969 19.191 26.2115V26.248C19.3209 26.1902 19.4444 26.1197 19.56 26.0376C19.6214 25.9966 19.6846 25.9548 19.7468 25.9191C19.7615 25.9138 19.7771 25.9111 19.7928 25.9112C19.8262 25.9129 19.859 25.9199 19.8902 25.9317L19.9082 25.9361C19.9588 25.9532 20.0118 25.9623 20.0652 25.9628C20.0955 25.9629 20.1257 25.9601 20.1555 25.9548C20.1356 25.9423 20.1274 25.9299 20.1284 25.9164C20.1284 25.8799 20.2024 25.8407 20.2872 25.797C20.3443 25.7685 20.3992 25.7357 20.4514 25.699L20.7112 25.9191L20.695 25.9049C20.615 25.834 20.5454 25.7524 20.4884 25.6624L20.5253 25.5894H20.5623L20.5993 25.6259C20.5971 25.6454 20.5906 25.6643 20.5804 25.6811C20.57 25.6976 20.5636 25.7163 20.5615 25.7355L20.5984 25.699C20.6179 25.7495 20.6488 25.7949 20.6886 25.8318L20.6751 25.8451C20.7326 25.9082 20.8123 25.9471 20.8979 25.9539C20.9822 25.9822 21.0685 26.0049 21.1559 26.0216C21.3364 26.0609 21.4916 26.0947 21.4916 26.2115C21.5538 26.2301 21.6187 26.2395 21.6838 26.2392C21.8008 26.2346 21.9167 26.216 22.0293 26.1839H22.0346C22.1494 26.1505 22.2679 26.1314 22.3874 26.1268C22.4347 26.1265 22.4818 26.1307 22.5282 26.1393L22.3432 26.3229L22.7131 26.3586V26.2489H22.7167C22.824 26.2489 22.8971 26.2489 22.8971 26.2864L22.8484 26.3336C22.8335 26.3241 22.8164 26.3182 22.7988 26.3166C22.7807 26.3149 22.7663 26.3282 22.7519 26.3568ZM28.1649 24.3068C27.9254 24.177 27.6773 24.0632 27.4223 23.9663H27.4178C27.4178 23.9663 27.4178 23.9707 27.4251 23.9761C27.4485 23.9886 27.5992 24.0457 28.1612 24.3068H28.1649ZM24.1602 19.8778C24.1602 19.9135 24.198 19.951 24.235 19.9867L24.2711 20.0231H24.3081C24.3228 20.0093 24.3406 19.9989 24.3599 19.9925C24.3793 19.9862 24.3998 19.9841 24.42 19.9867H24.5301V19.877C24.5301 19.7594 24.4614 19.7174 24.4019 19.7174C24.3822 19.7175 24.3629 19.7218 24.3451 19.7299C24.2802 19.7299 24.1602 19.7612 24.1602 19.8778ZM30.4112 19.4973C30.391 19.5036 30.3701 19.5078 30.349 19.5098C30.3344 19.5217 30.318 19.531 30.3002 19.5374C30.256 19.557 30.2001 19.5811 30.2001 19.6577V19.7299H30.2741C30.4499 19.7611 30.6225 19.8073 30.7902 19.8681C30.8804 19.8957 30.9651 19.926 31.0518 19.9501H31.1266C31.1987 19.9135 31.2746 19.877 31.2746 19.7674C31.1942 19.5811 30.9769 19.549 30.7658 19.5187C30.6877 19.5084 30.6102 19.4935 30.5339 19.4742C30.4921 19.4759 30.4507 19.4837 30.4112 19.4973ZM27.4215 19.5864C27.4285 19.6267 27.4458 19.6647 27.4717 19.6966C27.4975 19.7286 27.5311 19.7535 27.5694 19.7691H27.6443C27.669 19.7664 27.6932 19.7607 27.7164 19.7522C27.7405 19.7429 27.7657 19.7366 27.7913 19.7335H27.9014L27.8283 19.6613C27.8292 19.6325 27.8244 19.6038 27.814 19.5769C27.8036 19.55 27.7879 19.5254 27.7678 19.5044C27.7465 19.484 27.7211 19.4681 27.6935 19.4573C27.6657 19.4466 27.6362 19.4415 27.6063 19.442C27.5423 19.4385 27.4215 19.4688 27.4215 19.5846V19.5864ZM29.9411 18.4509C29.9381 18.476 29.9318 18.5006 29.9222 18.524C29.9124 18.5477 29.906 18.5726 29.9033 18.598C29.9008 18.6178 29.9029 18.638 29.9093 18.6569C29.9157 18.6759 29.9263 18.6932 29.9403 18.7076L29.9773 18.7441H30.0512C30.202 18.7378 30.3513 18.7133 30.496 18.6711H30.533L30.57 18.6345C30.5799 18.6149 30.5899 18.598 30.598 18.5828C30.6257 18.5441 30.6414 18.4983 30.6431 18.4509C30.6431 18.3065 30.4987 18.2682 30.4211 18.2682C30.3887 18.2826 30.3549 18.2937 30.3201 18.3011C30.2508 18.315 30.1845 18.341 30.1243 18.3778V18.3413C30.1161 18.3155 30.1018 18.2921 30.0824 18.2731C30.0631 18.2539 30.0395 18.2397 30.0134 18.2316L29.9736 18.2442C29.8882 18.2656 29.8115 18.3122 29.7536 18.3778C29.7676 18.4066 29.7884 18.4316 29.8143 18.4507C29.8403 18.4698 29.8705 18.4824 29.9023 18.4874V18.3813L29.9411 18.4509ZM29.2736 18.3047C29.2679 18.3432 29.2758 18.3823 29.2961 18.4156C29.3163 18.4489 29.3476 18.4743 29.3845 18.4874L29.4215 18.5231H29.4585C29.4732 18.5095 29.4909 18.4993 29.51 18.4931C29.5291 18.487 29.5494 18.485 29.5695 18.4874H29.6443V18.3778C29.6443 18.2325 29.4991 18.1951 29.4215 18.1951C29.3439 18.1951 29.2736 18.2281 29.2736 18.3029V18.3047ZM142.627 36.0034C142.641 35.6225 142.73 35.248 142.892 34.9017C143.053 34.5553 143.282 34.244 143.565 33.9856C143.848 33.7271 144.181 33.5269 144.544 33.3962C144.906 33.2655 145.291 33.2071 145.676 33.2243C146.518 33.2182 147.328 33.5348 147.939 34.1076L147.175 34.8349L146.965 34.7047L146.992 34.6789C147.172 34.4712 146.992 34.2626 146.886 34.1592C146.723 34.0234 146.535 33.9212 146.332 33.8587C146.129 33.7963 145.915 33.7749 145.704 33.7956C145.404 33.7797 145.105 33.8271 144.827 33.9345C144.548 34.0419 144.295 34.2069 144.087 34.4184C143.877 34.63 143.716 34.8831 143.614 35.1611C143.512 35.439 143.471 35.7353 143.494 36.0301C143.517 36.783 143.833 37.4982 144.377 38.0259C144.921 38.5536 145.651 38.8531 146.413 38.8617C147.071 38.8617 147.281 38.6015 147.36 38.2646H147.598V39.278C147.253 39.3645 146.9 39.4083 146.545 39.4081C146.061 39.4424 145.574 39.3812 145.114 39.2281C144.654 39.075 144.229 38.8329 143.864 38.5161C143.5 38.1993 143.203 37.8139 142.99 37.3825C142.778 36.9512 142.655 36.4823 142.627 36.0034ZM111.362 39.2771V38.0819H111.626C111.621 38.1511 111.632 38.2206 111.657 38.2855C111.682 38.3505 111.721 38.4094 111.77 38.4585C111.82 38.5076 111.88 38.5458 111.945 38.5704C112.01 38.5951 112.081 38.6056 112.151 38.6015C112.602 38.6015 113.045 38.1559 113.282 37.6406L111.179 33.874C111.047 33.6138 110.998 33.5095 110.758 33.5095V33.3H112.231V33.5603H112.177C112.072 33.5603 111.863 33.5861 111.998 33.8455L113.653 36.8849L114.758 34.0015C114.802 33.9212 114.829 33.8325 114.836 33.7412C114.834 33.6945 114.815 33.6504 114.781 33.6174C114.747 33.5844 114.703 33.5649 114.656 33.5629H114.55V33.3535H115.909V33.5611C115.752 33.5611 115.541 33.6138 115.358 34.0291L113.965 37.6139C113.77 38.3119 113.32 38.9136 112.702 39.3029C112.508 39.3773 112.303 39.4128 112.096 39.4072C111.846 39.4062 111.597 39.3621 111.362 39.2771ZM77.1782 38.9152V37.7699H77.4416L77.4678 38.0293C77.4949 38.3671 77.8883 38.6274 78.204 38.7316C78.4653 38.8179 78.741 38.853 79.0159 38.835C79.3536 38.8771 79.6966 38.8268 80.0074 38.6894C80.3181 38.552 80.5846 38.3329 80.7778 38.056C80.9046 37.8441 80.9672 37.6006 80.9582 37.3546C80.9459 37.1721 80.892 36.9947 80.8004 36.8358C80.4585 36.3678 79.854 36.3162 79.144 36.3162H78.6704V35.744H79.144C79.4223 35.7829 79.7062 35.7508 79.9685 35.6509C80.2307 35.5509 80.4628 35.3863 80.6425 35.1726C80.7163 35.0658 80.7529 34.9382 80.7472 34.809C80.7372 34.6738 80.7017 34.5418 80.6425 34.4195C80.5182 34.174 80.3005 33.9871 80.0372 33.8999C79.7648 33.7512 79.4526 33.689 79.1431 33.7216C78.8508 33.6904 78.556 33.7529 78.3023 33.8999C77.7502 34.1601 77.8286 34.4195 77.8512 34.6013L77.8774 34.6798L77.6411 34.7573L77.273 33.6664C77.6508 33.4702 78.0596 33.3385 78.4818 33.2769C78.7335 33.2343 78.989 33.2167 79.2442 33.2243C79.5352 33.2242 79.8257 33.2502 80.112 33.3018C80.4676 33.3451 80.7957 33.5127 81.0369 33.7742C81.2782 34.0359 81.4167 34.3741 81.4274 34.7278C81.4077 35.0393 81.2788 35.3344 81.0628 35.5621C80.8467 35.7898 80.5571 35.9361 80.2438 35.9757C80.4885 35.9776 80.7295 36.0348 80.9485 36.143C81.1674 36.2512 81.3584 36.4073 81.5067 36.5996C81.6393 36.8011 81.712 37.0351 81.7169 37.2752C81.7199 37.6186 81.6385 37.9574 81.4797 38.2628C81.2261 38.7221 80.8021 39.0665 80.297 39.2236C79.9058 39.3461 79.4975 39.4063 79.0872 39.4018C78.4171 39.4212 77.7552 39.2525 77.1782 38.9152ZM65.95 39.2798V38.0819H66.2133C66.2092 38.1511 66.2199 38.2206 66.2449 38.2855C66.2698 38.3505 66.3083 38.4094 66.358 38.4585C66.4077 38.5076 66.4675 38.5458 66.5332 38.5704C66.5989 38.5951 66.6692 38.6056 66.7394 38.6015C67.1904 38.6015 67.6334 38.1559 67.8707 37.6406L65.7668 33.874C65.635 33.6138 65.5864 33.5095 65.3455 33.5095V33.3H66.8187V33.5603H66.7655C66.6608 33.5603 66.4506 33.5861 66.5851 33.8455L68.2414 36.8849L69.3718 34.0015C69.4152 33.9225 69.4414 33.8353 69.4486 33.7456C69.4463 33.6991 69.4266 33.655 69.3932 33.622C69.3598 33.5891 69.3153 33.5695 69.268 33.5674H69.1626V33.3535H70.5302V33.5611C70.3724 33.5611 70.1622 33.6138 69.9781 34.0291L68.5536 37.6139C68.3584 38.3119 67.9085 38.9136 67.2905 39.3029C67.0978 39.3773 66.892 39.4128 66.6852 39.4072C66.434 39.4064 66.1849 39.3623 65.949 39.2771L65.95 39.2798ZM166.056 39.3056V39.0935C166.291 39.0076 166.488 38.8417 166.61 38.6256L168.081 36.4962C167.771 36.4817 167.469 36.3909 167.203 36.232C166.937 36.0731 166.714 35.8511 166.557 35.5862C166.449 35.3588 166.395 35.1101 166.398 34.8589C166.395 34.5368 166.506 34.2239 166.714 33.9756C166.915 33.7575 167.164 33.5878 167.442 33.4797C167.721 33.3715 168.02 33.3277 168.317 33.3517H171V33.53C170.957 33.5261 170.915 33.5316 170.875 33.5459C170.835 33.5601 170.799 33.5829 170.768 33.6125C170.738 33.6422 170.716 33.678 170.701 33.7176C170.686 33.757 170.68 33.7991 170.685 33.8411V38.7512C170.68 38.7931 170.686 38.8354 170.701 38.875C170.715 38.9146 170.738 38.9505 170.768 38.9803C170.798 39.0101 170.834 39.0329 170.875 39.0472C170.915 39.0615 170.957 39.067 171 39.0632V39.2709H169.58V39.0632C169.621 39.0648 169.663 39.0579 169.701 39.0427C169.741 39.0277 169.776 39.0048 169.806 38.9754C169.836 38.9461 169.859 38.9111 169.875 38.8725C169.89 38.8339 169.896 38.7926 169.895 38.7512V36.5746H168.867L166.999 39.3021L166.056 39.3056ZM167.293 34.9676C167.293 36.0069 168.344 36.0372 168.896 36.0372H169.896V33.907H168.528C168.055 33.899 167.293 33.9516 167.293 34.9641V34.9676ZM150.333 39.3056V39.0935C150.375 39.0973 150.417 39.0919 150.458 39.0776C150.497 39.0633 150.533 39.0406 150.563 39.0109C150.593 38.9812 150.617 38.9454 150.632 38.9058C150.646 38.8663 150.651 38.8243 150.648 38.7824V33.9239H149.28C149.143 33.9065 149.005 33.934 148.887 34.0023C148.833 34.0462 148.79 34.1021 148.763 34.1653C148.735 34.2285 148.723 34.2973 148.727 34.366H148.464V33.3535H153.62V34.3696H153.356C153.361 34.3009 153.349 34.2323 153.322 34.1691C153.294 34.1059 153.252 34.05 153.199 34.0059C153.078 33.9402 152.941 33.9128 152.805 33.9275H151.437V38.786C151.433 38.8278 151.439 38.87 151.454 38.9095C151.468 38.949 151.491 38.9848 151.521 39.0144C151.551 39.0441 151.587 39.0669 151.628 39.0812C151.667 39.0955 151.71 39.1009 151.753 39.0971V39.3047L150.333 39.3056ZM117.937 39.3056V39.0935C117.979 39.0973 118.022 39.0919 118.062 39.0776C118.102 39.0633 118.137 39.0406 118.168 39.0109C118.198 38.9812 118.221 38.9454 118.236 38.9058C118.25 38.8663 118.255 38.8243 118.252 38.7824V33.9239H116.884C116.748 33.9065 116.609 33.934 116.491 34.0023C116.437 34.0462 116.394 34.1021 116.367 34.1653C116.34 34.2285 116.327 34.2973 116.332 34.366H116.068V33.3535H121.223V34.3696H120.962C120.966 34.3009 120.955 34.2323 120.927 34.1691C120.899 34.1059 120.857 34.05 120.804 34.0059C120.684 33.9377 120.546 33.91 120.41 33.9275H119.041V38.786C119.036 38.8278 119.042 38.8701 119.057 38.9096C119.071 38.9492 119.094 38.9851 119.124 39.0149C119.154 39.0445 119.19 39.0673 119.231 39.0815C119.27 39.0957 119.313 39.1011 119.356 39.0971V39.3047L117.937 39.3056ZM108.523 39.3056V39.0935C108.565 39.0973 108.607 39.0919 108.648 39.0776C108.688 39.0633 108.724 39.0406 108.754 39.0109C108.784 38.9812 108.807 38.9454 108.821 38.9058C108.836 38.8663 108.841 38.8243 108.837 38.7824V33.9239H105.999V38.7824C105.995 38.8243 106 38.8663 106.015 38.9058C106.029 38.9454 106.052 38.9812 106.082 39.0109C106.112 39.0406 106.149 39.0633 106.189 39.0776C106.228 39.0919 106.271 39.0973 106.313 39.0935V39.3011H104.893V39.0935C104.936 39.0975 104.979 39.0921 105.019 39.0779C105.059 39.0637 105.095 39.0409 105.125 39.0113C105.155 38.9815 105.179 38.9457 105.193 38.9061C105.208 38.8665 105.213 38.8243 105.209 38.7824V33.8731C105.213 33.8312 105.208 33.7889 105.193 33.7493C105.179 33.7098 105.155 33.6738 105.125 33.6441C105.095 33.6142 105.059 33.5914 105.019 33.5771C104.979 33.5628 104.936 33.5573 104.893 33.5611V33.3535H109.946V33.5611C109.904 33.5596 109.862 33.5665 109.823 33.5816C109.784 33.5967 109.748 33.6196 109.719 33.6489C109.689 33.6782 109.666 33.7132 109.651 33.7518C109.636 33.7904 109.628 33.8317 109.63 33.8731V38.7833C109.626 38.8252 109.631 38.8675 109.646 38.907C109.66 38.9465 109.684 38.9825 109.714 39.0121C109.744 39.0419 109.78 39.0646 109.82 39.0788C109.86 39.0931 109.903 39.0983 109.946 39.0943V39.3021L108.523 39.3056ZM88.2486 39.3056V39.0935C88.2904 39.0951 88.3322 39.0881 88.3711 39.0731C88.4101 39.0581 88.4456 39.0353 88.4752 39.006C88.5048 38.9768 88.5281 38.9419 88.5434 38.9034C88.5588 38.865 88.5659 38.8237 88.5643 38.7824V33.8731C88.5683 33.8312 88.5627 33.7889 88.5483 33.7493C88.5338 33.7098 88.5106 33.6738 88.4804 33.6441C88.4504 33.6142 88.414 33.5914 88.3739 33.5771C88.3338 33.5628 88.291 33.5573 88.2486 33.5611V33.3535H89.6686V33.5611C89.6262 33.5573 89.5835 33.5627 89.5434 33.5771C89.5034 33.5914 89.4671 33.6142 89.437 33.6441C89.4069 33.6738 89.3838 33.7098 89.3695 33.7494C89.3551 33.789 89.3497 33.8312 89.3537 33.8731V38.7833C89.3499 38.8251 89.3553 38.8673 89.3697 38.9068C89.3843 38.9462 89.4073 38.9821 89.4374 39.0118C89.4674 39.0415 89.5036 39.0643 89.5436 39.0786C89.5836 39.0928 89.6262 39.0982 89.6686 39.0943V39.3021L88.2486 39.3056ZM60.5595 39.3056V39.0935C60.6019 39.0973 60.6446 39.0919 60.6846 39.0776C60.7246 39.0633 60.7609 39.0406 60.791 39.0109C60.8212 38.9812 60.8444 38.9454 60.8589 38.9059C60.8734 38.8664 60.879 38.8243 60.8753 38.7824V33.8731C60.8753 33.6387 60.7174 33.5611 60.5334 33.5611V33.3535H62.7157C64.741 33.3535 65.0027 34.3411 65.0027 34.8865C65.0027 36.2627 63.2931 36.9365 61.6647 37.4838V38.7833C61.6608 38.8251 61.6662 38.8673 61.6808 38.9068C61.6952 38.9462 61.7183 38.9821 61.7483 39.0118C61.7783 39.0415 61.8147 39.0643 61.8547 39.0786C61.8945 39.0928 61.9373 39.0982 61.9796 39.0943V39.3021L60.5595 39.3056ZM61.6422 36.916C63.2724 36.4703 64.1934 35.6682 64.1934 34.9409C64.1934 34.0318 63.2724 33.9542 62.5632 33.9542H61.6376L61.6422 36.916ZM58.6714 39.3056L56.8823 36.1861C56.4838 36.342 56.0694 36.4552 55.6464 36.5238V38.7842C55.6427 38.8261 55.6482 38.8682 55.6629 38.9077C55.6774 38.9472 55.7005 38.983 55.7306 39.0127C55.7607 39.0423 55.7971 39.0651 55.8371 39.0794C55.8771 39.0937 55.9198 39.0991 55.9621 39.0953V39.3029H54.5377V39.0935C54.58 39.0973 54.6226 39.0919 54.6627 39.0776C54.7027 39.0633 54.739 39.0406 54.7692 39.0109C54.7993 38.9812 54.8224 38.9454 54.8369 38.9059C54.8516 38.8664 54.8571 38.8243 54.8534 38.7824V33.8731C54.8572 33.8312 54.8518 33.7889 54.8372 33.7493C54.8228 33.7098 54.7996 33.6738 54.7695 33.6441C54.7393 33.6142 54.703 33.5914 54.6629 33.5771C54.6229 33.5628 54.5801 33.5573 54.5377 33.5611V33.3535H55.9576V33.5611C55.9157 33.5596 55.8739 33.5665 55.8349 33.5816C55.7958 33.5967 55.7603 33.6196 55.7307 33.6489C55.701 33.6782 55.6778 33.7132 55.6625 33.7518C55.6473 33.7904 55.6402 33.8317 55.6419 33.8731V35.9508C56.478 35.8417 57.2687 35.5108 57.9298 34.9935C58.2699 34.725 58.5026 34.346 58.5865 33.9239C58.5865 33.6646 58.5081 33.5862 58.3501 33.5603H58.2717V33.3535H59.3236C59.3262 33.944 59.1321 34.5191 58.7714 34.9899C58.4665 35.354 58.0911 35.6542 57.6672 35.8732L59.2451 38.6274C59.3043 38.7549 59.396 38.8652 59.5113 38.9472C59.6266 39.0292 59.7615 39.0803 59.9028 39.0953V39.3029L58.6714 39.3056ZM164.009 39.2798V39.0721C164.052 39.0759 164.095 39.0705 164.134 39.0562C164.175 39.0419 164.211 39.019 164.241 38.9892C164.271 38.9595 164.295 38.9235 164.309 38.8839C164.324 38.8443 164.329 38.8021 164.325 38.7601V35.2751L161.378 37.6406V38.7575C161.375 38.7994 161.38 38.8416 161.394 38.8811C161.409 38.9208 161.431 38.9567 161.461 38.9866C161.491 39.0163 161.528 39.0391 161.568 39.0536C161.608 39.0678 161.651 39.0733 161.693 39.0694V39.2771H160.274V39.0694C160.317 39.0733 160.36 39.0678 160.399 39.0536C160.44 39.0391 160.476 39.0163 160.506 38.9866C160.536 38.9567 160.559 38.9208 160.573 38.8811C160.588 38.8416 160.594 38.7994 160.589 38.7575V33.8463C160.593 33.8046 160.587 33.7624 160.573 33.7229C160.558 33.6835 160.536 33.6476 160.506 33.6179C160.475 33.5883 160.439 33.5654 160.399 33.5511C160.36 33.5368 160.317 33.5315 160.274 33.5353V33.3276H161.693V33.5353C161.652 33.5338 161.61 33.5408 161.571 33.556C161.532 33.571 161.497 33.5939 161.468 33.6231C161.438 33.6523 161.414 33.6872 161.399 33.7255C161.384 33.764 161.377 33.8051 161.378 33.8463V36.9383L164.324 34.5746V33.8473C164.327 33.8054 164.321 33.7633 164.306 33.7238C164.293 33.6843 164.269 33.6485 164.239 33.6188C164.209 33.5891 164.173 33.5664 164.132 33.5521C164.093 33.5378 164.05 33.5324 164.007 33.5362V33.3286H165.428V33.5362C165.385 33.5324 165.342 33.5378 165.303 33.5521C165.262 33.5664 165.226 33.5891 165.196 33.6188C165.166 33.6485 165.142 33.6843 165.128 33.7238C165.113 33.7633 165.108 33.8054 165.111 33.8473V38.7575C165.108 38.7994 165.113 38.8416 165.127 38.8812C165.142 38.9208 165.166 38.9567 165.196 38.9866C165.226 39.0163 165.262 39.0391 165.303 39.0534C165.342 39.0678 165.385 39.0732 165.428 39.0694V39.2771L164.009 39.2798ZM154.28 39.2798V39.0721C154.595 39.0453 154.595 38.8377 154.595 38.7076V33.8499C154.599 33.8082 154.594 33.766 154.579 33.7265C154.565 33.6871 154.541 33.6512 154.511 33.6215C154.481 33.5918 154.445 33.569 154.406 33.5547C154.365 33.5404 154.322 33.5351 154.28 33.5388V33.3312H156.699V33.3571C157.358 33.2755 158.025 33.4425 158.566 33.825C158.687 33.9344 158.784 34.0668 158.852 34.2142C158.919 34.3615 158.956 34.5207 158.959 34.6824C158.966 34.8697 158.93 35.0558 158.855 35.2279C158.764 35.4077 158.635 35.5658 158.475 35.6913C158.316 35.8168 158.131 35.9065 157.935 35.9543V35.9811C158.33 36.0297 158.695 36.2159 158.965 36.5062C159.235 36.7964 159.391 37.172 159.407 37.5658C159.406 37.8822 159.311 38.1914 159.133 38.4546C158.955 38.7179 158.703 38.9236 158.408 39.0462C157.964 39.2163 157.49 39.296 157.014 39.2806L154.28 39.2798ZM155.358 38.7343H156.62C157.226 38.7343 158.593 38.7601 158.593 37.5649C158.593 36.3438 157.33 36.2404 156.62 36.2404H155.358V38.7343ZM155.358 35.6949H156.777C157.014 35.6949 158.145 35.6949 158.145 34.8116C158.145 34.0318 157.333 33.9275 156.777 33.9275H155.358V35.6949ZM136.84 39.2771V39.0694C136.882 39.0732 136.925 39.0678 136.965 39.0534C137.005 39.0391 137.042 39.0163 137.071 38.9866C137.101 38.9567 137.125 38.9208 137.14 38.8812C137.154 38.8416 137.159 38.7994 137.156 38.7575V33.8463C137.159 33.8045 137.154 33.7623 137.139 33.7229C137.125 33.6834 137.101 33.6475 137.071 33.6179C137.042 33.5883 137.005 33.5654 136.965 33.5511C136.925 33.5369 136.882 33.5315 136.84 33.5353V33.3276H141.757V34.3411H141.493C141.388 33.8954 141.073 33.9248 140.837 33.9248H137.944V35.6656H139.915C140.231 35.6656 140.467 35.6656 140.547 35.3545H140.809V36.523H140.546C140.467 36.211 140.204 36.211 139.914 36.211H137.942V38.7066H140.887C141.413 38.7066 141.755 38.6292 141.78 38.2128H142.044V39.2824L136.84 39.2771ZM127.794 39.2771V39.0694C127.835 39.071 127.877 39.0641 127.917 39.049C127.956 39.0339 127.991 39.011 128.021 38.9816C128.05 38.9524 128.074 38.9173 128.089 38.8787C128.105 38.8401 128.111 38.7988 128.11 38.7575V33.8463C128.113 33.8045 128.108 33.7623 128.093 33.7229C128.079 33.6834 128.055 33.6475 128.026 33.6179C127.996 33.5883 127.959 33.5654 127.919 33.5511C127.879 33.5369 127.836 33.5315 127.794 33.5353V33.3276H129.187V33.5353H129.214C129.171 33.5315 129.129 33.5368 129.089 33.5511C129.049 33.5654 129.013 33.5883 128.982 33.6179C128.952 33.6476 128.93 33.6835 128.915 33.7229C128.901 33.7624 128.896 33.8046 128.899 33.8463V38.704H131.396V33.8463C131.4 33.8046 131.394 33.7624 131.38 33.7229C131.365 33.6835 131.343 33.6476 131.313 33.6179C131.282 33.5883 131.246 33.5654 131.206 33.5511C131.167 33.5368 131.124 33.5315 131.081 33.5353V33.3276H132.5V33.5353C132.458 33.5315 132.415 33.5368 132.375 33.5511C132.336 33.5654 132.299 33.5883 132.27 33.6179C132.239 33.6476 132.216 33.6835 132.201 33.7229C132.187 33.7624 132.182 33.8046 132.185 33.8463V38.704H134.683V33.8463C134.687 33.8046 134.681 33.7624 134.667 33.7229C134.652 33.6835 134.629 33.6476 134.599 33.6179C134.57 33.5883 134.533 33.5654 134.493 33.5511C134.453 33.5368 134.41 33.5315 134.368 33.5353V33.3276H135.788V33.5353C135.745 33.5315 135.702 33.5369 135.663 33.5511C135.623 33.5654 135.587 33.5883 135.556 33.6179C135.526 33.6475 135.503 33.6834 135.489 33.7229C135.474 33.7623 135.468 33.8045 135.473 33.8463V38.7566C135.468 38.7985 135.474 38.8408 135.489 38.8803C135.503 38.9199 135.526 38.9559 135.556 38.9856C135.586 39.0154 135.622 39.0383 135.663 39.0526C135.702 39.0669 135.745 39.0724 135.788 39.0685V39.2762L127.794 39.2771ZM121.904 39.2771V39.0694C121.947 39.0733 121.989 39.0678 122.029 39.0536C122.068 39.0391 122.105 39.0163 122.136 38.9866C122.166 38.9567 122.188 38.9208 122.203 38.8811C122.217 38.8416 122.222 38.7994 122.218 38.7575V33.8463C122.222 33.8046 122.217 33.7624 122.202 33.7229C122.188 33.6835 122.165 33.6476 122.135 33.6179C122.105 33.5883 122.068 33.5654 122.029 33.5511C121.988 33.5368 121.945 33.5315 121.904 33.5353V33.3276H126.795V34.3411H126.531C126.426 33.8954 126.111 33.9248 125.874 33.9248H122.982V35.6656H124.954C125.268 35.6656 125.505 35.6656 125.586 35.3545H125.849V36.523H125.586C125.507 36.211 125.244 36.211 124.954 36.211H122.982V38.7066H125.952C126.478 38.7066 126.82 38.6292 126.847 38.2128H127.11V39.2824L121.904 39.2771ZM98.4475 39.2771V39.0694C98.4899 39.0732 98.5328 39.0678 98.5727 39.0534C98.6128 39.0391 98.6493 39.0163 98.6794 38.9866C98.7095 38.9567 98.7326 38.9208 98.7472 38.8812C98.7617 38.8416 98.7672 38.7994 98.7633 38.7575V35.2751L95.8177 37.6398V38.7566C95.8139 38.7985 95.8193 38.8408 95.8338 38.8803C95.8483 38.9199 95.8715 38.9559 95.9016 38.9856C95.9317 39.0154 95.9681 39.0383 96.0082 39.0526C96.0482 39.0669 96.091 39.0724 96.1334 39.0685V39.2762H94.7135V39.0685C94.7559 39.0724 94.7987 39.0669 94.8387 39.0526C94.8788 39.0383 94.9153 39.0154 94.9454 38.9856C94.9754 38.9559 94.9986 38.9199 95.0132 38.8803C95.0276 38.8408 95.0331 38.7985 95.0292 38.7566V33.8463C95.0329 33.8045 95.0274 33.7623 95.0128 33.7229C94.9982 33.6834 94.9751 33.6475 94.945 33.6179C94.9148 33.5883 94.8785 33.5654 94.8385 33.5511C94.7986 33.5369 94.7558 33.5315 94.7135 33.5353V33.3276H96.1334V33.5353C96.0911 33.5315 96.0485 33.5369 96.0084 33.5511C95.9684 33.5654 95.9321 33.5883 95.9019 33.6179C95.8719 33.6475 95.8487 33.6834 95.8342 33.7229C95.8195 33.7623 95.814 33.8045 95.8177 33.8463V36.9383L98.7686 34.5746V33.8473C98.7724 33.8054 98.7668 33.7633 98.7523 33.7238C98.7376 33.6843 98.7146 33.6485 98.6844 33.6188C98.6543 33.5891 98.618 33.5664 98.578 33.5521C98.538 33.5378 98.4953 33.5324 98.4529 33.5362V33.3286H99.8729V33.5362H99.8458C99.8035 33.5323 99.7609 33.5378 99.7209 33.5521C99.6809 33.5663 99.6447 33.5891 99.6146 33.6188C99.5845 33.6485 99.5614 33.6843 99.547 33.7239C99.5326 33.7633 99.5271 33.8054 99.531 33.8473V38.7575C99.527 38.7994 99.5324 38.8416 99.5467 38.8811C99.5611 38.9208 99.5842 38.9567 99.6142 38.9866C99.6443 39.0163 99.6806 39.0391 99.7207 39.0536C99.7608 39.0678 99.8034 39.0733 99.8458 39.0694V39.2771H98.4475ZM74.782 39.2771V39.0694C74.8245 39.0732 74.8673 39.0678 74.9074 39.0534C74.9475 39.0391 74.9838 39.0163 75.014 38.9866C75.0441 38.9567 75.0672 38.9208 75.0817 38.8812C75.0963 38.8416 75.1017 38.7994 75.0979 38.7575V35.2751L72.1549 37.6406V38.7575C72.1511 38.7994 72.1567 38.8416 72.1711 38.8812C72.1856 38.9208 72.2087 38.9567 72.2388 38.9866C72.269 39.0163 72.3054 39.0391 72.3455 39.0534C72.3856 39.0678 72.4283 39.0732 72.4708 39.0694V39.2771H71.0507V39.0694C71.0926 39.071 71.1344 39.0641 71.1735 39.049C71.2125 39.0339 71.248 39.011 71.2777 38.9816C71.3073 38.9524 71.3305 38.9173 71.3458 38.8787C71.3611 38.8401 71.3681 38.7988 71.3665 38.7575V33.8463C71.3703 33.8045 71.3646 33.7623 71.3501 33.7229C71.3355 33.6834 71.3123 33.6475 71.2822 33.6179C71.2522 33.5883 71.2158 33.5654 71.1758 33.5511C71.1358 33.5369 71.0931 33.5315 71.0507 33.5353V33.3276H72.4708V33.5353C72.4284 33.5315 72.3857 33.5369 72.3457 33.5511C72.3057 33.5654 72.2694 33.5883 72.2393 33.6179C72.2091 33.6475 72.1859 33.6834 72.1714 33.7229C72.1569 33.7623 72.1512 33.8045 72.1549 33.8463V36.9383L75.1005 34.5746V33.8473C75.1043 33.8054 75.0987 33.7633 75.0841 33.7238C75.0695 33.6843 75.0464 33.6485 75.0163 33.6188C74.9862 33.5891 74.9498 33.5664 74.9099 33.5521C74.8698 33.5378 74.8271 33.5324 74.7848 33.5362V33.3286H76.2048V33.5362H76.1777C76.1354 33.5323 76.0928 33.5378 76.0528 33.5521C76.0128 33.5663 75.9765 33.5891 75.9464 33.6188C75.9164 33.6485 75.8933 33.6843 75.8789 33.7239C75.8645 33.7633 75.859 33.8054 75.8629 33.8473V38.7575C75.8588 38.7994 75.8643 38.8416 75.8786 38.8811C75.893 38.9208 75.916 38.9567 75.9461 38.9866C75.9762 39.0163 76.0125 39.0391 76.0526 39.0536C76.0925 39.0678 76.1353 39.0733 76.1777 39.0694V39.2771H74.782ZM85.3526 39.2245H82.5948V39.0169C82.6372 39.0206 82.68 39.0152 82.7201 39.0009C82.7602 38.9866 82.7965 38.9638 82.8266 38.9339C82.8568 38.9042 82.88 38.8682 82.8944 38.8287C82.9089 38.7891 82.9144 38.7468 82.9105 38.7048V33.7947C82.9145 33.7528 82.9089 33.7106 82.8944 33.671C82.88 33.6315 82.8568 33.5955 82.8266 33.5659C82.7965 33.5361 82.76 33.5134 82.72 33.4992C82.6799 33.4849 82.6371 33.4797 82.5948 33.4837V33.2759H84.0148V33.5362H84.0418C83.9995 33.5324 83.9568 33.5378 83.9168 33.5521C83.8768 33.5664 83.8404 33.5891 83.8103 33.6188C83.7802 33.6485 83.7571 33.6843 83.7425 33.7238C83.7279 33.7633 83.7224 33.8054 83.7261 33.8473V35.432C84.3163 35.4187 84.9063 35.4623 85.488 35.5621C85.9165 35.6122 86.3265 35.7634 86.6833 36.0028C87.0403 36.2424 87.3337 36.5633 87.5386 36.9383C87.635 37.1775 87.6799 37.4341 87.6703 37.6915C87.6726 37.9761 87.59 38.255 87.4331 38.4936C87.2087 38.7767 86.9105 38.9942 86.5705 39.1223C86.2305 39.2505 85.8616 39.2845 85.5033 39.2209L85.3526 39.2245ZM83.7486 38.7316H85.3788C85.6335 38.7734 85.8949 38.7387 86.1295 38.6321C86.364 38.5255 86.5606 38.3518 86.6942 38.1336C86.7742 37.9898 86.8193 37.8295 86.8259 37.6656C86.8149 37.4214 86.7353 37.1852 86.5958 36.9834C86.4563 36.7814 86.2627 36.622 86.0365 36.523C85.4702 36.2227 84.8388 36.0621 84.1961 36.055L83.745 36.0292L83.7486 38.7316ZM151.706 28.4148C150.696 27.1322 149.29 27.1322 147.847 27.1322H145.612C144.926 27.1322 142.835 27.1322 142.077 28.7713C141.897 29.0913 141.826 29.5192 141.321 29.5192C141.168 29.5177 141.023 29.4573 140.915 29.3508C140.807 29.2444 140.745 29.1002 140.744 28.9496C140.744 28.5217 140.852 28.4861 140.852 27.4174C140.852 26.5262 140.78 26.1696 140.78 25.7079C140.78 25.3157 140.852 25.2801 141.322 24.9244C141.755 24.6749 141.971 24.4253 142.296 23.1079C143.137 18.9285 143.62 14.6863 143.738 10.4265C143.738 7.79093 143.198 8.00395 143.198 7.03956C143.198 6.39871 143.81 6.47002 144.243 6.47002C145.036 6.47002 146.875 6.61173 147.811 6.61173C149.831 6.61173 150.48 6.43348 151.309 6.43348C151.671 6.43348 152.426 6.39782 152.426 7.07521C152.35 7.43663 152.253 7.79368 152.138 8.14478C151.978 8.91887 151.894 9.70615 151.885 10.496V22.5366C151.885 23.2497 151.993 24.6026 152.57 24.9592C152.786 25.1018 153.363 25.1732 153.363 25.8505C153.334 26.1031 153.285 26.3532 153.219 26.5992C153.189 26.8473 153.178 27.0972 153.183 27.347C153.214 27.8846 153.275 28.4201 153.363 28.9514C153.369 29.0294 153.358 29.1077 153.331 29.1814C153.306 29.255 153.264 29.3225 153.21 29.3793C153.155 29.4363 153.09 29.4815 153.017 29.5122C152.943 29.5428 152.865 29.5583 152.786 29.5574C152.214 29.5566 152.069 28.8061 151.708 28.4148H151.706ZM146.654 15.9116C146.364 20.1899 145.931 21.9314 145.931 22.7862C145.931 23.1784 146.04 23.4636 146.941 23.4636C148.205 23.4636 148.059 22.8584 148.059 22.181V12.5977H148.096C148.096 12.2769 148.131 11.4934 147.519 11.4934C146.445 11.4934 146.769 14.7351 146.66 15.9107L146.654 15.9116ZM93.9457 28.4148C92.9363 27.1322 91.5298 27.1322 90.0881 27.1322H87.8525C87.1669 27.1322 85.0757 27.1322 84.2827 28.7713C84.1393 29.0913 84.0671 29.5192 83.561 29.5192C83.4044 29.5198 83.2534 29.4611 83.1393 29.3552C83.0252 29.2492 82.9565 29.104 82.9475 28.9496C82.9475 28.5217 83.0558 28.4861 83.0558 27.4174C83.0558 26.5262 82.9845 26.1696 82.9845 25.7079C82.9845 25.3157 83.0558 25.2801 83.5258 24.9244C83.9219 24.6749 84.1744 24.4253 84.4992 23.1079C85.3413 18.9285 85.8242 14.6863 85.9427 10.4265C85.9427 7.79093 85.4014 8.00395 85.4014 7.03956C85.4014 6.39871 86.014 6.47002 86.447 6.47002C87.24 6.47002 89.1146 6.61173 90.0159 6.61173C92.035 6.61173 92.6484 6.43348 93.5136 6.43348C93.8745 6.43348 94.6304 6.39782 94.6304 7.07521C94.5719 7.44062 94.4752 7.79905 94.3418 8.14478C94.1706 8.91772 94.0742 9.70504 94.054 10.496V22.5366C94.054 23.2497 94.1974 24.6026 94.7387 24.9592C94.9914 25.1018 95.5317 25.1732 95.5317 25.8505C95.5137 26.1023 95.4774 26.3525 95.4235 26.5992C95.3936 26.8473 95.3816 27.0972 95.3874 27.347C95.3874 28.2383 95.5309 28.5583 95.5309 28.9514C95.5399 29.0272 95.5328 29.1039 95.5098 29.1768C95.4868 29.2496 95.4486 29.3169 95.3975 29.3741C95.3464 29.4313 95.2837 29.4772 95.2133 29.5088C95.143 29.5404 95.0668 29.557 94.9895 29.5574C94.4157 29.5566 94.2353 28.8061 93.9457 28.4148ZM88.9352 15.9107C88.6825 20.1889 88.2135 21.9306 88.2135 22.7853C88.2135 23.1775 88.3569 23.4627 89.2229 23.4627C90.4859 23.4627 90.3407 22.8575 90.3407 22.1802V12.5977C90.3407 12.2769 90.4128 11.4934 89.7994 11.4934C88.7177 11.4934 89.0425 14.7351 88.9352 15.9107ZM111.83 23.8896C111.929 22.309 112.398 20.7728 113.201 19.4019C114.498 17.122 115.761 16.4089 115.761 15.7324C115.305 13.9109 114.715 12.125 113.994 10.3891C112.66 7.07611 112.228 7.39608 112.228 7.00213C112.228 6.7178 112.444 6.39604 113.311 6.39604C113.528 6.38928 113.745 6.40121 113.96 6.43169C114.356 6.46823 114.825 6.53954 115.223 6.53954C115.561 6.53465 115.897 6.51085 116.233 6.46823C116.556 6.42657 116.881 6.40276 117.207 6.39694C117.964 6.39694 118.036 6.85952 118.036 7.18038C118.03 7.45466 118.006 7.72826 117.964 7.99949C117.922 8.27097 117.898 8.54489 117.892 8.81949C117.892 10.2081 118.505 11.3152 118.865 11.3152C119.261 11.3152 119.767 9.88905 119.767 9.21345C119.753 8.68901 119.533 8.1905 119.154 7.8239C118.973 7.61088 118.649 7.36132 118.649 7.0048C118.649 6.43436 119.334 6.39871 119.659 6.39871C120.381 6.39871 120.922 6.54132 121.391 6.54132C122.003 6.54132 122.544 6.39871 122.94 6.39871C123.698 6.39871 124.204 6.82654 124.204 8.53784C124.096 10.4219 123.375 12.2212 122.149 13.6673C121.319 14.7369 120.453 15.4846 120.453 16.4812C120.453 17.6568 122.545 22.4297 122.762 22.8941C124.059 25.7792 124.637 26.1357 124.637 26.6375C124.637 26.9941 124.275 27.1366 123.663 27.1366C122.473 27.1366 123.555 27.0297 121.498 27.0297C121.149 27.0239 120.8 27.0358 120.452 27.0654C120.201 27.1087 119.948 27.1325 119.695 27.1366C118.685 27.1366 118.721 26.4958 118.721 26.3879C118.82 25.8945 118.88 25.3941 118.902 24.8914C118.902 23.7159 117.819 20.5812 117.062 20.5812C116.737 20.5812 116.089 21.3298 116.089 23.0394C116.035 23.6555 116.155 24.2743 116.435 24.8276C116.715 25.3808 117.144 25.8467 117.675 26.1741C117.892 26.281 118.288 26.3871 118.288 26.7801C118.288 27.2427 117.207 27.5279 116.558 27.9558C115.765 28.4906 115.224 29.2036 114.683 29.2036C113.886 29.2 111.83 26.9879 111.83 23.8896ZM127.803 20.8975V12.7046H127.84C127.84 11.5291 127.84 6.257 132.852 6.257C137.432 6.257 137.828 9.96214 137.828 12.3491V20.3993C137.828 22.7853 137.612 27.3096 132.744 27.3096C129.102 27.3096 127.803 24.8156 127.803 20.8975ZM131.625 14.2716V20.1854C131.625 21.5384 131.698 22.9992 132.888 22.9992C134.259 22.9992 134.078 21.1819 134.078 20.0428V14.3786C134.078 13.309 134.078 11.7047 132.78 11.7047C131.625 11.7073 131.625 13.3099 131.625 14.2716ZM98.6703 20.8975V12.7046C98.6703 11.5291 98.6703 6.257 103.683 6.257C108.299 6.257 108.694 9.96214 108.694 12.3491V20.3993C108.694 22.7853 108.513 27.3096 103.611 27.3096C99.9315 27.3096 98.6703 24.8156 98.6703 20.8975ZM102.459 14.2716V20.1854C102.459 21.5384 102.531 22.9992 103.685 22.9992C105.055 22.9992 104.911 21.1819 104.911 20.0428V14.3786C104.911 13.309 104.911 11.7047 103.613 11.7047C102.456 11.7073 102.456 13.3108 102.456 14.2725L102.459 14.2716ZM70.0801 20.8984V12.7046C70.0801 11.5291 70.0801 6.257 75.0916 6.257C79.6708 6.257 80.0679 9.96214 80.0679 12.3491V20.3993C80.0679 22.7853 79.8874 27.3096 75.0158 27.3096C71.343 27.3096 70.0801 24.8166 70.0801 20.8984ZM73.8294 14.2725V20.1863H73.8655C73.8655 21.5393 73.9737 23.0002 75.1285 23.0002C76.498 23.0002 76.3175 21.1827 76.3175 20.0436V14.3786C76.3175 13.309 76.3175 11.7047 75.0203 11.7047C73.8267 11.7073 73.8267 13.3108 73.8267 14.2725H73.8294ZM58.8634 26.9887C57.7673 26.9895 56.672 27.049 55.5824 27.1669C54.6801 27.1669 54.609 26.5609 54.609 26.2756C54.609 24.7801 55.2576 25.3844 55.2576 20.0775V9.32397C55.2576 8.07615 55.2215 6.15361 55.1493 5.29885C55.0411 4.08756 54.8967 3.6945 54.8967 3.12585C54.8967 2.19979 55.5101 2.12848 55.9423 2.12848C56.4835 2.12848 57.0249 2.16414 57.6014 2.19979C58.1427 2.23544 58.7182 2.23544 59.2956 2.23544C60.5587 2.23544 61.3507 2.12848 62.288 2.12848C63.3707 2.12848 66.0772 2.76933 66.0772 8.79007C66.0772 10.1796 65.9328 12.0674 64.9945 13.2074C64.7059 13.5639 64.2728 13.9204 64.2728 14.2047C64.2728 14.5256 64.8141 15.1664 65.2102 15.8439C66.2354 17.6075 66.7471 19.6168 66.6888 21.6498C66.6888 24.5019 65.2102 27.1714 62.1094 27.1714C61.0316 27.0526 59.948 26.9917 58.8634 26.9887ZM59.6926 16.7298V21.9314C59.6926 22.394 59.6565 23.2131 60.8464 23.2131C61.5681 23.2131 62.2529 23.1775 62.2529 21.1114C62.2529 18.6889 60.8094 15.8394 60.0174 15.8394C59.6926 15.8394 59.6926 16.4089 59.6926 16.7298ZM59.6565 8.28649V9.60562H59.6926C59.6733 9.78362 59.6929 9.96363 59.7498 10.1336C59.8067 10.3035 59.8998 10.4595 60.0227 10.5909C60.1457 10.7224 60.2957 10.8265 60.4626 10.896C60.6295 10.9656 60.8096 10.9991 60.9908 10.9943C62.1086 10.9943 62.1086 9.46301 62.1086 8.92823C62.1086 7.53869 61.5673 7.07611 60.7381 7.07611C59.837 7.077 59.6574 7.78915 59.6574 8.28738L59.6565 8.28649ZM158.45 26.3799C158.549 25.8812 158.693 25.3925 158.884 24.92C159.161 23.7649 159.295 22.5804 159.28 21.3931V10.2474H159.316C159.316 9.07173 159.028 8.75086 158.414 8.75086C158.208 8.74287 158.005 8.79201 157.827 8.8927C157.648 8.99338 157.502 9.14157 157.403 9.3204C157.26 9.46301 157.008 9.81953 156.611 9.81953C156.394 9.81953 155.926 9.71257 155.926 8.82217C155.926 8.07347 156.034 7.9674 156.034 5.93702C156.04 4.99456 155.967 4.05323 155.818 3.12229C155.818 2.26841 156.36 2.12491 157.585 2.12491C158.295 2.12402 159.004 2.15972 159.711 2.23187C160.309 2.32489 160.911 2.3844 161.516 2.41014C162.49 2.41014 163.21 2.23187 163.787 2.23187C164.329 2.23187 164.364 2.48144 164.364 2.6597C164.264 3.2636 164.119 3.85942 163.93 4.44231C163.812 5.20972 163.739 5.98361 163.715 6.75969V11.5727C163.715 11.751 163.715 11.964 164.039 11.964C164.286 11.9024 164.528 11.8191 164.761 11.7154C165.42 11.4823 166.115 11.3618 166.816 11.3588C170.89 11.3588 170.998 15.1344 170.998 16.2744V22.8646C170.998 27.1046 166.668 27.1046 165.59 27.1046C165.013 27.1046 164.507 27.1046 163.93 27.068C163.246 27.0324 162.524 26.9967 161.841 26.9967C159.641 26.9967 161.299 27.1394 159.28 27.1394C158.884 27.1322 158.451 26.9887 158.451 26.3835L158.45 26.3799ZM163.751 18.1871V20.5731C163.751 22.8531 163.967 23.2087 164.977 23.2087C165.879 23.2087 166.635 23.0669 166.635 21.4635V18.0124C166.635 17.2289 166.564 16.0176 165.229 16.0176C163.679 16.0176 163.751 17.4072 163.751 18.1906V18.1871Z" fill="white"/>
</g>
<defs>
<clipPath id="clip0_7251_9223">
<rect width="171" height="41" fill="white"/>
</clipPath>
</defs>
</svg>
